<?xml version="1.0" encoding="utf-8"?>
<!-- Generator: Adobe Illustrator 27.5.0, SVG Export Plug-In . SVG Version: 6.00 Build 0)  -->
<svg version="1.1" id="Layer_1" xmlns="http://www.w3.org/2000/svg" xmlns:xlink="http://www.w3.org/1999/xlink" x="0px" y="0px"
	 viewBox="0 0 1181.4 372.2" style="enable-background:new 0 0 1181.4 372.2;" xml:space="preserve">
<style type="text/css">
	.st0{fill:none;stroke:#374151;stroke-width:6.912;stroke-miterlimit:3.456;}
	.st1{fill:none;stroke:#EF4444;stroke-width:1.728;stroke-miterlimit:3.456;}
	.st2{fill:none;stroke:#3B82F6;stroke-width:1.728;stroke-miterlimit:3.456;}
	.st3{fill:none;stroke:#FBBF24;stroke-width:1.728;stroke-miterlimit:3.456;}
	.st4{fill:#FFFFFF;stroke:#000000;stroke-width:10.296;stroke-miterlimit:3.168;}
</style>
<path vector-effect="non-scaling-stroke" class="st0" d="M891.2,352.6c-203.2,1.4-406.4,3-609.7,4.7c-22.4,1-45.7,1.1-68.1,0
	c-24.2,1.1-48.1-13.5-55.2-37.2c-5-36.4-9.7-61.9-46.5-79.1c-14.4-7.1-30.6-9.8-45.4-15.8c-27.2-11.1-48.6-34.3-58.1-62.1
	c-18-54.7,17-114.1,67.9-136.2c49-23.3,104.6-20.8,157.5-21c24.3-0.3,49-2,73.3-1.4c24.4-2.1,52.4-2.4,74,10.6
	c33.7,22.5,26.6,70.2-1.6,94c-19,19.3-48.6,23.6-74.3,23.8c-29-0.5-58.4-2.7-87-2.1c-17.9-0.3-36.2-2.8-53,2.6
	c-27.6,5.6-35.2,37.7-17.1,57.6c13.7,13.9,30.7,24.6,47.1,34.2c16,10.7,32.5,21.2,49.3,29.7c34.8,17.8,72.4,30.6,111.4,31.6
	c23.6,1.6,48.6,4.6,70.7-3.9c38.9-16.8,30.5-49.3,37.2-82.1c6.3-32.9,30-59.7,47.6-86.8c25-40.9,58.3-88.5,111.3-87.1
	c51.5,0.9,89.3,40.2,132.4,62.2c86.7,50.7,169.2,109.8,256.8,156.4c24,13.7,46.6-8.3,35.5-32.6c-8.2-25.3-14.9-53.3-35-71
	c-16.8-15.1-43.2-17.4-55.9-36.7c-27.2-31.4,1.3-75.4,38.7-76.7c23.3-2,45,8.6,66.2,14.6c23.9,8.1,49.1,13.6,68.9,28.2
	c37.3,32.5-21.3,97,15.1,121.2c32.6,7.3,33.9,32.5,32.2,60.5c0.1,33.8-18.2,65.5-45.6,83.4c-33.3,21.8-74.5,17.2-111.6,17.1
	C976.7,352.5,934,354.6,891.2,352.6z"/>
<path vector-effect="non-scaling-stroke" class="st1" d="M891.2,352.6c-198,1.7-396.1,2.2-594.1,4.8c-24.1,0-49,1-73,0.3
	c-26.6,1.3-50.5-5.8-63.5-30.8c-5.2-10.2-3.1-22.1-6.9-32.7c-2.2-18.7-14-36.5-30.2-46.3c-14.9-11.8-34.8-13.7-51.8-20.9
	c-25.8-8.6-48.9-28.8-59.2-54.3c-31-64.6,21.2-138.5,86.1-154.2C135.3,5.4,175.7,5.7,214.2,6c33-1,66.5-0.5,99.2-2.9"/>
<path vector-effect="non-scaling-stroke" class="st2" d="M313.4,3.2c28.9,0.1,62.8-0.6,81.5,25.3c22.2,32.9-1,77.7-34,93.4
	c-37.6,17.9-80.1,7.5-119.9,9.1c-21.7-1.2-43.8-1.5-65.4-0.7c-25.9,3.5-45.7,22.4-34.8,49.6c16.1,27.7,48.4,38.9,72.8,57.7
	c37.9,21.7,78.2,42.6,122.5,47c40.6,2.8,102,15.6,119.9-32.9c6-15.4,3.2-32.1,7-47.9c4.3-26.8,20.4-50.8,36.4-72.3
	c24.1-35.7,45.1-78.5,86-97.4c60.3-27.3,114.2,22.7,163.4,51.2c73.2,42.5,143.8,89.4,216,133.4"/>
<path vector-effect="non-scaling-stroke" class="st3" d="M964.9,218.9c19.6,10.5,37.9,25.7,59.9,30.1c10.5,1.9,20.5-5.4,24.4-14.8
	c3-11.5-1.8-23.6-5.9-34.3c-7.4-23.7-16.4-51.1-38.9-64.4c-20.8-10.8-45.6-19.1-55.4-42.3c-15.2-40.7,27.1-73.2,65.4-64.3
	c22.2,4.4,43.5,13,65.2,19.3c23.8,8.9,57.6,15.2,63,44.5c4.5,27.9-12,54.2-9.2,82.3c5.8,24.6,26.9,14.3,38,33
	c8.2,13,6.5,29.8,6.3,44.4c-0.3,29.6-13.8,59.9-38.1,77.5c-34,29.7-82.3,22.3-124.1,23.2c-41.3-0.9-83.1,1.7-124.2-0.5"/>
<circle id="minimapCarCircle" class="st4" cx="891.3" cy="353.6" r="13.5"/>
</svg>
