<?xml version="1.0" encoding="utf-8"?>
<!-- Generator: Adobe Illustrator 27.5.0, SVG Export Plug-In . SVG Version: 6.00 Build 0)  -->
<svg version="1.1" id="Layer_1" xmlns="http://www.w3.org/2000/svg" xmlns:xlink="http://www.w3.org/1999/xlink" x="0px" y="0px"
	 viewBox="0 0 976.4 629.5" style="enable-background:new 0 0 976.4 629.5;" xml:space="preserve">
<style type="text/css">
	.st0{fill:none;stroke:#374151;stroke-width:7.513;stroke-miterlimit:3.7565;}
	.st1{fill:none;stroke:#EF4444;stroke-width:1.8783;stroke-miterlimit:3.7565;}
	.st2{fill:none;stroke:#3B82F6;stroke-width:1.8783;stroke-miterlimit:3.7565;}
	.st3{fill:none;stroke:#FBBF24;stroke-width:1.8783;stroke-miterlimit:3.7565;}
	.st4{fill:#FFFFFF;stroke:#000000;stroke-width:10.296;stroke-miterlimit:3.168;}
</style>
<path vector-effect="non-scaling-stroke" class="st0" d="M695.6,569.2c55.2-12.8,110.1-28.5,165.3-41.3
	c36.9-12.7,96.4-14.8,110.8-57.3c8.8-37.2-43.1-54.1-34.7-103.3c0.8-24.2,19.6-44.3,21.6-68.6c10.5-58.7-26.5-116-77-143.7
	c-53.1-27.9-115.2-32.6-171.9-50.7C593.9,74.5,477.5,44.6,362.2,14.1C343.1,9.3,323.3,0.9,304,4.7c-40.7,7.8-62.2,51.2-62,89.2
	c-7.1,65,29.4,128.3,83.6,161.5c47,28.4,92.9,58.8,137.1,90.2c47.3,30.8,103.8,66.7,96.7,130.5c-6.3,54.4-55.4,84.3-105.2,91.1
	c-24.1,2.6-53.3,13.9-73.2-3.8c-29.8-30,21.6-61.2,8.5-93.9c-6.6-29-41.5-34.5-63.9-20.6c-26.3,17-44.3,44.7-71.4,60.1
	c-22.7,12.8-47,27.8-73.3,27.2c-19.9-0.2-33.9-19.1-27.2-37.6c8-16.3,24.4-26.3,39.4-34.7c51.4-33.1,69.3-104.4,31-154
	c-27.9-38-74.7-54.9-111.8-80.8c-15-7.4-27.6-19.4-44.1-20.6c-43.3-1.2-57,50.7-62.9,84.6c-9.9,88.6,29.4,188.2,94,247.9
	c49.4,43.4,116.9,50.2,177.5,63.9c65.4,12.2,131.6,26,197.2,18.8c38.1-4.4,74.9-15.5,110.8-24.4
	C622.2,588.7,659.4,581.4,695.6,569.2z"/>
<path vector-effect="non-scaling-stroke" class="st1" d="M695.6,569.2c57.7-13.5,115.1-29.7,172.8-43.2
	c32.3-10.8,72.5-13.3,95.8-40.4c30.3-40.6-28.9-64.3-27.2-104.2c-4.6-25.4,12.3-48,19.7-71.4c13.1-52-10.2-105.6-50.7-139
	c-49.5-37.7-113.4-43.8-171.9-60.1c-85.6-22.4-171.7-44.5-257.3-66.7"/>
<path vector-effect="non-scaling-stroke" class="st2" d="M476.8,44.2c-38.2-9.2-76.4-20.7-114.6-30.1c-24.9-7.3-52.7-17-77-2.8
	c-38.3,21.5-47.4,70.3-43.2,110.8c3.4,42.5,23.2,83.7,55.4,111.8c23.5,21.2,53,35.5,78.9,53.5c29.5,17.9,58.1,38.6,86.4,58.2
	c28.7,19.6,59.9,38.2,80.8,66.7c18.5,28.6,22.2,66.4,5.6,96.7c-17.2,32.6-52.5,51.9-88.3,56.3c-28,5.1-70.9,19.9-87.3-12.2
	c-9-25.9,17.1-44.9,17.8-69.5c2.2-26-22.4-47.8-47.9-41.3c-22.3,4.5-37.9,22.3-53.5,37.6c-26.6,27.5-61.6,47.3-98.6,56.3
	c-38.8,4.1-53-32.4-22.5-56.3c14.6-10.9,30.8-19.5,44.1-31.9c20-21,33-49.5,31.9-78.9c-0.1-56.3-49.5-92.8-94.9-116.5"/>
<path vector-effect="non-scaling-stroke" class="st3" d="M150,252.7c-14.8-9.9-30.8-19-46-28.2c-11.1-6.7-22.2-14.9-35.7-16
	c-38.9-1.7-55.2,43.2-61,75.1c-17,90.5,30.4,211.6,104.2,266.8c38,29.6,86.8,36.9,132.4,47.9c56.8,11.1,114,23.2,171.8,27.2
	C510,628.9,601,592.4,691.8,571"/>
<circle id="minimapCarCircle" class="st4" cx="691.8" cy="569.2" r="13.5"/>
</svg>
