<?xml version="1.0" encoding="utf-8"?>
<!-- Generator: Adobe Illustrator 27.5.0, SVG Export Plug-In . SVG Version: 6.00 Build 0)  -->
<svg version="1.1" id="a" xmlns="http://www.w3.org/2000/svg" xmlns:xlink="http://www.w3.org/1999/xlink" x="0px" y="0px"
	 viewBox="0 0 1204.4 884.4" style="enable-background:new 0 0 1204.4 884.4;" xml:space="preserve">
<style type="text/css">
	.st0{fill:none;stroke:#000000;stroke-width:15;stroke-linejoin:round;}
	.pit{fill:none;stroke:#000000;stroke-width:2;stroke-linejoin:round;}
	.st1{fill:none;stroke:#942800;stroke-width:10;stroke-linejoin:round;}
	.st2{fill:none;stroke:#DFD800;stroke-width:10;stroke-linejoin:round;}
	.st3{fill:none;stroke:#4AA0FF;stroke-width:10;stroke-linejoin:round;}
	.st6{fill:#FFFFFF;stroke:#000000;stroke-width:10.296;stroke-miterlimit:3.168;}
</style>
<path class="st0" d="M563.8,865.8c-136.8,0.3-268.3-2.9-398.1-3.3
	c-76.6-0.2-85.7-85-43.4-108c47.6-25.8,92.3-47.7,138.8-74.8c34.9-20.3,37.6-75.9-5.4-97.8c-45.5-23.1-73.6-38.2-117.5-63.1
	c-10.7-6.1-24.8-22.1-29-33.8c-35.5-99.2-64.9-190.3-98.5-290.9c-10.2-30.7,4.2-58.9,38.3-70.6c26.2-9,37.9-13.3,66.1-22.4
	c25.3-8.1,57.3,13.1,67.9,40.4c22.1,57.1,37.9,113.8,56.2,170.2c4.2,12.9,21.9,28.9,32.6,28.7c8.5-0.2,24.8-7.8,26.3-18.2
	c13.4-91,26.5-181.9,38-272.8c2.3-18.5,21.6-33.1,35-38.9c12.5-5.4,31.1-2.8,43.1,3s23.6,18.4,28.7,31.7c7.3,19,6.7,40.7,14.4,59.8
	c9.9,24.8,21.9,50.3,40.4,70c12.7,13.5,34.9,27.8,49,44.1c8.6,10,25.9,28.5,19.2,51.6c-7.9,27.3-26.6,80.9-38.6,137.6
	c-3,14.1,5.2,32.2,16.2,39.5c13,8.7,37.8,8.1,54.4,3.3c31.2-9.1,63.3-21.3,91.5-39.8c24-15.8,44-35.6,63.4-56.8
	c14.9-16.4,28.2-35.3,37.7-55.6c27.6-59.4,49.6-120.4,74.2-181.8c7.3-18.4,20-41.7,35.9-51.1c9.7-5.7,28.6-14.3,39.5-14.4
	c44.2-0.2,68.9-0.5,113.7,0.3c11.5,0.2,32.6,13.2,38,23.3c23.6,45,44.4,80.8,69.4,123.8c6.7,11.6,7.4,38.1-3.3,50.5
	c-53.1,62-92.2,110.7-147.2,172c-15.7,17.5-25.6,48.6-13.2,67.6c63.9,97.8,116.7,189.3,189.6,288.6c24.5,33.3-0.1,83.2-41,83.4
	c-197.4,1.1-382.5,4.3-582.3,4.8V865.8z"/>
<path class="pit" d="M1146,857.1c-7,0.2-43.8-2.6-49.9-2.9c-4.3-0.2-58.8-8.4-58.8-8.4c-42.4,1.1-84.7,3.1-127.1,3.3
	c-127.3,0.7-254.7-2.1-381.9-0.6c-32.4,0.4-64.6,5.7-97.1,6.3c-52,0.9-86.6,5.1-130.1,5"/>
<path class="st1" d="M563.8,865.8c-136.8,0.3-268.3-2.9-398.1-3.3
	c-76.6-0.2-85.7-85-43.4-108c47.6-25.8,92.3-47.7,138.8-74.8c34.9-20.3,37.6-75.9-5.4-97.8c-45.5-23.1-73.6-38.2-117.5-63.1
	c-10.7-6.1-24.8-22.1-29-33.8c-35.5-99.2-64.9-190.3-98.5-290.9c-10.2-30.7,4.2-58.9,38.3-70.6c26.2-9,37.9-13.3,66.1-22.4
	c25.3-8.1,57.3,13.1,67.9,40.4c14.4,37.2,26.1,74.1,37.6,111"/>
<path class="st2" d="M849.1,156.6c5.1-13.2,10.3-26.4,15.6-39.6
	c7.3-18.4,20-41.7,35.9-51.1c9.7-5.7,28.6-14.3,39.5-14.4c44.2-0.2,68.9-0.5,113.7,0.3c11.5,0.2,32.6,13.2,38,23.3
	c23.6,45,44.4,80.8,69.4,123.8c6.7,11.6,7.4,38.1-3.3,50.5c-53.1,62-92.2,110.7-147.2,172c-15.7,17.5-25.6,48.6-13.2,67.6
	c63.9,97.8,116.7,189.3,189.6,288.6c24.5,33.3-0.1,83.2-41,83.4c-197.4,1.1-382.5,4.3-582.3,4.8v-0.1"/>
<path class="st3" d="M220.6,252.4c6.2,19.8,12.2,39.5,18.6,59.2
	c4.2,12.9,21.9,28.9,32.6,28.7c8.5-0.2,24.8-7.8,26.3-18.2c13.4-91,26.5-181.9,38-272.8c2.3-18.5,21.6-33.1,35-38.9
	c12.5-5.4,31.1-2.8,43.1,3c12,5.8,23.6,18.4,28.7,31.7c7.3,19,6.7,40.7,14.4,59.8c9.9,24.8,21.9,50.3,40.4,70
	c12.7,13.5,34.9,27.8,49,44.1c8.6,10,25.9,28.5,19.2,51.6c-7.9,27.3-26.6,80.9-38.6,137.6c-3,14.1,5.2,32.2,16.2,39.5
	c13,8.7,37.8,8.1,54.4,3.3c31.2-9.1,63.3-21.3,91.5-39.8c24-15.8,44-35.6,63.4-56.8c14.9-16.4,28.2-35.3,37.7-55.6
	c21.7-46.6,39.9-94.2,58.6-142.2"/>
<circle class="st6" cx="563.8" cy="865.8" r="13.5"/>
</svg>
