<?xml version="1.0" encoding="utf-8"?>
<!-- Generator: Adobe Illustrator 27.5.0, SVG Export Plug-In . SVG Version: 6.00 Build 0)  -->
<svg version="1.1" id="Layer_1" xmlns="http://www.w3.org/2000/svg" xmlns:xlink="http://www.w3.org/1999/xlink" x="0px" y="0px"
	 viewBox="0 0 1934.1 371" style="enable-background:new 0 0 1934.1 371;" xml:space="preserve">
<style type="text/css">
	.st0{fill:none;stroke:#374151;stroke-width:6.5455;stroke-miterlimit:3.2727;}
	.st1{fill:none;stroke:#EF4444;stroke-width:1.6364;stroke-miterlimit:3.2727;}
	.st2{fill:none;stroke:#3B82F6;stroke-width:1.6364;stroke-miterlimit:3.2727;}
	.st3{fill:none;stroke:#FBBF24;stroke-width:1.6364;stroke-miterlimit:3.2727;}
	.st4{fill:#FFFFFF;stroke:#000000;stroke-width:10.296;stroke-miterlimit:3.168;}
</style>
<path vector-effect="non-scaling-stroke" class="st0" d="M1018.2,243.7c-70.4-15.7-140.3-34.2-210.5-51.3
	c-26.4-7.4-53.8-14.3-80.7-19.8c-17.7-4.1-36.5-9.2-54.6-5.8c-53.1,11.7-41.4,61.6-97.5,74.7c-36.2,8.4-73.3-4.8-107.4-15.9
	c-37.4-11.1-75.8-22-114.8-25.3c-55.5-6.9-111.9,2.1-167.1-8.1c-16.1-1.4-31.7-10.6-42.8-22.2c-7.4-9.3-11-21.2-17.9-30.7
	c-8.2-16.5-30.6-22.6-46.9-15.2c-17.9,6.7-34.4,22.1-54.7,15.5C9,134,5,117.4,3.8,103.4C1.3,84.3,7.7,65.1,21.5,51.8
	c21-17.6,51.6-15,75.7-7.3c20.8,8.5,35.6,25.1,51,40.1c34,33.4,83.6,37.8,128.2,33.9c180.8-15.3,362.2-26.1,542.8-37.9
	c73.3-6.6,147-6.2,219.3-15.2c42.1-9.9,33.6-39.2,59.2-58.1c20.4-10.8,41.5,2,58.9,12.1c16.4,8.7,34.6,13.6,51.8,18.4
	c81.8,12.8,165.3-0.6,246.5-5.1c62.1-5.8,123.9-9.5,184.9-15.1c46.5-2.7,95.1-12.8,137.8,7.8c59.8,23.6,92,82.1,113.5,138.2
	c12.9,32.9,33,63.4,37.6,97.8c13,63.5-44.2,132.6-107.2,96.3c-44-26.7-31.2-86.4-14.3-125.1c12-37.5,23.1-87.3-6.9-117.5
	c-14.6-12-35.7-11.8-51.1-3.7c-15.1,8.9-24.3,23.3-34.9,35.6c-18.1,20.9-41.1,38.4-65.3,49.9c-70,33.8-115,6.4-182.8-3.4
	c-63-1.1-86.7,46.8-52.2,96.8c8.7,16.6,7.8,40.5-14.2,43c-13.8,0.6-26.8-5-39.4-7.7c-27.5-6.5-55.1-14.2-81.8-20.3
	C1191.9,283.7,1105.3,263.5,1018.2,243.7z"/>
<path vector-effect="non-scaling-stroke" class="st1" d="M1018.2,243.7c-90-20.1-179.3-44.1-268.9-66.1
	c-40-9.4-84.5-24.9-115.4,12.2c-9.6,14.5-18.2,31.4-33.8,40.4c-42.2,28.5-95.2,7.2-138.9-6.4c-35.5-10.1-71.8-20.4-108.7-23.3
	c-60.2-8-123,4.7-181.8-11.8c-29.2-9.4-34.4-31.5-48.8-54.2c-10.3-11.6-26.2-16.3-41-11.5c-12.9,4.7-24.2,12.6-37.2,17.1
	c-29.2,7.4-40.1-16.4-40.4-41.8"/>
<path vector-effect="non-scaling-stroke" class="st2" d="M3.4,98.2C1.1,42.1,58,26.5,101.9,47.1c17.1,7,29.8,20.9,42.3,33.9
	c12.6,12.3,27.6,21.9,43.8,28.9c35.3,13.7,73.2,9.4,109.9,6.9c43.6-3.6,87.6-7.7,131.3-9.9c135-10.4,270.4-18.3,405.6-27.3
	c58-4.7,116.4-6.1,174.4-10.7c22.5-1.1,47.2-4,62.3-22.9c6.9-10.8,11.1-23.8,20-33c13-13.5,34.8-11,49.6-1.9
	c43.6,26.4,95.3,34.8,145.9,31.9c49.3-0.2,98.6-4.9,147.8-8.6"/>
<path vector-effect="non-scaling-stroke" class="st3" d="M1434.5,34.1c65.8-5.5,131.9-10,197.8-16.1c36.5-1.1,74-9.9,110.3-2.9
	c43.2,6.3,83.5,33.9,108.2,69.5c22.6,29.8,33.7,66.5,50,99.8c22.7,48,48.4,106.6,10.4,154.2c-42.3,55.2-122.8,26.9-119.7-43.6
	c0.8-37.9,23.8-70.8,27-108.5c1.9-22.9,1.9-48.5-13.5-67c-13.8-15.3-37.7-17.7-55.6-8c-16.1,9.8-26.1,25.3-37.7,39.4
	c-23.8,23.6-51.6,45.4-84.7,54.4c-81.1,33.3-156-44.3-215.1,6.3c-16.5,16-16.1,37.5-9,57.7c6.8,15.8,21.2,32,15.4,50.3
	c-8.1,20.8-33.5,12.6-49.8,8.1c-20.1-4.8-40.1-10.3-60.2-15c-96.4-24.1-193.4-46.8-290.3-68.9"/>
<circle id="minimapCarCircle" class="st4" cx="1018.2" cy="244.3" r="13.5"/>
</svg>
