<?xml version="1.0" encoding="utf-8"?>
<!-- Generator: Adobe Illustrator 27.5.0, SVG Export Plug-In . SVG Version: 6.00 Build 0)  -->
<svg version="1.1" id="Layer_1" xmlns="http://www.w3.org/2000/svg" xmlns:xlink="http://www.w3.org/1999/xlink" x="0px" y="0px"
	 viewBox="0 0 1774.5 714.1" style="enable-background:new 0 0 1774.5 714.1;" xml:space="preserve">
<style type="text/css">
	.st0{fill:none;stroke:#374151;stroke-width:6.912;stroke-miterlimit:3.456;}
	.st1{fill:none;stroke:#EF4444;stroke-width:1.728;stroke-miterlimit:3.456;}
	.st2{fill:none;stroke:#3B82F6;stroke-width:1.728;stroke-miterlimit:3.456;}
	.st3{fill:none;stroke:#FBBF24;stroke-width:1.728;stroke-miterlimit:3.456;}
	.st4{fill:#FFFFFF;stroke:#000000;stroke-width:10.296;stroke-miterlimit:3.168;}
	.st5{fill:#FED200;}
	.st6{fill:#005CC1;}
</style>
<path vector-effect="non-scaling-stroke" class="st0" d="M1732.2,491.1c-54.4,31.3-107,66.6-160.6,99.7
	c-61.1,39.9-123.7,80.6-193.4,104.1c-78.7,29-164.2,12.1-243.9-3.9c-78.8-12.7-157.3-27.3-236.2-39.5c-31.4-7-64.3-9.7-95.7-16.6
	c-22.4-2.3-47.1-8.8-56.8-31.4c-4.1-10.5-4.3-22.8-4.7-33.9c-2.4-16.5-4.7-33.6-10.7-49.3c-21.8-58.2-56.7-119.4-115.4-146.1
	c-45.3-21.3-101.7-15.7-144,9.9c-29.2,18.2-48.3,48.6-60.8,80c-18.1,46.7-6.2,97.2-6.3,145.7c-1.4,25.1-19.3,46.4-42.2,55.5
	c-15.6,5-32.5,5.1-48.6,7.1c-29.1,1.9-58.6,5.3-87.6,8.4c-39.9,4.9-80.8,7.9-120.4,12.7c-33.1,3.5-75.5,13.2-93.8-22.4
	c-10.5-16.4-7.5-37.8-6.5-55.9c-0.5-21.2,1.5-42.6,1.9-63.4c1.4-48.9,10.7-99,36.5-140.8c15.5-29.6,38.9-63.4,75.8-61.2
	c35.9-0.2,66.7,20.2,98.9,31.6c19.8,8,40.6,15.9,60.9,20.8c18.9,6.9,39.3,12.5,58.8,9.3c63.1-10.8,84.4-85,78.6-140.5
	c-2.4-43.7-1.6-87.9,3.7-130.6C438.8,71.4,556.5,110,604,124.9c62.7,21.4,117.2,62.5,170.5,99.9c54.5,41,104.6,87.9,148.6,139.2
	c52.7,58.4,104.9,122.3,177.8,154.3c22.1,9.8,45.1,18.2,67.9,22.3c18.5,3.7,37.4,4.5,53.9,11.8c15.5,7.1,23.5,24.6,21.7,40.3
	c-1.8,16-9.3,31.9-3.7,47.2c9.4,27.1,41,36.9,66.6,35c31.8-3.2,58.7-21.1,85.3-35.5c29.7-18.2,64.9-34.6,37.3-73.1
	c-18.5-27.4-11.3-55.5,13.8-74c70.3-43.2,139.1-88.4,207-134c38-20.7,64,6,87.6,33c10.3,14.5,26,24.7,30.7,41.7
	C1778.3,462.3,1753.8,478.3,1732.2,491.1z"/>
<path vector-effect="non-scaling-stroke" class="st1" d="M1732.2,491.1c-64.2,37.7-127.3,78.6-190.1,119.1
	c-87.8,56.3-187.1,113.4-295.5,98.8c-43-3.2-85.8-13-128.2-20.7c-70.9-11-141.4-24.2-212.2-35.6c-32.7-5.5-65.9-11.4-98.7-16.2
	c-25.1-4.9-54-8.1-63.1-36.3c-4-12.1-2.1-25.5-4.7-37.8c-1.7-18.3-7.1-36.3-13.4-53.5c-35.6-88-102.6-165.9-206.6-144.2
	c-70.9,13.1-116.4,82.1-120.2,151.1c0.7,23.7,2.7,48.1,3.6,71.9c0.9,18.6,1.6,39-10.9,54.3c-24.8,35.6-74.1,28.3-112,33.1
	c-56.2,6.9-112.7,12-169.1,18"/>
<path vector-effect="non-scaling-stroke" class="st2" d="M111,692.7c-27,1.5-58.6,12.9-82.7-3.6c-31.4-17.2-24.8-58.8-23.1-89
	C4.6,531,10,458.1,49.8,399c35.7-64.4,81.9-56.2,140.7-28.9c34.3,16.2,71,27.1,107.2,38.5c64.2,19.8,111.6-34.6,117.8-94.6
	c2.8-22.5-0.4-45.8-0.5-68.3c-0.7-25.9,0.4-52.7,2.5-78.5c-4.2-63.8,50.7-73,101.6-63.1c67.5,8.9,131.8,35.4,187.6,74.5
	c56.4,34.9,108.9,76.3,156.9,122.1c62.2,59.6,111.8,132.8,181.2,184.8"/>
<path vector-effect="non-scaling-stroke" class="st3" d="M1044.6,485.4c48.9,37.1,108.2,54.7,168.1,63.2
	c18.1,4.6,31.8,20.3,31.8,39.4c0,13.6-6.7,26.9-6.1,40.3c0.8,27,27.8,44.2,52.4,46.5c33.7,3,64-14,92.4-30.1
	c19.8-13.5,48.1-22,56.2-46.7c2.4-33.4-35.4-45.8-13.8-86.4c9.2-15.2,25.6-23.8,40.1-33.3c16.7-9.6,32.7-21.2,49.4-30.7
	c46.1-27.9,89.9-59.9,135.2-89c38.1-20.7,63.8,5.6,87.7,32.9c9.8,14.3,26,24.4,30.7,41.7c9.4,29.2-14.9,45.1-36.8,58.1"/>
<circle id="minimapCarCircle" class="st4" cx="1732.2" cy="491.1" r="13.5"/>
<g>
	<rect x="1423.1" y="115.8" class="st5" width="351.4" height="115.8"/>
	<rect x="1423.1" class="st6" width="351.4" height="115.8"/>
</g>
</svg>
