<?xml version="1.0" encoding="utf-8"?>
<!-- Generator: Adobe Illustrator 27.5.0, SVG Export Plug-In . SVG Version: 6.00 Build 0)  -->
<svg version="1.1" id="Layer_1" xmlns="http://www.w3.org/2000/svg" xmlns:xlink="http://www.w3.org/1999/xlink" x="0px" y="0px"
	 viewBox="0 0 961.4 611.1" style="enable-background:new 0 0 961.4 611.1;" xml:space="preserve">
<style type="text/css">
	.st0{fill:none;stroke:#374151;stroke-width:3.8919;stroke-miterlimit:1.9459;}
	.st1{fill:none;stroke:#EF4444;stroke-width:0.973;stroke-miterlimit:1.9459;}
	.st2{fill:none;stroke:#3B82F6;stroke-width:0.973;stroke-miterlimit:1.9459;}
	.st3{fill:none;stroke:#FBBF24;stroke-width:0.973;stroke-miterlimit:1.9459;}
	.st4{fill:#FFFFFF;stroke:#000000;stroke-width:10.296;stroke-miterlimit:3.168;}
</style>
<path vector-effect="non-scaling-stroke" class="st0" d="M155.5,471.5C124,495.6,91.8,518.8,60.3,543c-7.9,6.3-17,11.8-24.5,18.4
	c-8.3,4.8-15.8,14.8-26.4,11.7c-11.2-5.4-7.5-16.9-3.9-26.6c4.2-9.4,8.3-19.2,12.5-28.7c15.3-32.3,29.3-66.4,52.9-93.7
	c26.8-33.4,60.2-61.5,86.5-95.2c34.9-51.7,33.9-62.5,96.5-85.3c45.9-22.7,79-64.4,122.4-91.1c31.1-19,66.2-29.6,99.1-44.5
	c66.6-30.7,135.3-58,202.8-85.9c10.4-4.7,21.3-8.4,31.2-13.1c9.8-3.7,19.9-8.4,30.2-6.7c12,1,19.8,10.8,29,16.9
	c9.3,5.5,20.6,5.3,30.5,2.6c9.7-4.2,18.6-10.1,28.9-12.4c14.7-2.2,30.3,2.5,40.5,13.1c20.4,19.1,36.8,42.5,55.9,62.7
	c11.3,13.4,24.9,25.4,32.4,41c4.4,10.8,3.5,26.5-7.3,32.7c-20.7,11.9-38.3-9.2-47.2-25.2c-23-41.6-50.4-38.3-87.1-16.3
	c-20.5,10.9-42.6,19.5-64.9,24.8c-22.6,6.9-45.7,12.8-67.8,19.7c-17.2,5.3-35.6,9.4-48,22.7c-31.6,29.8-22.9,84.7,8.3,111.1
	c20.8,19,49.2,24.8,75.5,30.4c27.4,5.7,54.7,12.5,81,20.3c22.2,4,44.4,20.9,40.9,45.3c-0.2,7.4-4,13.9-6.3,20.4
	c-2.8,8.4-3.6,17.7-1.5,26c6.6,30.2,39.8,37.8,64.5,47.3c39.6,14.5,62.2,31.7,36.8,74.4c-11.8,21.2-26.7,43.2-52.1,47.8
	c-53.7,10.3-111.8-33.5-148.1-68.9c-22.3-21.9-37.6-49.2-54.8-74.4c-31.6-50.7-76.1-80.3-132.6-96.4c-44.2-15.2-78.2-8-116.3,16.5
	c-34.9,19.6-70.8,37.9-109.7,46.7c-17.3,3.9-34.4,7.7-51.4,10.7c-9.2,2.4-23.2,4.1-26.9-6.8c-2.1-4.5-0.9-9.7-2.9-13.9
	c-14.4-17.1-34.5,12.2-45.3,20.9C181.4,452.4,168.6,462.3,155.5,471.5z"/>
<path vector-effect="non-scaling-stroke" class="st1" d="M155.5,471.5c-44,32.9-87.8,66.5-132.1,98.7c-7.1,6.2-19.4,4-21.4-5.7
	c-0.9-9.8,4.4-19.2,8.1-27.9c12.1-30.1,26.9-59.6,42.6-88c26.7-40.4,64.1-71.8,95.3-108.2c21-21.7,30.2-52.9,54.6-71.4
	c20.3-17.1,48.1-20.4,69.5-35.5c35.6-23.5,65-55.6,100.9-78.8c31.5-20.6,68.3-31.2,102.4-46.7c64.1-29.3,129.5-56,194.8-82.4"/>
<path vector-effect="non-scaling-stroke" class="st2" d="M670.4,25.5c12.7-6,26.5-10.7,39.3-16.6c13.8-6,30.3-10.9,43.8-1.8
	c9,6.8,17.9,16.5,30,16.3c25,2.3,40.1-24.3,68.4-11.4c14.6,4.5,24.1,17.3,33.8,28.2c8.5,10.7,18.1,20.6,26.7,31.2
	c13.2,17.1,46.7,44.5,46.8,65.3c2.8,15.3-11.8,29.1-26.9,25c-11.5-2.8-20.2-11.9-26-21.9c-12.2-23.1-32.6-46.5-61.3-36.4
	c-25.9,9.8-49.3,26.5-76.5,33.5c-25.9,8-52.2,15.1-78.3,22.4c-16.2,5.8-34.1,8.7-48.3,18.8c-42.3,30.1-31.7,97.5,9.3,124.2
	c22,15.2,48.9,20,74.6,25.1c29,6.9,58.3,13.7,86.5,22.8c14.2,5.4,27.6,17.9,27.9,34c1.7,26.2-19.6,35.5-2.3,67
	c13.4,21.5,40.6,26.4,62.6,35.3c40.4,15.6,57.7,33.9,32,75.2"/>
<path vector-effect="non-scaling-stroke" class="st3" d="M930.8,564.1c-42.2,90-148.7,24.3-197.1-25.7c-22.2-21.7-37.5-49-54.8-74.4
	c-33.3-53.7-80.4-82.7-140.6-98.8c-46.9-14.3-76.1-0.6-115.8,22.8c-32.2,18.3-65.9,34.4-102.2,42.8c-17,3.9-34.3,7.7-51.4,10.7
	c-9,2.3-23.1,4.3-26.9-6.8c-2-4.4-1-9.6-2.9-13.9c-14.6-17.1-34.2,12-45.3,20.9c-12.1,10.5-25.1,20.5-38.3,29.7"/>
<circle id="minimapCarCircle" class="st4" cx="155.5" cy="470.6" r="13.5"/>
</svg>
