<?xml version="1.0" encoding="utf-8"?>
<!-- Generator: Adobe Illustrator 27.5.0, SVG Export Plug-In . SVG Version: 6.00 Build 0)  -->
<svg version="1.1" id="Layer_1" xmlns="http://www.w3.org/2000/svg" xmlns:xlink="http://www.w3.org/1999/xlink" x="0px" y="0px"
	 viewBox="0 0 1012.1 331.6" style="enable-background:new 0 0 1012.1 331.6;" xml:space="preserve">
<style type="text/css">
	.st0{fill:none;stroke:#374151;stroke-width:4.2146;stroke-miterlimit:2.1073;}
	.st1{fill:none;stroke:#EF4444;stroke-width:1.0537;stroke-miterlimit:2.1073;}
	.st2{fill:none;stroke:#3B82F6;stroke-width:1.0537;stroke-miterlimit:2.1073;}
	.st3{fill:none;stroke:#FBBF24;stroke-width:1.0537;stroke-miterlimit:2.1073;}
	.st4{fill:#FFFFFF;stroke:#000000;stroke-width:10.296;stroke-miterlimit:3.168;}
</style>
<path vector-effect="non-scaling-stroke" class="st0" d="M181.3,301.9c-28.7,4.5-57.8,3.4-86.4-1.1c-15.9-0.2-33.8-8.5-47.9,2.1
	c-12.2,7.2-13.5,31.1-31.6,25.8c-28.8-16.7-3.1-60.7,5.8-83.2c13.1-24.6,31.7-45.6,50.1-66.4c19.5-21.5,37.3-8.1,60.6-16.3
	c40.5-18.3,55.6-73.1,102.7-80.6c18.9-3.7,38.6-1.2,57.4-1.1c12,0.6,26.9,3.8,36.3-4.7c15.5-12.4,2.9-32.5,18.4-49
	c13.7-18.2,38.1-19.6,58.5-21.6c26-2.8,52.2-3.7,78-3.7c62.9-0.4,125.6,9,184.9,28.5c23.9,11.8,16.2,37.1,46.4,51.1
	c26.9,10.8,56.1,15.2,84.3,20c31.7,6.1,63.9,12.5,95.9,10.5c25-1.2,49.4-6.9,73.3-12.1c11.4-1.6,22.2-7.2,33.2-5.2
	c13.9,4.1,10.1,19.2-2.7,22.1c-19.1,5.4-39.5,4-57.9,10.5c-77.2,28-151.8,64-231.8,81.1c-68.9,15.8-137.6,30.6-206,44.8
	c-18.9,3.9-37.2,7.5-55.3,11.6c-11.1,1.9-22.5,5.9-33.2,3.1c-10.4-3.5-19.1-11.4-30-11.6c-22.2-2-42.9,9.4-63.7,13.2
	C274.1,282.7,228.1,292.7,181.3,301.9z"/>
<path vector-effect="non-scaling-stroke" class="st1" d="M181.3,301.9c-27.6,4.4-55.7,3.3-83.2-0.5c-15.5-0.4-32.9-8.2-47.4-0.5
	c-14.8,4.8-14.5,29.3-31.6,28.5c-34.7-7.9-6.3-66.7,3.7-86.4c13.7-24.7,32.4-46.8,52.2-66.9c8.8-9.7,21.9-10.8,34.2-10
	c61.8,2.6,69.5-86,140.1-85.3"/>
<path vector-effect="non-scaling-stroke" class="st2" d="M249.3,80.7c17.1-1.7,34.5,1.1,51.6,1.1c22.9,3.7,38.5-7.7,36.4-31.6
	c7.4-50.9,70.6-42.9,109.1-47.4C517.5-0.3,588.9,6.3,657.1,27c33.1,6,25.8,35.9,50.6,50.6c9.9,7.5,22.7,9.5,34.2,13.2
	c17.6,3.7,35.4,7.9,53.2,10.5c35.8,6.7,72,14,108.5,10.5"/>
<path vector-effect="non-scaling-stroke" class="st3" d="M903.6,111.7c24.2-2.3,47.9-8.1,71.6-13.2c8.4-1.7,17.3-5.5,25.8-3.7
	c9.1,1.7,12.3,13.4,4.2,19c-13.8,7.6-30.3,6.4-45.3,9c-18.7,3.3-36.1,10.8-53.7,17.4c-41.8,17.1-83.9,33.9-126.4,49
	c-40.3,12.3-81.5,22.7-122.8,31.1c-58.8,13.1-118,25.7-177,37.9c-12.8,2.2-25.7,5.6-38.5,7.9c-8.9,2.1-18.3,4.3-27.4,2.1
	c-8.6-2.2-15.5-9.6-24.8-10.5c-11.5-3.8-23.4,0.2-34.8,2.6c-13,4.2-26.7,7.5-40,11.1c-43.8,12.1-88.6,21.8-133.3,30.6"/>
<circle id="minimapCarCircle" class="st4" cx="181.2" cy="302" r="13.5"/>
</svg>
