<?xml version="1.0" encoding="utf-8"?>
<!-- Generator: Adobe Illustrator 27.5.0, SVG Export Plug-In . SVG Version: 6.00 Build 0)  -->
<svg version="1.1" id="Layer_1" xmlns="http://www.w3.org/2000/svg" xmlns:xlink="http://www.w3.org/1999/xlink" x="0px" y="0px"
	 viewBox="0 0 758.7 337" style="enable-background:new 0 0 758.7 337;" xml:space="preserve">
<style type="text/css">
	.st0{fill:none;stroke:#374151;stroke-width:5.0688;stroke-miterlimit:2.5344;}
	.st1{fill:none;stroke:#EF4444;stroke-width:1.2672;stroke-miterlimit:2.5344;}
	.st2{fill:none;stroke:#3B82F6;stroke-width:1.2672;stroke-miterlimit:2.5344;}
	.st3{fill:none;stroke:#FBBF24;stroke-width:1.2672;stroke-miterlimit:2.5344;}
	.st4{fill:#FFFFFF;stroke:#000000;stroke-width:10.296;stroke-miterlimit:3.168;}
</style>
<polygon vector-effect="non-scaling-stroke" class="st0" points="458.9,318.3 450.5,317.8 442.5,318 434.5,318.3 426,317.7 418,318 
	409.4,318.1 401.6,317.7 393.6,318 385.1,317.4 377.1,317.7 368.5,317.8 360.1,317.2 352.1,317.5 343.5,317.6 335,317 327,317.3 
	318.4,317.4 310,316.8 301.3,316.9 293.3,317.2 284.9,316.6 276.3,316.7 267.7,316.8 259.2,316.2 251.2,316.5 242.6,316.6 
	234.1,316 225.5,316.1 216.9,316.2 208.3,316.2 199.9,315.7 191.2,315.8 183.2,316 174.6,316.1 166,316.2 157.4,316.3 148.9,315.7 
	140.3,315.8 131.7,315.9 123.7,316.1 116.5,316 109.7,316.6 103.1,316.6 97.2,316.2 91.8,316.5 86.6,316.3 82,316.3 77.4,316.2 
	73.4,316.3 69.4,316.5 65.6,316 61.6,316.1 58.3,315.8 55.1,315.5 52.1,314.6 49,313.7 46,312.8 43.2,311.3 40.3,309.8 38.1,308.4 
	35.4,306.3 33.3,304.4 31.2,302.4 29.4,299.9 27.5,297.3 25.6,294.8 23.7,292.3 22.6,289.3 20.9,286.1 19.2,283 18.1,280 
	16.6,276.2 15.5,273.3 14,269.5 13,265.9 11.5,262.2 10.6,258.6 9.1,254.8 8.4,250.6 6.8,246.9 6.1,242.7 4.6,238.9 3.8,234.8 
	2.9,231.2 2.8,227.2 2.7,223.2 2.5,219.2 3,215.3 4.1,211.7 4.6,207.9 5.9,203.6 7.5,200.2 8.8,195.9 10.5,192.4 12.4,188.4 
	14.3,184.3 16.1,180.2 18.2,175.6 20.1,171.5 22.5,167.6 24.4,163.5 26.9,159.6 29.2,156.4 30.9,152.9 33,150.2 34.5,147.4 
	36.5,145.3 39.7,141 42.8,137.3 47,134.6 50.9,132.4 55.7,131.9 59.5,132.3 63.6,134.2 66.1,136.9 68.4,140.3 69.9,144 71.3,148.4 
	72.4,153.4 73,158.2 73.5,161 73.9,163.8 74.3,167.2 75.2,170.7 75.7,173.5 76.6,177.1 77.5,180.7 78.4,184.3 80.1,187.4 81,191 
	83.3,194.3 85,197.5 86.9,200 89.4,202.8 91.9,205.5 94.6,207.6 97.1,210.3 99.9,211.8 103.2,214.1 106.1,215.7 109.5,217.4 
	113.2,218.4 116.6,220.1 120.5,220.6 124.7,221.9 128.5,222.4 132.5,222.2 137,222.9 141,222.8 145.6,222.8 150.2,222.9 
	155.4,223.1 160.2,222.6 165.4,222.8 170.8,222.4 176.1,222.7 182.1,222.5 187.9,222.9 193.9,222.7 199.9,222.5 205.9,222.3 
	211.7,222.7 218.4,222.7 224.4,222.5 231,222.5 237.6,222.5 244.8,222.7 251.4,222.7 258,222.7 264.7,222.6 272.1,222.2 
	279.3,222.4 279.3,222.4 286.5,222.5 293.7,222.7 300.9,222.9 308.4,222.5 315.6,222.6 323.4,223 330.8,222.5 338.6,222.9 
	345.9,223.1 353.3,222.6 361.1,223 368.9,223.3 376.1,223.5 382.8,223.5 389.2,224.1 395.2,223.9 400.4,224.1 405,224.2 
	409.5,224.9 414.1,224.9 418.1,224.8 422.1,224.7 425.9,225.1 429.3,224.8 432.7,224.5 436.1,224.2 441.1,223 445.4,221.7 
	449,218.8 451.4,214.9 453.1,211.4 453.2,206.8 452.3,203.2 450,199.9 446.7,197.6 443.4,195.3 438.7,193.2 434,191.2 430,189.3 
	426.9,188.4 423.9,187.5 421.1,186 418,185.1 414.4,184 410.9,182.3 407.3,181.2 403.8,179.5 399.6,178.3 395.5,176.4 390.8,174.3 
	386.6,173.1 381.9,171 377.2,168.9 372.4,167.5 367.1,165.3 362.4,163.2 356.9,161.6 351.5,159.9 345.4,158.1 339.9,156.5 
	334.3,155.5 329.1,155.2 323.4,154.2 317.6,153.8 312.2,154.2 306.8,154.5 300.8,154.7 294.8,154.9 289.2,155.9 283,156.7 
	276.8,157.5 271.2,158.5 264.9,159.9 258.7,160.7 252.3,162.1 245.9,163.5 239.4,165.5 232.4,166.7 226,168.1 219.8,168.9 
	214.4,169.3 208.4,169.5 203,169.9 198,169 193,168.2 188.7,166.9 183.9,165.5 179.6,164.2 175.5,162.3 171,159.7 167.2,157.2 
	164.1,154.3 160.3,151.2 156.8,147.5 153.9,144 151.2,139.9 148.2,136.3 145.5,132.2 143.4,128.3 141.1,124.9 139.4,121.8 
	138.3,118.8 136.6,115.7 134.2,110.3 133.2,104.7 132.7,99.9 133,96.7 134.8,92.7 136.2,90.4 139.3,86.7 141.2,84.6 143.6,83.4 
	148.1,81.4 152.5,80.1 157.9,79.7 160.7,79.2 163.9,79.5 166.5,79.6 169.7,79.9 172.9,80.2 176,81.1 179.2,81.4 182.8,82.5 
	186,82.8 189.7,83.9 192.9,84.2 196.5,85.3 200.4,85.8 204,86.9 207.8,87.3 212.1,88.6 215.9,89.1 220.3,89.7 224.2,90.2 
	228.6,90.9 233,91.5 237.5,92.2 241.9,92.9 246.3,93.5 250.7,94.2 255,95.5 260,96.3 264.5,97 269.3,98.4 273.8,99.1 278.8,99.9 
	283.6,101.4 288.7,102.2 293.5,103.7 298.6,104.5 303.6,105.3 309.3,106.4 314.5,106.6 319.7,106.8 324.9,107.1 330.1,107.3 
	335.5,106.9 341.1,105.9 346.7,105 351.7,103.8 356.7,102.6 361.8,100.9 367,99.1 372.3,96.7 377,94.2 381.8,91.6 386.1,88.3 
	390.4,84.9 394.7,81.6 398.6,77.5 402.3,73.9 406.1,69.8 410,65.7 413.9,61.5 417.8,57.4 421,53.1 424.9,49 428.8,44.8 432.1,40.5 
	435.9,36.4 440,31.6 443.3,27.3 447.8,23.4 451.4,19.8 455.8,16.5 459.9,13.8 464,11 468.5,9.1 473.1,7.1 477.5,5.8 481.8,4.4 
	486,3.7 490.2,3 493.6,2.7 497.6,2.5 501.4,3 505.3,3.5 508.9,4.6 511.8,6.1 515.2,7.8 518.1,9.3 520.7,11.4 522.6,14 524.5,16.5 
	526.4,19.1 527.5,22 528.6,25 529.7,28 530,31.4 529.9,34 530.2,37.4 529.9,40.6 529.6,43.8 528.5,47.5 528.2,50.7 527.7,54.5 
	527.9,58.5 527.4,62.3 526.9,66.2 526.9,66.2 526.4,70 526.4,74.6 526.5,78.6 526.4,83.2 526.4,87.8 526.3,92.4 526.9,97.2 
	527.4,102 528,106.8 528.5,111.6 529.7,116.6 530.9,121.6 532,126.5 533.8,131.7 535.7,136.2 538.3,141 541,145.1 543.8,149.2 
	547.1,153.5 550.6,157.2 554.2,160.9 558.5,164.2 562.8,167.5 566.7,169.9 571,173.2 576.3,175.4 580.8,178.1 585.3,180.8 
	589.9,182.8 595,185.7 599.7,187.7 604.4,189.8 608.9,192.4 613.1,193.7 617.2,195.6 620.1,197.1 623.7,198.2 626.7,199.1 
	629.8,200 632.8,200.9 635.9,201.8 639.9,201.7 644.7,201.1 649,199.8 652.5,196.9 655.4,193.8 657.5,189.1 658.4,186.1 
	659.1,183.6 659,179.6 658.5,176.8 657.5,171.3 656.4,168.3 655.2,165.9 654.1,162.9 652.4,159.8 651.1,157.4 649.4,154.3 
	646.9,151.5 645.2,148.4 642.7,145.7 640.2,142.9 637.1,140 634.8,136.7 631.7,133.8 628.6,130.9 625.7,127.4 623.4,124 
	620.4,120.5 618.1,117.2 615.8,113.8 613.5,110.5 612,106.7 610.3,103.6 609.2,100.6 608.7,97.8 608.4,94.4 608.1,91 607.8,87.6 
	608.1,84.4 608.8,82 609.7,79 610.6,75.9 611.9,73.7 613.9,71.6 616,68.9 617.9,66.9 620.5,65 622.8,63.7 626,62 629,60.9 632.5,60 
	635.5,58.9 638.9,58.6 642.3,58.3 646.3,58.1 650.3,58 654.1,58.5 657.8,59.6 661.4,60.7 665.1,61.8 669.1,63.6 672.4,65.9 
	675.7,68.2 679.6,70.7 682.7,73.6 686.2,77.3 689.3,80.2 692.2,83.7 695.6,88.1 698.3,92.2 701.7,96.5 704.4,100.6 707.7,104.9 
	710.9,109.8 714.3,114.1 717.4,119 721.2,124.1 724.3,129 727.9,134.7 731.1,139.6 734.7,145.3 737.9,150.3 740.8,155.8 
	743.4,160.5 745.8,165.8 748.1,171.2 749.9,176.3 751.5,182.1 753.3,187.3 754.2,192.8 755.4,197.8 755.8,203.2 756.1,208.6 
	755.9,213.8 755.7,219 754.8,224.1 754.2,228.5 753.3,233.6 752.5,238.6 750.9,244.1 749.4,248.9 747.4,253.6 745.1,258.9 
	743.1,263.6 740.4,268 737.6,273.1 734.3,277.5 731,281.8 727,286.5 723.1,290.6 718.6,294.6 713.5,298.4 708.4,302.1 703.5,305.3 
	698,308.3 691.9,311.1 685.7,313.9 679.8,316.1 673.2,318.1 666.3,319.3 660.1,320.1 652.5,321.2 645.9,321.2 639.2,321.2 632,321 
	624.8,320.8 617.6,320.7 610.4,320.5 603.1,320.3 595.9,320.2 587.9,320.4 580.7,320.2 573.5,320.1 566.2,319.9 558.4,319.5 
	551,320 543.2,319.6 536,319.5 528.1,319.1 520.1,319.4 512.9,319.2 505.1,318.8 497.1,319.1 489.8,318.9 482,318.6 474,318.8 
	466.2,318.5 462.2,318.6 "/>
<polyline vector-effect="non-scaling-stroke" class="st1" points="458.9,318.3 450.5,317.8 442.5,318 434.5,318.3 426,317.7 
	418,318 409.4,318.1 401.6,317.7 393.6,318 385.1,317.4 377.1,317.7 368.5,317.8 360.1,317.2 352.1,317.5 343.5,317.6 335,317 
	327,317.3 318.4,317.4 310,316.8 301.3,316.9 293.3,317.2 284.9,316.6 276.3,316.7 267.7,316.8 259.2,316.2 251.2,316.5 
	242.6,316.6 234.1,316 225.5,316.1 216.9,316.2 208.3,316.2 199.9,315.7 191.2,315.8 183.2,316 174.6,316.1 166,316.2 157.4,316.3 
	148.9,315.7 140.3,315.8 131.7,315.9 123.7,316.1 116.5,316 109.7,316.6 103.1,316.6 97.2,316.2 91.8,316.5 86.6,316.3 82,316.3 
	77.4,316.2 73.4,316.3 69.4,316.5 65.6,316 61.6,316.1 58.3,315.8 55.1,315.5 52.1,314.6 49,313.7 46,312.8 43.2,311.3 40.3,309.8 
	38.1,308.4 35.4,306.3 33.3,304.4 31.2,302.4 29.4,299.9 27.5,297.3 25.6,294.8 23.7,292.3 22.6,289.3 20.9,286.1 19.2,283 
	18.1,280 16.6,276.2 15.5,273.3 14,269.5 13,265.9 11.5,262.2 10.6,258.6 9.1,254.8 8.4,250.6 6.8,246.9 6.1,242.7 4.6,238.9 
	3.8,234.8 2.9,231.2 2.8,227.2 2.7,223.2 2.5,219.2 3,215.3 4.1,211.7 4.6,207.9 5.9,203.6 7.5,200.2 8.8,195.9 10.5,192.4 
	12.4,188.4 14.3,184.3 16.1,180.2 18.2,175.6 20.1,171.5 22.5,167.6 24.4,163.5 26.9,159.6 29.2,156.4 30.9,152.9 33,150.2 
	34.5,147.4 36.5,145.3 39.7,141 42.8,137.3 47,134.6 50.9,132.4 55.7,131.9 59.5,132.3 63.6,134.2 66.1,136.9 68.4,140.3 69.9,144 
	71.3,148.4 72.4,153.4 73,158.2 73.5,161 73.9,163.8 74.3,167.2 75.2,170.7 75.7,173.5 76.6,177.1 77.5,180.7 78.4,184.3 
	80.1,187.4 81,191 83.3,194.3 85,197.5 86.9,200 89.4,202.8 91.9,205.5 94.6,207.6 97.1,210.3 99.9,211.8 103.2,214.1 106.1,215.7 
	109.5,217.4 113.2,218.4 116.6,220.1 120.5,220.6 124.7,221.9 128.5,222.4 132.5,222.2 137,222.9 141,222.8 145.6,222.8 
	150.2,222.9 155.4,223.1 160.2,222.6 165.4,222.8 170.8,222.4 176.1,222.7 182.1,222.5 187.9,222.9 193.9,222.7 199.9,222.5 
	205.9,222.3 211.7,222.7 218.4,222.7 224.4,222.5 231,222.5 237.6,222.5 244.8,222.7 251.4,222.7 258,222.7 264.7,222.6 
	272.1,222.2 279.3,222.4 "/>
<polyline vector-effect="non-scaling-stroke" class="st2" points="279.3,222.4 286.5,222.5 293.7,222.7 300.9,222.9 308.4,222.5 
	315.6,222.6 323.4,223 330.8,222.5 338.6,222.9 345.9,223.1 353.3,222.6 361.1,223 368.9,223.3 376.1,223.5 382.8,223.5 
	389.2,224.1 395.2,223.9 400.4,224.1 405,224.2 409.5,224.9 414.1,224.9 418.1,224.8 422.1,224.7 425.9,225.1 429.3,224.8 
	432.7,224.5 436.1,224.2 441.1,223 445.4,221.7 449,218.8 451.4,214.9 453.1,211.4 453.2,206.8 452.3,203.2 450,199.9 446.7,197.6 
	443.4,195.3 438.7,193.2 434,191.2 430,189.3 426.9,188.4 423.9,187.5 421.1,186 418,185.1 414.4,184 410.9,182.3 407.3,181.2 
	403.8,179.5 399.6,178.3 395.5,176.4 390.8,174.3 386.6,173.1 381.9,171 377.2,168.9 372.4,167.5 367.1,165.3 362.4,163.2 
	356.9,161.6 351.5,159.9 345.4,158.1 339.9,156.5 334.3,155.5 329.1,155.2 323.4,154.2 317.6,153.8 312.2,154.2 306.8,154.5 
	300.8,154.7 294.8,154.9 289.2,155.9 283,156.7 276.8,157.5 271.2,158.5 264.9,159.9 258.7,160.7 252.3,162.1 245.9,163.5 
	239.4,165.5 232.4,166.7 226,168.1 219.8,168.9 214.4,169.3 208.4,169.5 203,169.9 198,169 193,168.2 188.7,166.9 183.9,165.5 
	179.6,164.2 175.5,162.3 171,159.7 167.2,157.2 164.1,154.3 160.3,151.2 156.8,147.5 153.9,144 151.2,139.9 148.2,136.3 
	145.5,132.2 143.4,128.3 141.1,124.9 139.4,121.8 138.3,118.8 136.6,115.7 134.2,110.3 133.2,104.7 132.7,99.9 133,96.7 134.8,92.7 
	136.2,90.4 139.3,86.7 141.2,84.6 143.6,83.4 148.1,81.4 152.5,80.1 157.9,79.7 160.7,79.2 163.9,79.5 166.5,79.6 169.7,79.9 
	172.9,80.2 176,81.1 179.2,81.4 182.8,82.5 186,82.8 189.7,83.9 192.9,84.2 196.5,85.3 200.4,85.8 204,86.9 207.8,87.3 212.1,88.6 
	215.9,89.1 220.3,89.7 224.2,90.2 228.6,90.9 233,91.5 237.5,92.2 241.9,92.9 246.3,93.5 250.7,94.2 255,95.5 260,96.3 264.5,97 
	269.3,98.4 273.8,99.1 278.8,99.9 283.6,101.4 288.7,102.2 293.5,103.7 298.6,104.5 303.6,105.3 309.3,106.4 314.5,106.6 
	319.7,106.8 324.9,107.1 330.1,107.3 335.5,106.9 341.1,105.9 346.7,105 351.7,103.8 356.7,102.6 361.8,100.9 367,99.1 372.3,96.7 
	377,94.2 381.8,91.6 386.1,88.3 390.4,84.9 394.7,81.6 398.6,77.5 402.3,73.9 406.1,69.8 410,65.7 413.9,61.5 417.8,57.4 421,53.1 
	424.9,49 428.8,44.8 432.1,40.5 435.9,36.4 440,31.6 443.3,27.3 447.8,23.4 451.4,19.8 455.8,16.5 459.9,13.8 464,11 468.5,9.1 
	473.1,7.1 477.5,5.8 481.8,4.4 486,3.7 490.2,3 493.6,2.7 497.6,2.5 501.4,3 505.3,3.5 508.9,4.6 511.8,6.1 515.2,7.8 518.1,9.3 
	520.7,11.4 522.6,14 524.5,16.5 526.4,19.1 527.5,22 528.6,25 529.7,28 530,31.4 529.9,34 530.2,37.4 529.9,40.6 529.6,43.8 
	528.5,47.5 528.2,50.7 527.7,54.5 527.9,58.5 527.4,62.3 526.9,66.2 "/>
<polyline vector-effect="non-scaling-stroke" class="st3" points="526.9,66.2 526.4,70 526.4,74.6 526.5,78.6 526.4,83.2 
	526.4,87.8 526.3,92.4 526.9,97.2 527.4,102 528,106.8 528.5,111.6 529.7,116.6 530.9,121.6 532,126.5 533.8,131.7 535.7,136.2 
	538.3,141 541,145.1 543.8,149.2 547.1,153.5 550.6,157.2 554.2,160.9 558.5,164.2 562.8,167.5 566.7,169.9 571,173.2 576.3,175.4 
	580.8,178.1 585.3,180.8 589.9,182.8 595,185.7 599.7,187.7 604.4,189.8 608.9,192.4 613.1,193.7 617.2,195.6 620.1,197.1 
	623.7,198.2 626.7,199.1 629.8,200 632.8,200.9 635.9,201.8 639.9,201.7 644.7,201.1 649,199.8 652.5,196.9 655.4,193.8 
	657.5,189.1 658.4,186.1 659.1,183.6 659,179.6 658.5,176.8 657.5,171.3 656.4,168.3 655.2,165.9 654.1,162.9 652.4,159.8 
	651.1,157.4 649.4,154.3 646.9,151.5 645.2,148.4 642.7,145.7 640.2,142.9 637.1,140 634.8,136.7 631.7,133.8 628.6,130.9 
	625.7,127.4 623.4,124 620.4,120.5 618.1,117.2 615.8,113.8 613.5,110.5 612,106.7 610.3,103.6 609.2,100.6 608.7,97.8 608.4,94.4 
	608.1,91 607.8,87.6 608.1,84.4 608.8,82 609.7,79 610.6,75.9 611.9,73.7 613.9,71.6 616,68.9 617.9,66.9 620.5,65 622.8,63.7 
	626,62 629,60.9 632.5,60 635.5,58.9 638.9,58.6 642.3,58.3 646.3,58.1 650.3,58 654.1,58.5 657.8,59.6 661.4,60.7 665.1,61.8 
	669.1,63.6 672.4,65.9 675.7,68.2 679.6,70.7 682.7,73.6 686.2,77.3 689.3,80.2 692.2,83.7 695.6,88.1 698.3,92.2 701.7,96.5 
	704.4,100.6 707.7,104.9 710.9,109.8 714.3,114.1 717.4,119 721.2,124.1 724.3,129 727.9,134.7 731.1,139.6 734.7,145.3 
	737.9,150.3 740.8,155.8 743.4,160.5 745.8,165.8 748.1,171.2 749.9,176.3 751.5,182.1 753.3,187.3 754.2,192.8 755.4,197.8 
	755.8,203.2 756.1,208.6 755.9,213.8 755.7,219 754.8,224.1 754.2,228.5 753.3,233.6 752.5,238.6 750.9,244.1 749.4,248.9 
	747.4,253.6 745.1,258.9 743.1,263.6 740.4,268 737.6,273.1 734.3,277.5 731,281.8 727,286.5 723.1,290.6 718.6,294.6 713.5,298.4 
	708.4,302.1 703.5,305.3 698,308.3 691.9,311.1 685.7,313.9 679.8,316.1 673.2,318.1 666.3,319.3 660.1,320.1 652.5,321.2 
	645.9,321.2 639.2,321.2 632,321 624.8,320.8 617.6,320.7 610.4,320.5 603.1,320.3 595.9,320.2 587.9,320.4 580.7,320.2 
	573.5,320.1 566.2,319.9 558.4,319.5 551,320 543.2,319.6 536,319.5 528.1,319.1 520.1,319.4 512.9,319.2 505.1,318.8 497.1,319.1 
	489.8,318.9 482,318.6 474,318.8 466.2,318.5 462.2,318.6 458.9,318.3 "/>
<circle id="minimapCarCircle" class="st4" cx="458.9" cy="318.3" r="13.5"/>
</svg>
