<?xml version="1.0" encoding="utf-8"?>
<!-- Generator: Adobe Illustrator 27.5.0, SVG Export Plug-In . SVG Version: 6.00 Build 0)  -->
<svg version="1.1" id="Layer_1" xmlns="http://www.w3.org/2000/svg" xmlns:xlink="http://www.w3.org/1999/xlink" x="0px" y="0px"
	 viewBox="0 0 1509 600" style="enable-background:new 0 0 1509 600;" xml:space="preserve">
<style type="text/css">
	.st0{fill:none;stroke:#374151;stroke-width:8;}
	.st1{fill:none;stroke:#EF4444;stroke-width:2;}
	.st2{fill:none;stroke:#3B82F6;stroke-width:2;}
	.st3{fill:none;stroke:#FBBF24;stroke-width:2;}
	.st4{fill:#FFFFFF;stroke:#000000;stroke-width:13;}
</style>
<polygon vector-effect="non-scaling-stroke" class="st0" points="575,67 580,69 585,71 590,74 594,76 599,79 604,82 608,84 613,87 
	618,90 623,93 627,95 632,98 637,101 642,104 647,107 651,110 656,113 661,116 666,119 671,122 676,125 681,128 686,132 692,135 
	697,138 702,142 708,145 713,148 719,152 724,155 730,159 735,162 741,165 747,169 752,172 758,176 764,179 770,183 776,186 
	782,190 787,193 793,197 799,201 805,204 811,208 817,211 823,215 830,219 836,223 842,226 848,229 854,233 860,237 866,240 
	872,244 878,247 883,250 888,253 892,256 896,259 900,261 904,263 907,265 911,267 914,269 917,271 919,273 922,275 925,276 
	927,278 929,280 931,281 934,283 936,284 938,286 939,288 941,289 943,291 944,293 946,295 947,297 948,299 949,301 949,303 
	950,305 950,307 950,309 950,311 950,314 949,316 949,318 948,320 947,322 944,326 943,328 941,329 940,331 938,332 936,334 
	934,336 932,337 930,339 928,340 926,342 924,343 922,345 919,347 917,348 915,350 913,352 911,354 909,356 906,357 904,359 
	903,361 901,363 899,366 897,368 896,370 895,373 893,375 892,378 891,380 890,383 889,386 889,389 888,391 888,394 888,397 
	887,400 887,403 888,406 888,409 888,412 888,415 889,418 889,421 889,424 889,427 889,430 889,433 889,436 889,440 888,443 
	888,446 887,449 887,452 886,455 885,458 884,461 882,464 881,467 880,470 878,473 876,476 875,479 873,481 871,484 868,487 
	866,489 864,492 862,494 859,496 856,499 854,501 851,503 848,505 845,507 842,508 839,510 836,512 833,513 830,515 827,516 
	824,518 820,519 817,521 814,522 810,523 807,524 804,525 800,526 796,527 793,528 789,529 786,530 782,531 779,531 775,532 
	771,533 768,533 764,534 760,534 756,534 752,535 748,535 744,535 740,535 736,535 732,535 728,535 724,535 720,534 716,534 
	712,533 708,533 704,532 700,532 696,531 692,530 688,529 684,528 680,527 676,526 672,524 667,523 664,521 660,520 656,518 
	652,516 648,514 644,513 640,511 636,509 632,507 628,505 625,503 621,501 617,498 613,496 609,494 605,491 601,489 597,487 
	594,484 590,482 586,480 582,477 578,475 574,473 570,470 566,468 562,466 558,463 554,461 550,458 546,456 542,453 538,451 
	534,448 529,446 525,443 521,441 517,438 513,436 509,433 505,431 500,428 496,426 492,423 488,421 484,418 480,416 476,414 
	472,411 469,409 465,407 462,405 459,404 456,402 453,400 451,399 448,397 445,395 442,394 440,392 437,391 434,390 432,388 
	429,387 427,386 424,385 421,384 418,382 416,381 413,381 410,380 407,379 404,379 401,378 398,378 395,377 392,377 389,377 
	386,377 383,377 380,377 376,377 373,378 370,378 367,379 363,379 360,380 357,381 354,382 350,383 347,385 344,386 341,387 
	338,389 335,391 332,393 329,395 326,397 323,399 320,401 317,403 314,405 311,407 308,409 305,411 301,413 298,415 295,416 
	292,418 288,419 285,420 281,421 278,422 274,423 270,424 267,424 263,425 259,425 255,425 252,425 248,424 244,424 241,423 
	237,422 233,421 230,420 225,418 222,417 219,415 215,413 212,411 209,409 206,406 203,404 200,401 197,399 194,396 191,393 
	189,391 186,388 183,385 180,383 177,380 173,377 170,375 167,373 164,371 160,368 156,367 153,365 149,363 145,362 141,361 
	138,360 134,359 130,358 126,358 122,358 118,357 114,358 110,358 106,358 102,359 98,359 94,360 90,361 86,362 82,363 78,364 
	74,366 70,367 66,369 63,370 59,372 55,374 52,376 48,378 45,380 42,382 38,385 35,387 32,390 29,393 27,396 24,399 22,402 20,405 
	17,409 15,412 14,415 12,419 10,422 9,426 8,430 7,433 6,437 5,441 5,445 4,448 4,452 4,456 4,459 5,463 5,466 6,470 7,473 8,477 
	10,480 11,483 13,486 15,488 17,491 20,493 22,495 25,497 28,499 31,500 33,501 36,502 39,503 42,504 45,504 48,504 51,504 54,504 
	57,503 60,503 63,503 66,502 69,502 72,502 75,501 79,501 82,501 85,501 89,500 92,500 95,500 99,500 102,500 106,500 109,501 
	113,501 117,501 120,502 124,502 128,503 132,503 136,504 140,505 143,505 147,506 151,507 156,508 160,509 160,509 164,510 
	168,511 172,512 176,512 181,513 185,514 189,515 194,516 198,517 202,518 207,519 211,520 216,521 220,522 225,522 230,523 
	234,524 239,525 244,525 248,526 253,526 258,527 263,527 268,527 273,527 278,527 283,528 288,528 293,528 298,527 303,527 
	308,527 313,527 318,527 323,527 329,526 334,526 339,526 344,526 349,526 354,525 359,525 365,525 370,525 375,525 381,525 
	386,524 391,524 397,524 402,524 408,524 412,523 418,523 423,523 429,523 434,523 440,522 445,522 451,522 456,522 462,522 
	467,522 473,522 479,521 484,521 490,521 495,521 501,521 507,521 512,521 518,521 524,522 529,522 535,523 541,523 546,524 
	552,525 557,526 563,528 568,529 574,531 579,532 584,534 590,536 595,538 600,540 606,542 611,543 617,545 622,547 627,549 
	633,551 638,553 644,555 649,557 654,558 660,560 665,562 671,564 676,566 680,567 687,569 692,571 698,573 703,574 709,576 
	714,578 720,579 725,581 731,582 737,584 742,585 748,586 754,587 760,589 765,589 771,590 777,591 783,592 789,593 795,593 
	800,594 806,595 812,595 818,595 824,596 830,596 836,596 842,596 848,596 854,596 860,595 866,595 872,595 877,594 883,594 
	889,593 895,593 901,592 907,591 913,590 919,589 925,588 931,587 937,586 942,584 948,583 954,581 960,580 966,578 971,576 
	977,574 983,572 988,571 994,569 1000,567 1005,565 1011,563 1017,561 1023,559 1028,557 1034,555 1040,553 1045,550 1051,548 
	1057,546 1062,544 1068,542 1073,540 1079,538 1085,535 1091,533 1096,531 1102,529 1108,527 1113,525 1118,523 1124,521 1130,518 
	1136,516 1142,514 1147,512 1153,509 1159,507 1164,505 1170,503 1176,500 1182,498 1187,496 1193,494 1199,491 1204,489 1210,487 
	1215,485 1221,482 1227,480 1232,478 1238,475 1244,473 1249,470 1255,468 1260,465 1266,463 1271,460 1277,457 1282,455 1288,452 
	1293,449 1299,446 1304,444 1309,441 1314,438 1319,436 1323,433 1328,431 1332,428 1336,426 1340,424 1344,421 1348,419 1351,417 
	1355,415 1358,413 1361,411 1365,409 1368,407 1371,405 1374,403 1376,402 1379,400 1382,398 1384,397 1386,395 1389,394 1391,392 
	1393,391 1395,389 1397,388 1399,387 1401,385 1402,384 1404,383 1406,381 1408,380 1409,378 1411,377 1412,375 1414,374 1415,372 
	1416,370 1417,368 1417,366 1418,364 1418,362 1418,360 1418,358 1418,357 1417,355 1417,353 1416,351 1415,349 1414,348 1413,346 
	1411,344 1408,341 1405,339 1403,338 1402,337 1400,336 1398,335 1396,334 1394,332 1393,331 1391,330 1389,329 1387,328 1385,327 
	1383,325 1381,324 1380,323 1378,321 1376,320 1374,318 1372,317 1371,315 1369,313 1368,311 1366,309 1365,307 1363,305 1362,302 
	1361,300 1360,298 1359,295 1358,293 1358,290 1357,287 1357,285 1357,282 1356,279 1357,277 1357,274 1357,271 1358,268 1358,266 
	1359,263 1360,261 1362,258 1363,256 1364,253 1366,251 1368,249 1370,247 1372,245 1374,243 1376,241 1379,240 1381,239 1384,238 
	1386,237 1389,236 1392,236 1395,235 1398,235 1400,235 1403,235 1406,235 1409,235 1412,235 1415,236 1418,236 1421,236 1423,236 
	1426,236 1429,236 1432,236 1435,236 1438,236 1441,236 1443,235 1446,235 1449,234 1451,233 1454,232 1457,231 1459,230 1462,229 
	1464,227 1466,225 1469,224 1471,222 1473,220 1475,218 1477,216 1479,214 1481,212 1482,209 1484,207 1486,205 1487,203 1488,201 
	1490,199 1491,197 1492,195 1493,193 1495,191 1497,188 1498,185 1500,182 1501,179 1503,177 1504,174 1505,171 1505,168 1505,165 
	1504,163 1503,160 1501,158 1499,156 1497,155 1495,154 1493,153 1491,152 1488,151 1487,150 1485,148 1484,146 1483,144 1482,142 
	1482,140 1482,138 1482,136 1483,134 1483,132 1484,129 1484,126 1485,123 1486,120 1487,117 1488,113 1489,110 1490,108 1491,106 
	1491,104 1492,102 1493,99 1494,97 1494,95 1495,92 1496,88 1497,85 1498,83 1499,80 1500,77 1501,74 1501,72 1501,69 1501,67 
	1500,64 1499,62 1497,60 1495,58 1493,56 1491,55 1488,54 1485,53 1482,52 1478,52 1475,51 1472,51 1470,51 1468,51 1465,51 
	1463,50 1461,50 1458,50 1456,50 1453,50 1451,50 1448,50 1445,50 1443,49 1440,49 1437,49 1434,49 1431,49 1431,49 1428,49 
	1424,48 1421,48 1418,48 1414,48 1410,48 1407,48 1403,48 1399,47 1396,47 1392,47 1388,47 1383,47 1379,47 1375,47 1370,47 
	1366,46 1361,46 1357,46 1352,46 1347,46 1342,46 1337,46 1332,46 1326,45 1321,45 1315,45 1310,45 1304,45 1298,45 1292,44 
	1286,44 1280,44 1274,44 1267,44 1261,43 1255,43 1248,43 1241,43 1234,42 1228,42 1221,42 1214,42 1206,41 1199,41 1192,41 
	1185,41 1177,40 1170,40 1162,40 1155,39 1147,39 1139,39 1131,39 1124,38 1116,38 1108,38 1100,37 1092,37 1084,37 1076,37 
	1067,36 1059,36 1051,36 1043,35 1034,35 1026,35 1017,35 1009,34 1000,34 992,34 983,34 974,33 966,33 957,33 948,33 940,32 
	931,32 922,32 913,31 904,31 895,31 886,30 877,30 868,30 859,29 850,29 841,29 832,28 823,28 814,28 804,27 795,27 786,26 777,26 
	767,26 758,25 749,25 739,25 730,24 720,24 711,24 702,23 692,23 683,22 673,22 664,22 654,21 645,21 635,21 626,20 616,20 606,19 
	597,19 587,19 578,18 568,18 558,18 549,17 539,17 529,17 520,16 510,16 500,15 490,15 481,15 471,14 461,14 451,14 442,13 432,13 
	422,12 412,12 403,12 393,11 383,11 374,10 363,10 354,10 344,9 335,9 326,8 317,8 309,8 302,7 294,7 287,7 280,6 273,6 267,6 
	261,6 255,5 249,5 244,5 239,5 235,5 230,5 226,4 223,4 219,4 216,4 213,4 211,4 208,4 206,4 203,5 201,5 199,5 195,6 192,8 189,9 
	187,12 185,14 183,17 183,19 182,21 182,22 182,24 182,26 182,29 182,31 183,33 184,35 184,37 185,38 187,40 188,42 189,44 191,45 
	192,47 194,49 195,50 197,52 199,54 201,55 203,57 205,58 207,60 209,61 211,63 213,64 215,66 218,67 220,69 222,71 225,72 227,74 
	230,75 232,77 235,79 238,80 240,82 243,83 246,85 249,86 252,88 254,89 257,90 260,92 264,93 267,94 270,95 273,96 276,97 280,98 
	283,98 287,99 290,99 294,99 297,99 301,99 304,99 308,98 312,98 315,97 319,96 323,95 326,94 330,93 334,92 337,90 341,89 345,87 
	348,85 352,84 356,82 360,80 363,78 367,77 371,75 375,73 379,71 383,69 387,67 391,66 395,64 399,62 404,60 408,59 412,57 417,55 
	421,54 426,53 430,52 435,50 440,49 444,49 449,48 454,47 459,46 463,46 468,46 473,45 478,45 483,45 488,45 493,45 498,45 503,46 
	508,46 513,47 518,48 524,49 528,50 533,51 538,53 543,54 548,56 553,58 558,59 562,61 567,63 572,66 "/>
<polyline vector-effect="non-scaling-stroke" class="st1" points="575,67 580,69 585,71 590,74 594,76 599,79 604,82 608,84 613,87 
	618,90 623,93 627,95 632,98 637,101 642,104 647,107 651,110 656,113 661,116 666,119 671,122 676,125 681,128 686,132 692,135 
	697,138 702,142 708,145 713,148 719,152 724,155 730,159 735,162 741,165 747,169 752,172 758,176 764,179 770,183 776,186 
	782,190 787,193 793,197 799,201 805,204 811,208 817,211 823,215 830,219 836,223 842,226 848,229 854,233 860,237 866,240 
	872,244 878,247 883,250 888,253 892,256 896,259 900,261 904,263 907,265 911,267 914,269 917,271 919,273 922,275 925,276 
	927,278 929,280 931,281 934,283 936,284 938,286 939,288 941,289 943,291 944,293 946,295 947,297 948,299 949,301 949,303 
	950,305 950,307 950,309 950,311 950,314 949,316 949,318 948,320 947,322 944,326 943,328 941,329 940,331 938,332 936,334 
	934,336 932,337 930,339 928,340 926,342 924,343 922,345 919,347 917,348 915,350 913,352 911,354 909,356 906,357 904,359 
	903,361 901,363 899,366 897,368 896,370 895,373 893,375 892,378 891,380 890,383 889,386 889,389 888,391 888,394 888,397 
	887,400 887,403 888,406 888,409 888,412 888,415 889,418 889,421 889,424 889,427 889,430 889,433 889,436 889,440 888,443 
	888,446 887,449 887,452 886,455 885,458 884,461 882,464 881,467 880,470 878,473 876,476 875,479 873,481 871,484 868,487 
	866,489 864,492 862,494 859,496 856,499 854,501 851,503 848,505 845,507 842,508 839,510 836,512 833,513 830,515 827,516 
	824,518 820,519 817,521 814,522 810,523 807,524 804,525 800,526 796,527 793,528 789,529 786,530 782,531 779,531 775,532 
	771,533 768,533 764,534 760,534 756,534 752,535 748,535 744,535 740,535 736,535 732,535 728,535 724,535 720,534 716,534 
	712,533 708,533 704,532 700,532 696,531 692,530 688,529 684,528 680,527 676,526 672,524 667,523 664,521 660,520 656,518 
	652,516 648,514 644,513 640,511 636,509 632,507 628,505 625,503 621,501 617,498 613,496 609,494 605,491 601,489 597,487 
	594,484 590,482 586,480 582,477 578,475 574,473 570,470 566,468 562,466 558,463 554,461 550,458 546,456 542,453 538,451 
	534,448 529,446 525,443 521,441 517,438 513,436 509,433 505,431 500,428 496,426 492,423 488,421 484,418 480,416 476,414 
	472,411 469,409 465,407 462,405 459,404 456,402 453,400 451,399 448,397 445,395 442,394 440,392 437,391 434,390 432,388 
	429,387 427,386 424,385 421,384 418,382 416,381 413,381 410,380 407,379 404,379 401,378 398,378 395,377 392,377 389,377 
	386,377 383,377 380,377 376,377 373,378 370,378 367,379 363,379 360,380 357,381 354,382 350,383 347,385 344,386 341,387 
	338,389 335,391 332,393 329,395 326,397 323,399 320,401 317,403 314,405 311,407 308,409 305,411 301,413 298,415 295,416 
	292,418 288,419 285,420 281,421 278,422 274,423 270,424 267,424 263,425 259,425 255,425 252,425 248,424 244,424 241,423 
	237,422 233,421 230,420 225,418 222,417 219,415 215,413 212,411 209,409 206,406 203,404 200,401 197,399 194,396 191,393 
	189,391 186,388 183,385 180,383 177,380 173,377 170,375 167,373 164,371 160,368 156,367 153,365 149,363 145,362 141,361 
	138,360 134,359 130,358 126,358 122,358 118,357 114,358 110,358 106,358 102,359 98,359 94,360 90,361 86,362 82,363 78,364 
	74,366 70,367 66,369 63,370 59,372 55,374 52,376 48,378 45,380 42,382 38,385 35,387 32,390 29,393 27,396 24,399 22,402 20,405 
	17,409 15,412 14,415 12,419 10,422 9,426 8,430 7,433 6,437 5,441 5,445 4,448 4,452 4,456 4,459 5,463 5,466 6,470 7,473 8,477 
	10,480 11,483 13,486 15,488 17,491 20,493 22,495 25,497 28,499 31,500 33,501 36,502 39,503 42,504 45,504 48,504 51,504 54,504 
	57,503 60,503 63,503 66,502 69,502 72,502 75,501 79,501 82,501 85,501 89,500 92,500 95,500 99,500 102,500 106,500 109,501 
	113,501 117,501 120,502 124,502 128,503 132,503 136,504 140,505 143,505 147,506 151,507 156,508 160,509 "/>
<polyline vector-effect="non-scaling-stroke" class="st2" points="160,509 164,510 168,511 172,512 176,512 181,513 185,514 
	189,515 194,516 198,517 202,518 207,519 211,520 216,521 220,522 225,522 230,523 234,524 239,525 244,525 248,526 253,526 
	258,527 263,527 268,527 273,527 278,527 283,528 288,528 293,528 298,527 303,527 308,527 313,527 318,527 323,527 329,526 
	334,526 339,526 344,526 349,526 354,525 359,525 365,525 370,525 375,525 381,525 386,524 391,524 397,524 402,524 408,524 
	412,523 418,523 423,523 429,523 434,523 440,522 445,522 451,522 456,522 462,522 467,522 473,522 479,521 484,521 490,521 
	495,521 501,521 507,521 512,521 518,521 524,522 529,522 535,523 541,523 546,524 552,525 557,526 563,528 568,529 574,531 
	579,532 584,534 590,536 595,538 600,540 606,542 611,543 617,545 622,547 627,549 633,551 638,553 644,555 649,557 654,558 
	660,560 665,562 671,564 676,566 680,567 687,569 692,571 698,573 703,574 709,576 714,578 720,579 725,581 731,582 737,584 
	742,585 748,586 754,587 760,589 765,589 771,590 777,591 783,592 789,593 795,593 800,594 806,595 812,595 818,595 824,596 
	830,596 836,596 842,596 848,596 854,596 860,595 866,595 872,595 877,594 883,594 889,593 895,593 901,592 907,591 913,590 
	919,589 925,588 931,587 937,586 942,584 948,583 954,581 960,580 966,578 971,576 977,574 983,572 988,571 994,569 1000,567 
	1005,565 1011,563 1017,561 1023,559 1028,557 1034,555 1040,553 1045,550 1051,548 1057,546 1062,544 1068,542 1073,540 1079,538 
	1085,535 1091,533 1096,531 1102,529 1108,527 1113,525 1118,523 1124,521 1130,518 1136,516 1142,514 1147,512 1153,509 1159,507 
	1164,505 1170,503 1176,500 1182,498 1187,496 1193,494 1199,491 1204,489 1210,487 1215,485 1221,482 1227,480 1232,478 1238,475 
	1244,473 1249,470 1255,468 1260,465 1266,463 1271,460 1277,457 1282,455 1288,452 1293,449 1299,446 1304,444 1309,441 1314,438 
	1319,436 1323,433 1328,431 1332,428 1336,426 1340,424 1344,421 1348,419 1351,417 1355,415 1358,413 1361,411 1365,409 1368,407 
	1371,405 1374,403 1376,402 1379,400 1382,398 1384,397 1386,395 1389,394 1391,392 1393,391 1395,389 1397,388 1399,387 1401,385 
	1402,384 1404,383 1406,381 1408,380 1409,378 1411,377 1412,375 1414,374 1415,372 1416,370 1417,368 1417,366 1418,364 1418,362 
	1418,360 1418,358 1418,357 1417,355 1417,353 1416,351 1415,349 1414,348 1413,346 1411,344 1408,341 1405,339 1403,338 1402,337 
	1400,336 1398,335 1396,334 1394,332 1393,331 1391,330 1389,329 1387,328 1385,327 1383,325 1381,324 1380,323 1378,321 1376,320 
	1374,318 1372,317 1371,315 1369,313 1368,311 1366,309 1365,307 1363,305 1362,302 1361,300 1360,298 1359,295 1358,293 1358,290 
	1357,287 1357,285 1357,282 1356,279 1357,277 1357,274 1357,271 1358,268 1358,266 1359,263 1360,261 1362,258 1363,256 1364,253 
	1366,251 1368,249 1370,247 1372,245 1374,243 1376,241 1379,240 1381,239 1384,238 1386,237 1389,236 1392,236 1395,235 1398,235 
	1400,235 1403,235 1406,235 1409,235 1412,235 1415,236 1418,236 1421,236 1423,236 1426,236 1429,236 1432,236 1435,236 1438,236 
	1441,236 1443,235 1446,235 1449,234 1451,233 1454,232 1457,231 1459,230 1462,229 1464,227 1466,225 1469,224 1471,222 1473,220 
	1475,218 1477,216 1479,214 1481,212 1482,209 1484,207 1486,205 1487,203 1488,201 1490,199 1491,197 1492,195 1493,193 1495,191 
	1497,188 1498,185 1500,182 1501,179 1503,177 1504,174 1505,171 1505,168 1505,165 1504,163 1503,160 1501,158 1499,156 1497,155 
	1495,154 1493,153 1491,152 1488,151 1487,150 1485,148 1484,146 1483,144 1482,142 1482,140 1482,138 1482,136 1483,134 1483,132 
	1484,129 1484,126 1485,123 1486,120 1487,117 1488,113 1489,110 1490,108 1491,106 1491,104 1492,102 1493,99 1494,97 1494,95 
	1495,92 1496,88 1497,85 1498,83 1499,80 1500,77 1501,74 1501,72 1501,69 1501,67 1500,64 1499,62 1497,60 1495,58 1493,56 
	1491,55 1488,54 1485,53 1482,52 1478,52 1475,51 1472,51 1470,51 1468,51 1465,51 1463,50 1461,50 1458,50 1456,50 1453,50 
	1451,50 1448,50 1445,50 1443,49 1440,49 1437,49 1434,49 1431,49 "/>
<polyline vector-effect="non-scaling-stroke" class="st3" points="1431,49 1428,49 1424,48 1421,48 1418,48 1414,48 1410,48 
	1407,48 1403,48 1399,47 1396,47 1392,47 1388,47 1383,47 1379,47 1375,47 1370,47 1366,46 1361,46 1357,46 1352,46 1347,46 
	1342,46 1337,46 1332,46 1326,45 1321,45 1315,45 1310,45 1304,45 1298,45 1292,44 1286,44 1280,44 1274,44 1267,44 1261,43 
	1255,43 1248,43 1241,43 1234,42 1228,42 1221,42 1214,42 1206,41 1199,41 1192,41 1185,41 1177,40 1170,40 1162,40 1155,39 
	1147,39 1139,39 1131,39 1124,38 1116,38 1108,38 1100,37 1092,37 1084,37 1076,37 1067,36 1059,36 1051,36 1043,35 1034,35 
	1026,35 1017,35 1009,34 1000,34 992,34 983,34 974,33 966,33 957,33 948,33 940,32 931,32 922,32 913,31 904,31 895,31 886,30 
	877,30 868,30 859,29 850,29 841,29 832,28 823,28 814,28 804,27 795,27 786,26 777,26 767,26 758,25 749,25 739,25 730,24 720,24 
	711,24 702,23 692,23 683,22 673,22 664,22 654,21 645,21 635,21 626,20 616,20 606,19 597,19 587,19 578,18 568,18 558,18 549,17 
	539,17 529,17 520,16 510,16 500,15 490,15 481,15 471,14 461,14 451,14 442,13 432,13 422,12 412,12 403,12 393,11 383,11 374,10 
	363,10 354,10 344,9 335,9 326,8 317,8 309,8 302,7 294,7 287,7 280,6 273,6 267,6 261,6 255,5 249,5 244,5 239,5 235,5 230,5 
	226,4 223,4 219,4 216,4 213,4 211,4 208,4 206,4 203,5 201,5 199,5 195,6 192,8 189,9 187,12 185,14 183,17 183,19 182,21 182,22 
	182,24 182,26 182,29 182,31 183,33 184,35 184,37 185,38 187,40 188,42 189,44 191,45 192,47 194,49 195,50 197,52 199,54 201,55 
	203,57 205,58 207,60 209,61 211,63 213,64 215,66 218,67 220,69 222,71 225,72 227,74 230,75 232,77 235,79 238,80 240,82 243,83 
	246,85 249,86 252,88 254,89 257,90 260,92 264,93 267,94 270,95 273,96 276,97 280,98 283,98 287,99 290,99 294,99 297,99 301,99 
	304,99 308,98 312,98 315,97 319,96 323,95 326,94 330,93 334,92 337,90 341,89 345,87 348,85 352,84 356,82 360,80 363,78 367,77 
	371,75 375,73 379,71 383,69 387,67 391,66 395,64 399,62 404,60 408,59 412,57 417,55 421,54 426,53 430,52 435,50 440,49 444,49 
	449,48 454,47 459,46 463,46 468,46 473,45 478,45 483,45 488,45 493,45 498,45 503,46 508,46 513,47 518,48 524,49 528,50 533,51 
	538,53 543,54 548,56 553,58 558,59 562,61 567,63 572,66 "/>
<circle id="minimapCarCircle" class="st4" cx="575" cy="67" r="17"/>
</svg>
