<?xml version="1.0" encoding="utf-8"?>
<!-- Generator: Adobe Illustrator 27.5.0, SVG Export Plug-In . SVG Version: 6.00 Build 0)  -->
<svg version="1.1" id="Layer_1" xmlns="http://www.w3.org/2000/svg" xmlns:xlink="http://www.w3.org/1999/xlink" x="0px" y="0px"
	 viewBox="0 0 1021.3 610.7" style="enable-background:new 0 0 1021.3 610.7;" xml:space="preserve">
<style type="text/css">
	.st0{fill:none;stroke:#374151;stroke-width:3.7565;stroke-miterlimit:1.8783;}
	.st1{fill:none;stroke:#EF4444;stroke-width:0.9391;stroke-miterlimit:1.8783;}
	.st2{fill:none;stroke:#3B82F6;stroke-width:0.9391;stroke-miterlimit:1.8783;}
	.st3{fill:none;stroke:#FBBF24;stroke-width:0.9391;stroke-miterlimit:1.8783;}
	.st4{fill:#FFFFFF;stroke:#000000;stroke-width:10.296;stroke-miterlimit:3.168;}
</style>
<path vector-effect="non-scaling-stroke" class="st0" d="M792.8,592.1c-131.4-12.9-263-26.7-394.4-37.1c-11.2-1.7-23-0.5-33.8-4.2
	c-13.4-7.8,1.2-28.4-31-20.2c-27.7,9.6-57.5,14.1-86.9,10.8c-28-1.1-56.9-4.9-82.2-17.8c-44.7-21.1-73.6-66.3-84.1-113.6
	c-7.5-44.9-8.3-91.1-10.8-136.2c-0.9-14.2-1.6-28.4-1.9-42.3c-1.7-11.1,1.1-26.8-11.3-31.9c-14.7-6.9-17.8-23.3-20.7-37.6
	c-4-14.6-9.3-28.6-13.6-42.7c-7.5-22.9-19-45.5-20.2-69.5c0.9-20.7,18-37.6,38-39.9c22.7-2.5,45.6-4,68.1-6.1
	c31.9-4.7,52.3-2.7,66.2,29.1c26.5,49.5,51.8,100.3,84.1,146c41.8,51.9,86.5,101.7,129.6,151.7c14.6,16.5,28.5,33,42.7,48.8
	c8.2,9.2,15.7,19.7,27.7,23c12.1,3.4,25-0.3,36.6,3.3c20.8,5.4,32.5,26.1,52.6,31.9c36.5,9,74.3,7.3,110.8,11.7
	c66.9,5.6,133.5,12.7,199.6,19.7c32.4,3.5,64.3,6.2,95.8,9.9c15.4,1.2,30.7,1.5,44.1,8c18.2,10.3,25.6,33,19.7,52.1
	c-16.4,51.3-79.3,55.4-124.5,55.8C859.4,595.2,826.2,595.6,792.8,592.1z"/>
<path vector-effect="non-scaling-stroke" class="st1" d="M792.8,592.1c-100.6-9.7-201.2-20.8-301.9-29.1c-29-2.7-58.3-5.5-87.3-7.5
	c-11.8-3.2-43,2.5-45.1-13.1c-1.5-17.9-17.1-14.3-29.6-10.3c-10.9,3.3-22,6.5-33.3,8.5c-91.5,9-175.6-13-208.5-108
	C74.2,396,74.8,356.3,72.1,318"/>
<path vector-effect="non-scaling-stroke" class="st2" d="M72,317.9c-1.5-24.5-2.8-49.2-3.8-73.7c-1.4-12.7,0.8-26.7-4.7-38.5
	c-4.1-6.2-11.7-8.1-16.9-13.1c-10.4-15.9-10.4-36-17.8-53.2C23,121.2,16.3,103.1,10,84.9C5.8,71.8,0.5,58.4,2.5,44.5
	C11,5.2,49.5,9.3,80.9,6c28.7-0.2,67.5-15.9,86.4,14.1c27.4,49.8,52.6,101.3,84.1,148.9c40.8,54,87,103.6,131,155"/>
<path vector-effect="non-scaling-stroke" class="st3" d="M382.4,324c15.2,17.8,30.9,35.3,46,53.1c8.9,9,15.9,20.2,28.2,24.9
	c15.5,4.4,32.6-1.1,47.4,7c11.5,5.5,19.8,15.8,30.5,22.5c26.7,14.4,58.6,11.6,87.8,15c57.2,3.9,114.3,9.8,171.4,16
	c47.6,4.5,95.2,9.7,142.7,14.6c20.5,3.1,42.4,1.2,61.5,9.9c20.2,11.3,27,38,17.4,58.7c-20.6,45.7-78.3,48.6-122.1,49.3
	c-33.5,0.3-67.2,0.7-100.5-2.8"/>
<circle id="minimapCarCircle" class="st4" cx="792.8" cy="592.1" r="13.5"/>
</svg>
