<?xml version="1.0" encoding="UTF-8"?>
<svg id="uuid-4bc1afc8-23a2-47be-a51e-6cab2673b33e" data-name="Layer 1" xmlns="http://www.w3.org/2000/svg" width="64" height="64" viewBox="0 0 64 64">
  <defs>
    <style>
      .uuid-9d30a02c-e629-4689-b489-126a0ba27e6d {
        fill: #b72025;
      }
    </style>
  </defs>
  <path class="uuid-9d30a02c-e629-4689-b489-126a0ba27e6d" d="m1.2,24.1h6.2l.7-3.8c.7-3.7,1.7-6.9,3.1-9.4,1.3-2.6,3-4.7,4.8-6.3,1.9-1.6,4-2.8,6.4-3.5,2.4-.7,4.9-1.1,7.6-1.1s3.5.1,5.3.4c1.9.2,3.9.7,5.9,1.2l-1.3,7.4c-1.2-.2-2.5-.3-3.8-.4-1.4,0-2.4-.1-3.2-.1s-2,0-2.8.3c-.8.2-1.5.5-2.1,1.1-.6.5-1.1,1.3-1.5,2.2-.4.9-.8,2.2-1.1,3.7l-1.5,8.4h8.5l-1.1,6.2h-8.6l-6.2,33.7H0L6.3,30.3H0l1.2-6.2Z"/>
  <path class="uuid-9d30a02c-e629-4689-b489-126a0ba27e6d" d="m36,14.6c3.3-.6,6.4-1.7,9.1-3.4,2.7-1.7,4.9-3.8,6.5-6.1h12.4l-11,59h-17.5l8-43.2h-8.7l1.2-6.2Z"/>
</svg>