<?xml version="1.0" encoding="utf-8"?>
<!-- Generator: Adobe Illustrator 27.5.0, SVG Export Plug-In . SVG Version: 6.00 Build 0)  -->
<svg version="1.1" id="Layer_1" xmlns="http://www.w3.org/2000/svg" x="0px" y="0px"
     viewBox="0 0 1064.5 543" style="enable-background:new 0 0 1064.5 543;" xml:space="preserve">
<style type="text/css">
	.st0{fill:none;stroke:#374151;stroke-width:4.32;stroke-miterlimit:2.16;}
	.st1{fill:none;stroke:#EF4444;stroke-width:1.08;stroke-miterlimit:2.16;}
	.st2{fill:none;stroke:#3B82F6;stroke-width:1.08;stroke-miterlimit:2.16;}
	.st3{fill:none;stroke:#FBBF24;stroke-width:1.08;stroke-miterlimit:2.16;}
	.st4{fill:#FFFFFF;stroke:#000000;stroke-width:10.296;stroke-miterlimit:3.168;}
</style>
<path vector-effect="non-scaling-stroke" class="st0" d="M617.8,525.1c-55.2,1.3-110.9,2.7-166.1,3.5c-45.5,5.4-41.2-21.1-66.5-45.8
	c-25.5-25.2-63.1-15-95-14.1c-74.6,3.2-150.5-3.8-221.8-26.4c-13.2-3.7-18.5-19-11.5-30.5c10-12.7,26-22.3,27.5-39.7
	c4.2-44-57.3-45.3-76.7-89.7c-20.8-47.5,22.8-123.5,35.1-171c7.6-20.5,5.4-51.5,30.9-57.6c10.3-2.1,21.1-2.8,30.5-6.9
	c15.4-4.8,27.6-15.8,40.9-24C165,8.4,189.4,0.6,213.5,2.4c36.9,3.7,68.9,25.9,98.6,45.8c19.2,13.2,40.2,24.4,57.3,39.7
	c13.6,17.2-9.2,35.4,3.1,68.7c6.4,17.6,20.1,31,30.9,45.5c31,42.8,72.8,80.7,124.8,93.6c34.9,8.6,71.7,7.6,106.6,4.2
	c30.7-1.3,49.6-7.7,65.3-34.7c14.9-21.4,41.1-31.6,65.8-32.8c41.5-4.9,84.1-6.1,124.9,0.4c35.2,7.8,65.7,26.9,97,42
	c16.1,8.5,31.7,16.6,47.4,24.5c14.2,6.9,27.8,17.2,27.1,34c0.1,10.5-4.5,20.6-8.8,29.4c-3.9,10.3-8.3,20.3-12.2,29.8
	c-12.2,31.5-23.9,62.4-63,61.4c-21.8,0.7-95.2-43.1-105.7-17.9c-3.5,14.1,5.1,27.9,4.9,41.6c-3.2,42.4-44.2,46.3-77.9,44.3
	C738.2,523.8,678.2,523.4,617.8,525.1z"/>
<path vector-effect="non-scaling-stroke" class="st1" d="M617.8,525.1c-58.5,1.6-117.2,2.5-175.6,3.8
	c-59.7,2.1-22.6-77.6-136.8-61.1c-60.8,3.7-122.6,0.8-182.6-11.5c-14.2-2.8-28.5-6.6-42.4-10.3c-10.7-3.3-25.4-6.4-26.7-19.8
	c-2-22.3,26.9-29.1,30.2-51.5c4.9-24.7-15.5-39.4-34.4-50.3c-12.9-8-25.7-17.7-34.7-30.2c-15.6-18.7-14.4-43.8-9.9-66.5
	c6.2-29.5,16.5-58.1,27.9-85.9"/>
<path vector-effect="non-scaling-stroke" class="st2" d="M32.8,141.8c5.7-16.1,11-32.7,14.9-49.3c3.4-14,6-31.6,21.4-37.4
	c14.2-4.5,30.1-4.2,43.1-11.9c23.8-11.5,43-31.8,69.4-38.2c48-12.5,92.5,17.4,130.4,43.2c12.9,8.3,26,16.9,38.6,25.6
	c8.2,5.4,17.9,10.4,22.1,19.9c3.8,10.3-2.1,20.7-3.5,30.9c-4.9,29.8,12.4,50.8,29.8,72.5c48.2,66.4,107.6,109,192.8,105"/>
<path vector-effect="non-scaling-stroke" class="st3" d="M591.8,302.1c18.8,0,37.9-1.3,56.6-3.8c18.1-0.1,34.6-9.2,45-23.7
	c8.8-14.7,21.1-27,36.6-34.4c24-9.1,50.5-10.5,76-11.1c26.5-1.3,53.5-1.6,79.8,2.7c47.5,9.5,88.5,38,131.7,58.5
	c33,16.1,56.4,26.5,37.8,67.6c-12.4,25.2-19.3,53.7-35.1,77.1c-17.5,20.4-43.1,22.9-66.8,12.7c-19.7-7.4-39.6-15.3-60.4-19.1
	c-29.8-5.9-22.1,21.5-16.8,39.7c1.3,9.5,0.6,18.9-3.8,27.4c-19.2,35.1-64.6,24-97.7,26.7c-52.3,1.1-104.8,1.3-157,2.7"/>
<circle id="minimapCarCircle" class="st4" cx="617.8" cy="524.3" r="13.5"/>
</svg>
