<?xml version="1.0" encoding="utf-8"?>
<!-- Generator: Adobe Illustrator 27.5.0, SVG Export Plug-In . SVG Version: 6.00 Build 0)  -->
<svg version="1.1" id="Layer_1" xmlns="http://www.w3.org/2000/svg" x="0px" y="0px"
     viewBox="0 0 994.3 678.5" style="enable-background:new 0 0 994.3 678.5;" xml:space="preserve">
<style type="text/css">
	.st0{fill:none;stroke:#374151;stroke-width:6.6462;stroke-miterlimit:3.3231;}
	.st1{fill:none;stroke:#EF4444;stroke-width:1.6615;stroke-miterlimit:3.3231;}
	.st2{fill:none;stroke:#3B82F6;stroke-width:1.6615;stroke-miterlimit:3.3231;}
	.st3{fill:none;stroke:#FBBF24;stroke-width:1.6615;stroke-miterlimit:3.3231;}
</style>
<path vector-effect="non-scaling-stroke" class="st0" d="M612.2,661.6c-135-6.8-270.3-11.8-405.4-17.4c-41.7-1.7-83.8-3.7-125.4-5
	c-21.5-2-43.9,0.6-64.9-5c-12.8-3.7-17.2-18.5-9.1-29.1c9.2-9.2,20.3-17,28.2-27.4c9.4-13.9,13.6-31.8,9.1-48.2
	c-2.3-16.1-10-31.5-14.1-47.4c-7.6-32.8,0.8-66.2,5.8-98.9c16.7-83.6,32.1-167.7,47.4-251.7c5.2-26.7,10.3-53.8,15-80.6
	c5.2-37,21.1-58.9,60.6-41.5c19.1,7.5,28,27.4,39,43.2c9.4,17,22.8,32,36.6,45.7c16.4,14.8,32.7,31.3,52.3,41.5
	c18.3,12.1,40.3,19.9,52.3,39c29.4,43.9-8.7,71.8,24.9,123.8c13.6,19.8,32.7,34.6,52.3,47.4c20.1,13.6,92.3,44.7,76.4,73.9
	c-15.1,23.6-46.1,12.7-68.1,8.3c-26.6-6.2-53.1-13.9-79.8-17.4c-49.4-8.1-100.9-25.8-149.5-10c-21.1,8.1-57.1,30.5-45.7,56.5
	c11,11.1,28.5,10.1,42.4,12.5c62.6,8.3,125.7,11.9,188.6,14.1c77.7,3.1,155.5,5.5,232.6,10c20.8,1.8,42,2.3,62.3,3.3
	c21.5,2.3,46.9,1.9,61.5-15.8c27.1-34.4,10.2-85.6-20.8-111.3c-37.5-30.1-92.2-32.3-123-70.6c-39-42.7-33.7-103.2-9.1-151.2
	c12-25,23.3-53.3,46.6-69c23.6-16,53.8-10.1,71.4,10.9c16.5,21.2,25.5,46.8,39,69C771.4,217.9,802,272,831.3,326
	c38.2,68.1,76.1,136.2,113.8,203.5c9.5,18.5,20.2,35.9,29.9,53.2c8.8,15.6,19.3,31.9,14.9,49.8c-18.6,59.3-119.6,39.3-167,39.8
	C752.3,668.7,682.4,667.9,612.2,661.6z"/>
<path vector-effect="non-scaling-stroke" class="st1" d="M612.2,661.6c-193.7-9.9-388-15.9-581.5-24.9c-15.2,1.2-35.2-11.7-25-28.3
	c6.3-10.6,18.7-17,26.6-26.6c13.6-15.2,16.2-36.3,12.5-55.6c-7.6-24.2-17.7-48.1-17.4-73.9c3-44.1,12.7-88.1,21.6-131.3
	c13.2-71.7,26.4-143.5,39.9-215.2c3.8-20.6,7.5-41.7,11.6-62.3c3.9-34.1,26.8-49.5,59-34.1c23.7,10.1,33,37,47.4,56.5
	c19.2,26,43.5,47.7,69,67.3"/>
<path vector-effect="non-scaling-stroke" class="st2" d="M275.7,133.2c34.8,20.9,72.3,34.2,76.4,80.6c0,17.5-5.1,35-1.7,52.3
	c5.9,38.7,37.6,66.7,69.8,85.6c22.8,14.5,48.1,26.1,67.3,45.7c17.2,16.1,4.4,38.1-16.6,40.7c-18.9,3-38-5.4-56.5-8.3
	c-35.5-9.7-71.8-15.7-108-22.4c-50.5-10.4-116-20.3-151.2,26.6c-7.5,7.4-11.1,22.2-2.5,29.9c9.6,7.2,22,7.3,33.2,9.1
	c20.4,3,41,5.1,61.5,6.6c80.2,8.4,161.7,8.8,242.6,12.5c48.7,1.5,97.6,4.2,146.2,7.5c31.6-1.6,69.3,12,96.4-9.1
	c35.9-34.3,15.3-97.6-23.2-121.3c-27.5-20.7-63.4-25.3-91.4-44.9c-63.4-41.5-63.9-115.1-30.7-177"/>
<path vector-effect="non-scaling-stroke" class="st3" d="M587.3,147.3c12.2-25.8,25.8-59.2,54.8-69c16.2-7.8,35.7-4.4,49.8,5.8
	c20.8,15.8,28.5,41.8,41.5,63.1c29.6,56.4,61.9,111.7,92.2,167.8c38.3,69.6,77.8,138.8,116.3,208.5c10.6,19.7,22.1,39.6,33.2,59
	c7.8,14.1,17.6,28.7,15.8,45.7c-13.4,64-119.6,43.7-167.8,44c-70.2-3.6-140.9-4.5-211-10.8"/>
</svg>
