<?xml version="1.0" encoding="utf-8"?>
<!-- Generator: Adobe Illustrator 27.5.0, SVG Export Plug-In . SVG Version: 6.00 Build 0)  -->
<svg version="1.1" id="Layer_1" xmlns="http://www.w3.org/2000/svg" x="0px" y="0px"
     viewBox="0 0 1462.8 761.1" style="enable-background:new 0 0 1462.8 761.1;" xml:space="preserve">
<style type="text/css">
	.st0{fill:none;stroke:#374151;stroke-width:6.336;stroke-miterlimit:3.168;}
	.st1{fill:none;stroke:#EF4444;stroke-width:1.584;stroke-miterlimit:3.168;}
	.st2{fill:none;stroke:#3B82F6;stroke-width:1.584;stroke-miterlimit:3.168;}
	.st3{fill:none;stroke:#FBBF24;stroke-width:1.584;stroke-miterlimit:3.168;}
	.st4{fill:#FFFFFF;stroke:#000000;stroke-width:10.296;stroke-miterlimit:3.168;}
</style>
<polygon vector-effect="non-scaling-stroke" class="st0" points="1103.3,90.3 1098.5,90.3 1093.8,90.3 1089,90.3 1084.2,90.3 
	1079.5,90.3 1075.5,90.3 1070.8,90.3 1066,90.3 1061.3,90.3 1055.7,90.3 1051,90.3 1046.2,90.3 1041.5,90.3 1036.7,90.3 1032,90.3 
	1027.2,90.3 1022.5,90.3 1017.7,90.3 1013,90.3 1008.2,90.3 1003.5,89.5 998.7,89.5 993.2,89.5 988.4,89.5 983.7,89.5 978.9,89.5 
	974.2,89.5 969.4,89.5 964.7,89.5 959.1,89.5 954.4,88.7 949.6,88.7 944.9,88.7 940.1,88.7 935.4,88.7 929.8,88.7 925.1,87.9 
	920.3,87.9 915.6,87.9 910.8,87.9 906,87.1 901.3,87.1 897.3,86.3 891.8,86.3 887,85.5 882.3,84.7 877.5,84 872.8,83.2 868,82.4 
	863.3,81.6 857.7,80.8 853.8,80 849,78.4 844.3,77.6 839.5,76 834.8,75.2 829.2,74.4 824.5,72.9 819.7,72.1 815,70.5 810.2,69.7 
	805.5,68.9 800.7,67.3 796,66.5 791.2,65.7 785.7,64.2 780.9,63.4 776.2,62.6 771.4,61.8 766.7,60.2 761.9,59.4 756.4,58.6 
	751.6,57.8 746.9,57 742.1,56.2 737.4,55.4 731.8,54.6 727.1,53.9 722.3,53.9 717.6,53.1 712,52.3 707.3,52.3 702.5,51.5 697,50.7 
	692.2,50.7 687.5,49.9 682.7,49.9 677.2,49.9 672.4,49.1 667.7,49.1 662.1,49.1 657.4,49.1 652.6,49.1 647.1,49.1 642.3,49.1 
	637.6,49.9 632,49.9 627.3,49.9 622.5,50.7 617.8,50.7 612.2,50.7 607.5,51.5 602.7,51.5 597.2,51.5 592.4,52.3 587.7,52.3 
	582.1,53.1 578.2,53.1 572.6,53.9 567.9,53.9 563.1,54.6 557.6,54.6 552.8,55.4 548.1,55.4 542.5,56.2 537.8,56.2 533,57 527.5,57 
	522.7,57.8 518,57.8 512.4,58.6 507.7,59.4 502.9,59.4 497.4,60.2 492.6,61 488.7,61.8 483.9,62.6 479.2,62.6 474.4,63.4 
	470.4,64.2 466.5,64.9 462.5,65.7 458.6,66.5 454.6,67.3 451.4,68.1 447.5,68.9 444.3,69.7 440.4,70.5 437.2,71.3 434,72.1 
	430.8,72.9 428.5,73.7 425.3,74.4 422.9,75.2 419.8,76 417.4,76.8 415,77.6 412.6,78.4 410.3,78.4 408.7,79.2 406.3,80 404.7,80.8 
	402.3,81.6 400.8,82.4 399.2,84 396.8,84.7 395.2,85.5 393.6,86.3 392,87.9 390.5,88.7 389.7,90.3 388.1,91.1 386.5,92.7 
	385.7,94.2 384.1,95.8 383.3,96.6 382.5,98.2 381.7,99.8 381,101.4 380.2,103 378.6,106.1 377,109.3 376.2,113.3 375.4,116.4 
	373.8,119.6 373,122.8 371.4,125.9 370.7,128.3 369.9,129.9 369.1,131.5 368.3,132.3 366.7,133.8 365.9,135.4 365.1,137 
	363.5,138.6 362.7,139.4 361.2,141 360.4,142.6 358.8,143.4 357.2,144.9 355.6,146.5 354,147.3 353.2,148.9 351.6,149.7 
	349.3,151.3 347.7,152.1 346.1,153.6 344.5,154.4 342.9,156 340.6,156.8 339,157.6 336.6,159.2 335,160 332.6,160.8 331.1,162.4 
	328.7,163.2 326.3,163.9 323.9,164.7 322.3,166.3 320,167.1 317.6,167.9 315.2,169.5 312.8,170.3 310.5,171.1 308.1,172.7 
	305.7,173.4 303.3,175 301,175.8 298.6,177.4 296.2,179 293.8,180.6 291.5,182.2 289.1,183.7 286.7,185.3 284.3,186.9 282,188.5 
	280.4,190.9 278,192.5 275.6,194.8 274,197.2 271.7,199.6 270.1,202 268.5,204.3 266.1,206.7 264.5,209.1 262.9,211.5 261.4,213.8 
	259.8,217 259,219.4 257.4,222.6 255.8,224.9 255,228.1 253.4,231.3 251.9,233.6 251.1,236.8 249.5,240 248.7,243.1 247.1,246.3 
	246.3,249.5 244.7,252.6 243.9,255.8 242.4,259 240.8,262.9 240,266.1 238.4,269.3 236.8,273.2 236,276.4 234.4,279.6 232.8,283.5 
	232.1,286.7 230.5,290.7 228.9,294.6 227.3,297.8 226.5,301.8 224.9,304.9 223.3,308.9 221.8,312.8 220.2,316.8 218.6,320.8 
	217,323.9 216.2,327.9 214.6,331.8 213,335.8 211.5,339.8 209.9,343.7 208.3,347.7 206.7,351.6 205.1,355.6 203.5,359.6 202,363.5 
	200.4,367.5 198.8,371.4 197.2,375.4 194.8,380.2 193.2,384.1 191.7,388.1 190.1,392 188.5,396 186.9,400 185.3,404.7 183,408.7 
	181.4,412.6 179.8,416.6 178.2,421.3 176.6,425.3 175,429.3 172.7,433.2 171.1,437.2 169.5,440.4 167.9,444.3 167.1,448.3 
	165.5,451.4 163.9,454.6 162.4,458.6 161.6,461.7 160,464.9 159.2,467.3 157.6,470.4 156.8,473.6 156,476 155.2,479.2 154.4,481.5 
	153.6,484.7 152.9,487.1 152.1,489.5 152.1,491.8 151.3,494.2 151.3,496.6 150.5,499.8 150.5,502.1 150.5,504.5 150.5,506.9 
	150.5,509.3 150.5,511.6 150.5,514 151.3,516.4 151.3,518.8 152.1,521.1 152.1,523.5 152.9,525.9 153.6,528.3 153.6,530.6 
	154.4,533 155.2,535.4 156,537.8 156.8,539.4 156.8,541.7 157.6,544.1 158.4,546.5 158.4,548.9 158.4,551.2 159.2,553.6 159.2,556 
	159.2,558.4 159.2,560.7 159.2,563.1 158.4,565.5 158.4,567.9 157.6,570.2 157.6,572.6 156.8,575 156,577.4 155.2,579 154.4,581.3 
	153.6,583.7 152.1,586.1 151.3,587.7 150.5,590 148.9,592.4 147.3,594 145.7,596.4 144.9,598 143.4,599.5 141.8,601.9 139.4,603.5 
	137.8,605.1 136.2,606.7 134.6,608.3 132.3,609.8 130.7,611.4 128.3,613 125.9,614.6 124.3,616.2 122,617.8 119.6,619.3 
	117.2,620.9 115.6,622.5 113.3,624.1 110.9,625.7 108.5,627.3 105.3,628.8 103,631.2 100.6,632.8 98.2,634.4 95,636 92.7,638.4 
	90.3,639.9 87.1,642.3 84.7,643.9 81.6,646.3 79.2,647.9 76,650.2 73.7,652.6 70.5,655 67.3,656.6 67.3,656.6 64.9,658.9 
	61.8,661.3 58.6,663.7 56.2,666.1 53.1,668.4 49.9,670.8 46.7,673.2 44.4,675.6 41.2,678 38.8,680.3 36.4,681.9 34.1,684.3 
	31.7,685.9 30.1,688.2 27.7,689.8 26.1,691.4 24.6,693 23,694.6 21.4,696.2 19.8,697 18.2,698.5 16.6,700.1 15.8,701.7 14.3,703.3 
	12.7,704.9 11.9,706.5 10.3,708 9.5,709.6 8.7,711.2 7.1,712.8 6.3,714.4 5.5,716 4.8,718.3 4,720.7 3.2,723.9 3.2,727.1 3.2,730.2 
	3.2,733.4 4,735.8 5.5,738.9 6.3,741.3 8.7,743.7 10.3,746.1 12.7,748.4 15,750 17.4,752.4 20.6,754 23,754.8 26.1,756.4 
	30.1,757.2 33.3,757.2 36.4,757.2 40.4,757.9 42,757.9 43.6,757.2 45.9,757.2 47.5,757.2 49.9,757.2 51.5,757.2 53.1,756.4 
	55.4,756.4 57.8,756.4 59.4,755.6 61.8,755.6 64.2,754.8 65.7,754.8 68.1,754.8 70.5,754 72.9,754 75.2,753.2 77.6,753.2 80,752.4 
	82.4,752.4 84.7,751.6 87.1,751.6 90.3,750.8 92.7,750.8 95,750 98.2,750 100.6,749.2 103.8,748.4 106.9,748.4 110.1,747.6 
	112.5,746.9 115.6,746.9 118.8,746.1 122,746.1 125.1,745.3 129.1,744.5 132.3,743.7 135.4,743.7 138.6,742.9 142.6,742.1 
	145.7,742.1 149.7,741.3 152.9,740.5 156.8,740.5 160,739.7 163.9,738.9 167.1,738.1 171.1,738.1 175,737.4 179,736.6 183,736.6 
	186.1,735.8 190.1,735 194,735 198,734.2 202,733.4 205.9,733.4 209.9,732.6 213.8,732.6 217.8,731.8 221.8,731 226.5,731 
	230.5,730.2 234.4,730.2 238.4,729.4 243.1,728.6 247.1,728.6 251.1,727.8 255.8,727.8 259.8,727.1 263.7,727.1 268.5,726.3 
	272.4,726.3 277.2,725.5 281.2,725.5 285.9,725.5 289.9,724.7 294.6,724.7 299.4,724.7 303.3,724.7 308.1,724.7 312,724.7 
	316.8,724.7 321.6,725.5 325.5,725.5 330.3,725.5 335,726.3 339.8,727.1 343.7,727.1 348.5,727.8 353.2,728.6 357.2,729.4 
	361.9,730.2 366.7,731 371.4,731.8 375.4,733.4 380.2,734.2 384.9,735 388.9,735.8 393.6,736.6 397.6,737.4 401.5,738.1 
	405.5,738.9 409.5,739.7 413.4,740.5 417.4,741.3 420.6,742.1 423.7,742.9 427.7,743.7 430.8,743.7 433.2,744.5 436.4,744.5 
	439.6,745.3 441.9,745.3 445.1,746.1 447.5,746.1 449.9,746.1 453,746.9 455.4,746.9 457.8,746.9 460.2,746.9 463.3,746.1 
	465.7,746.1 468.1,746.1 470.4,745.3 472,744.5 474.4,744.5 476.8,743.7 478.4,742.9 480.7,742.1 483.1,740.5 484.7,739.7 
	486.3,738.1 488.7,737.4 490.2,735.8 491.8,734.2 493.4,732.6 495,731 496.6,729.4 498.2,727.8 499.8,726.3 501.3,724.7 
	502.9,722.3 503.7,720.7 505.3,718.3 506.9,716.8 507.7,714.4 509.3,712 510,710.4 511.6,708 512.4,705.7 514,703.3 514.8,700.9 
	516.4,698.5 517.2,696.2 518.8,693.8 519.6,690.6 521.1,688.2 521.9,685.9 522.7,682.7 524.3,680.3 525.1,678 526.7,674.8 
	527.5,671.6 528.3,669.2 529.8,666.1 530.6,662.9 531.4,659.7 532.2,656.6 533,653.4 533.8,650.2 534.6,647.1 535.4,643.9 
	536.2,640.7 537,636.8 537,633.6 537.8,629.6 537.8,626.5 537.8,622.5 538.6,619.3 538.6,615.4 538.6,612.2 537.8,608.3 
	537.8,605.1 537.8,601.1 537,597.2 537,594 536.2,590 535.4,586.1 534.6,582.9 533.8,579 533,575 531.4,571.8 530.6,567.9 
	529.8,563.9 528.3,559.9 527.5,556.8 526.7,552.8 525.1,548.9 524.3,544.9 523.5,540.9 521.9,537 521.1,533 520.3,529.1 
	518.8,525.1 518,520.3 517.2,516.4 516.4,512.4 515.6,508.5 514,504.5 513.2,500.5 512.4,496.6 512.4,492.6 511.6,489.5 
	510.8,486.3 510,482.3 510,480 509.3,476.8 509.3,473.6 509.3,471.2 508.5,468.9 508.5,465.7 508.5,463.3 508.5,460.2 508.5,457.8 
	508.5,455.4 508.5,453 508.5,449.9 509.3,447.5 509.3,445.1 509.3,442.7 510,439.6 510.8,437.2 511.6,434.8 511.6,432.4 
	512.4,430.1 513.2,427.7 514.8,425.3 515.6,423.7 516.4,421.3 518,419 518.8,416.6 520.3,414.2 521.1,411.8 522.7,409.5 
	524.3,407.1 525.1,404.7 526.7,403.1 528.3,400.8 529.1,398.4 530.6,396.8 531.4,395.2 533,392.8 533.8,391.2 535.4,389.7 
	536.2,388.1 537.8,386.5 538.6,384.9 540.1,383.3 541.7,381.7 542.5,380.2 544.1,379.4 546.5,377 549.6,374.6 551.2,373 552.8,373 
	554.4,372.2 556,371.4 557.6,370.7 559.2,370.7 560.7,370.7 562.3,369.9 564.7,369.9 567.9,369.9 570.2,369.9 573.4,370.7 
	576.6,371.4 579.7,372.2 582.1,373.8 585.3,374.6 588.5,376.2 590.8,377 592.4,377.8 594,378.6 595.6,378.6 598,379.4 599.5,380.2 
	601.1,380.2 603.5,381 605.1,381.7 607.5,381.7 609,382.5 611.4,382.5 613,383.3 615.4,383.3 617.8,383.3 619.3,384.1 621.7,384.1 
	624.1,384.1 626.5,384.9 628.8,384.9 631.2,384.9 633.6,385.7 636,385.7 638.4,385.7 641.5,385.7 643.9,385.7 646.3,386.5 
	649.4,386.5 651.8,386.5 654.2,386.5 657.4,386.5 660.5,386.5 662.9,386.5 666.1,386.5 669.2,387.3 671.6,387.3 674.8,387.3 
	678,387.3 681.1,387.3 684.3,387.3 687.5,387.3 691.4,386.5 694.6,386.5 697.8,386.5 700.9,386.5 704.9,386.5 708,386.5 712,386.5 
	715.2,386.5 719.1,386.5 723.1,386.5 726.3,385.7 730.2,385.7 734.2,385.7 737.4,385.7 741.3,385.7 745.3,385.7 749.2,385.7 
	753.2,385.7 757.2,384.9 761.1,384.9 765.1,384.9 769,384.9 773,384.9 777,384.9 781.7,384.1 785.7,384.1 789.6,384.1 793.6,384.1 
	797.5,383.3 801.5,383.3 801.5,383.3 806.3,383.3 810.2,383.3 815,382.5 818.9,382.5 822.9,382.5 827.6,381.7 831.6,381.7 
	836.4,381.7 840.3,381 845.1,381 849,381 853.8,380.2 857.7,380.2 861.7,380.2 865.7,379.4 869.6,379.4 873.6,379.4 876.7,379.4 
	879.9,379.4 883.1,378.6 886.2,378.6 889.4,378.6 891.8,378.6 895,378.6 897.3,378.6 900.5,378.6 902.9,378.6 906,378.6 
	908.4,378.6 910.8,378.6 913.2,378.6 915.6,378.6 917.1,378.6 919.5,378.6 921.1,378.6 923.5,378.6 925.1,378.6 928.2,378.6 
	931.4,378.6 934.6,378.6 936.9,379.4 939.3,379.4 941.7,380.2 944.1,381 945.6,381.7 948,382.5 949.6,384.1 951.2,385.7 
	952.8,387.3 953.6,388.9 955.2,390.5 955.9,392 957.5,393.6 958.3,395.2 959.1,396.8 960.7,398.4 962.3,400 963.9,400.8 
	965.4,401.5 967,402.3 968.6,403.1 971,403.1 972.6,403.9 975,403.9 976.5,403.9 978.9,403.1 981.3,403.1 983.7,402.3 986,402.3 
	988.4,401.5 991.6,400.8 994,399.2 997.1,398.4 1000.3,396.8 1002.7,396 1004.3,395.2 1006.6,394.4 1008.2,393.6 1009.8,392.8 
	1012.2,392 1013.8,391.2 1015.3,390.5 1017.7,389.7 1020.1,388.9 1021.7,388.1 1024.1,387.3 1026.4,386.5 1028.8,385.7 
	1031.2,384.1 1032.8,383.3 1035.1,382.5 1038.3,381.7 1040.7,380.2 1043.1,379.4 1045.4,377.8 1048.6,377 1051,375.4 1054.2,374.6 
	1056.5,373 1059.7,372.2 1062.9,370.7 1066,369.1 1068.4,368.3 1071.6,366.7 1074.7,365.1 1077.9,364.3 1081.1,362.7 1084.2,361.2 
	1087.4,359.6 1090.6,358 1093.8,356.4 1096.9,354.8 1100.1,353.2 1103.3,350.9 1107.2,349.3 1110.4,347.7 1113.6,345.3 
	1116.7,343.7 1119.9,341.4 1123.8,339.8 1127,337.4 1130.2,335 1133.4,332.6 1137.3,331.1 1140.5,328.7 1143.6,326.3 1146.8,323.9 
	1150.8,321.6 1153.9,318.4 1157.1,316 1160.3,313.6 1164.2,311.3 1167.4,308.9 1170.6,305.7 1174.5,303.3 1177.7,301 1180.9,297.8 
	1184,295.4 1188,292.2 1191.2,289.9 1194.3,286.7 1197.5,284.3 1200.7,281.2 1203.8,278 1207.8,275.6 1211,272.4 1214.1,269.3 
	1217.3,266.1 1221.3,262.9 1224.4,259.8 1227.6,256.6 1230.8,253.4 1233.9,250.3 1237.1,247.1 1240.3,243.9 1244.2,240.8 
	1247.4,237.6 1250.6,233.6 1253.7,230.5 1256.9,227.3 1260.1,223.3 1263.2,221 1265.6,217.8 1268.8,213.8 1272.7,210.7 
	1275.9,207.5 1279.1,203.5 1282.2,200.4 1285.4,197.2 1289.4,194 1292.5,190.9 1296.5,186.9 1299.7,183.7 1303.6,181.4 
	1307.6,178.2 1310.8,175 1314.7,171.9 1318.7,169.5 1322.6,166.3 1326.6,163.9 1330.6,160.8 1334.5,158.4 1339.3,156 1343.2,153.6 
	1347.2,151.3 1351.2,149.7 1355.9,147.3 1360.7,144.9 1364.6,143.4 1369.4,141 1373.3,139.4 1377.3,137 1381.2,135.4 1385.2,133.8 
	1389.2,132.3 1393.1,130.7 1396.3,129.1 1399.5,128.3 1402.6,126.7 1406.6,125.1 1409,123.6 1412.1,122.8 1414.5,121.2 
	1417.7,120.4 1420.1,118.8 1423.2,118 1425.6,117.2 1428,115.6 1429.6,114.8 1431.9,114 1433.5,113.3 1435.9,112.5 1437.5,111.7 
	1439.9,110.1 1442.2,108.5 1445.4,106.9 1447,105.3 1449.4,103.8 1451.7,102.2 1453.3,99.8 1454.9,97.4 1456.5,95 1457.3,92.7 
	1458.1,90.3 1458.9,87.9 1459.7,85.5 1459.7,82.4 1459.7,80 1458.9,76.8 1458.9,74.4 1458.1,71.3 1457.3,68.1 1456.5,64.9 
	1454.9,62.6 1454.1,59.4 1453.3,57 1451.7,54.6 1451.7,52.3 1450.9,50.7 1450.2,49.1 1449.4,47.5 1447.8,44.4 1447,42.8 
	1446.2,41.2 1445.4,38.8 1444.6,37.2 1443.8,35.6 1443,34.1 1443,32.5 1441.4,29.3 1439.9,26.9 1438.3,23.8 1436.7,21.4 1435.1,19 
	1433.5,16.6 1431.1,15 1428.8,12.7 1427.2,11.1 1424.8,9.5 1422.4,7.9 1419.3,7.1 1416.9,6.3 1413.7,4.8 1411.3,4.8 1409.8,4 
	1408.2,4 1406.6,4 1405,3.2 1403.4,3.2 1401.8,3.2 1398.7,3.2 1397.1,3.2 1394.7,3.2 1393.1,3.2 1391.5,4 1389.2,4 1387.6,4 
	1385.2,4.8 1383.6,5.5 1381.2,5.5 1379.7,6.3 1377.3,7.1 1374.9,7.9 1373.3,7.9 1371,8.7 1369.4,9.5 1367,11.1 1364.6,11.9 
	1363,12.7 1360.7,13.5 1358.3,14.3 1355.9,15 1353.5,16.6 1351.2,17.4 1348.8,18.2 1346.4,19 1344,20.6 1341.6,21.4 1339.3,22.2 
	1336.1,23.8 1333.7,24.6 1330.6,25.3 1328.2,26.9 1325,27.7 1322.6,29.3 1319.5,30.1 1316.3,31.7 1313.1,32.5 1310,34.1 
	1306.8,35.6 1303.6,36.4 1300.5,38 1297.3,39.6 1294.1,40.4 1291,42 1287.8,43.6 1283.8,44.4 1280.7,45.9 1277.5,47.5 1273.5,49.1 
	1270.4,49.9 1266.4,51.5 1263.2,53.1 1259.3,54.6 1256.1,55.4 1252.2,57 1248.2,58.6 1245,60.2 1241.1,61.8 1237.1,62.6 
	1233.1,64.2 1229.2,65.7 1225.2,67.3 1221.3,68.1 1217.3,69.7 1213.3,71.3 1209.4,72.9 1205.4,73.7 1201.5,75.2 1197.5,76.8 
	1193.5,77.6 1189.6,79.2 1184.8,80 1180.9,81.6 1176.9,82.4 1172.2,83.2 1168.2,84.7 1163.4,85.5 1159.5,86.3 1154.7,87.1 
	1150.8,87.9 1146.8,87.9 1142.1,88.7 1138.1,88.7 1133.4,89.5 1128.6,89.5 1123.8,89.5 1119.9,90.3 1115.1,90.3 1111.2,90.3 
	1106.4,90.3 "/>
<polyline vector-effect="non-scaling-stroke" class="st1" points="1103.3,90.3 1098.5,90.3 1093.8,90.3 1089,90.3 1084.2,90.3 
	1079.5,90.3 1075.5,90.3 1070.8,90.3 1066,90.3 1061.3,90.3 1055.7,90.3 1051,90.3 1046.2,90.3 1041.5,90.3 1036.7,90.3 1032,90.3 
	1027.2,90.3 1022.5,90.3 1017.7,90.3 1013,90.3 1008.2,90.3 1003.5,89.5 998.7,89.5 993.2,89.5 988.4,89.5 983.7,89.5 978.9,89.5 
	974.2,89.5 969.4,89.5 964.7,89.5 959.1,89.5 954.4,88.7 949.6,88.7 944.9,88.7 940.1,88.7 935.4,88.7 929.8,88.7 925.1,87.9 
	920.3,87.9 915.6,87.9 910.8,87.9 906,87.1 901.3,87.1 897.3,86.3 891.8,86.3 887,85.5 882.3,84.7 877.5,84 872.8,83.2 868,82.4 
	863.3,81.6 857.7,80.8 853.8,80 849,78.4 844.3,77.6 839.5,76 834.8,75.2 829.2,74.4 824.5,72.9 819.7,72.1 815,70.5 810.2,69.7 
	805.5,68.9 800.7,67.3 796,66.5 791.2,65.7 785.7,64.2 780.9,63.4 776.2,62.6 771.4,61.8 766.7,60.2 761.9,59.4 756.4,58.6 
	751.6,57.8 746.9,57 742.1,56.2 737.4,55.4 731.8,54.6 727.1,53.9 722.3,53.9 717.6,53.1 712,52.3 707.3,52.3 702.5,51.5 697,50.7 
	692.2,50.7 687.5,49.9 682.7,49.9 677.2,49.9 672.4,49.1 667.7,49.1 662.1,49.1 657.4,49.1 652.6,49.1 647.1,49.1 642.3,49.1 
	637.6,49.9 632,49.9 627.3,49.9 622.5,50.7 617.8,50.7 612.2,50.7 607.5,51.5 602.7,51.5 597.2,51.5 592.4,52.3 587.7,52.3 
	582.1,53.1 578.2,53.1 572.6,53.9 567.9,53.9 563.1,54.6 557.6,54.6 552.8,55.4 548.1,55.4 542.5,56.2 537.8,56.2 533,57 527.5,57 
	522.7,57.8 518,57.8 512.4,58.6 507.7,59.4 502.9,59.4 497.4,60.2 492.6,61 488.7,61.8 483.9,62.6 479.2,62.6 474.4,63.4 
	470.4,64.2 466.5,64.9 462.5,65.7 458.6,66.5 454.6,67.3 451.4,68.1 447.5,68.9 444.3,69.7 440.4,70.5 437.2,71.3 434,72.1 
	430.8,72.9 428.5,73.7 425.3,74.4 422.9,75.2 419.8,76 417.4,76.8 415,77.6 412.6,78.4 410.3,78.4 408.7,79.2 406.3,80 404.7,80.8 
	402.3,81.6 400.8,82.4 399.2,84 396.8,84.7 395.2,85.5 393.6,86.3 392,87.9 390.5,88.7 389.7,90.3 388.1,91.1 386.5,92.7 
	385.7,94.2 384.1,95.8 383.3,96.6 382.5,98.2 381.7,99.8 381,101.4 380.2,103 378.6,106.1 377,109.3 376.2,113.3 375.4,116.4 
	373.8,119.6 373,122.8 371.4,125.9 370.7,128.3 369.9,129.9 369.1,131.5 368.3,132.3 366.7,133.8 365.9,135.4 365.1,137 
	363.5,138.6 362.7,139.4 361.2,141 360.4,142.6 358.8,143.4 357.2,144.9 355.6,146.5 354,147.3 353.2,148.9 351.6,149.7 
	349.3,151.3 347.7,152.1 346.1,153.6 344.5,154.4 342.9,156 340.6,156.8 339,157.6 336.6,159.2 335,160 332.6,160.8 331.1,162.4 
	328.7,163.2 326.3,163.9 323.9,164.7 322.3,166.3 320,167.1 317.6,167.9 315.2,169.5 312.8,170.3 310.5,171.1 308.1,172.7 
	305.7,173.4 303.3,175 301,175.8 298.6,177.4 296.2,179 293.8,180.6 291.5,182.2 289.1,183.7 286.7,185.3 284.3,186.9 282,188.5 
	280.4,190.9 278,192.5 275.6,194.8 274,197.2 271.7,199.6 270.1,202 268.5,204.3 266.1,206.7 264.5,209.1 262.9,211.5 261.4,213.8 
	259.8,217 259,219.4 257.4,222.6 255.8,224.9 255,228.1 253.4,231.3 251.9,233.6 251.1,236.8 249.5,240 248.7,243.1 247.1,246.3 
	246.3,249.5 244.7,252.6 243.9,255.8 242.4,259 240.8,262.9 240,266.1 238.4,269.3 236.8,273.2 236,276.4 234.4,279.6 232.8,283.5 
	232.1,286.7 230.5,290.7 228.9,294.6 227.3,297.8 226.5,301.8 224.9,304.9 223.3,308.9 221.8,312.8 220.2,316.8 218.6,320.8 
	217,323.9 216.2,327.9 214.6,331.8 213,335.8 211.5,339.8 209.9,343.7 208.3,347.7 206.7,351.6 205.1,355.6 203.5,359.6 202,363.5 
	200.4,367.5 198.8,371.4 197.2,375.4 194.8,380.2 193.2,384.1 191.7,388.1 190.1,392 188.5,396 186.9,400 185.3,404.7 183,408.7 
	181.4,412.6 179.8,416.6 178.2,421.3 176.6,425.3 175,429.3 172.7,433.2 171.1,437.2 169.5,440.4 167.9,444.3 167.1,448.3 
	165.5,451.4 163.9,454.6 162.4,458.6 161.6,461.7 160,464.9 159.2,467.3 157.6,470.4 156.8,473.6 156,476 155.2,479.2 154.4,481.5 
	153.6,484.7 152.9,487.1 152.1,489.5 152.1,491.8 151.3,494.2 151.3,496.6 150.5,499.8 150.5,502.1 150.5,504.5 150.5,506.9 
	150.5,509.3 150.5,511.6 150.5,514 151.3,516.4 151.3,518.8 152.1,521.1 152.1,523.5 152.9,525.9 153.6,528.3 153.6,530.6 
	154.4,533 155.2,535.4 156,537.8 156.8,539.4 156.8,541.7 157.6,544.1 158.4,546.5 158.4,548.9 158.4,551.2 159.2,553.6 159.2,556 
	159.2,558.4 159.2,560.7 159.2,563.1 158.4,565.5 158.4,567.9 157.6,570.2 157.6,572.6 156.8,575 156,577.4 155.2,579 154.4,581.3 
	153.6,583.7 152.1,586.1 151.3,587.7 150.5,590 148.9,592.4 147.3,594 145.7,596.4 144.9,598 143.4,599.5 141.8,601.9 139.4,603.5 
	137.8,605.1 136.2,606.7 134.6,608.3 132.3,609.8 130.7,611.4 128.3,613 125.9,614.6 124.3,616.2 122,617.8 119.6,619.3 
	117.2,620.9 115.6,622.5 113.3,624.1 110.9,625.7 108.5,627.3 105.3,628.8 103,631.2 100.6,632.8 98.2,634.4 95,636 92.7,638.4 
	90.3,639.9 87.1,642.3 84.7,643.9 81.6,646.3 79.2,647.9 76,650.2 73.7,652.6 70.5,655 67.3,656.6 "/>
<polyline vector-effect="non-scaling-stroke" class="st2" points="67.3,656.6 64.9,658.9 61.8,661.3 58.6,663.7 56.2,666.1 
	53.1,668.4 49.9,670.8 46.7,673.2 44.4,675.6 41.2,678 38.8,680.3 36.4,681.9 34.1,684.3 31.7,685.9 30.1,688.2 27.7,689.8 
	26.1,691.4 24.6,693 23,694.6 21.4,696.2 19.8,697 18.2,698.5 16.6,700.1 15.8,701.7 14.3,703.3 12.7,704.9 11.9,706.5 10.3,708 
	9.5,709.6 8.7,711.2 7.1,712.8 6.3,714.4 5.5,716 4.8,718.3 4,720.7 3.2,723.9 3.2,727.1 3.2,730.2 3.2,733.4 4,735.8 5.5,738.9 
	6.3,741.3 8.7,743.7 10.3,746.1 12.7,748.4 15,750 17.4,752.4 20.6,754 23,754.8 26.1,756.4 30.1,757.2 33.3,757.2 36.4,757.2 
	40.4,757.9 42,757.9 43.6,757.2 45.9,757.2 47.5,757.2 49.9,757.2 51.5,757.2 53.1,756.4 55.4,756.4 57.8,756.4 59.4,755.6 
	61.8,755.6 64.2,754.8 65.7,754.8 68.1,754.8 70.5,754 72.9,754 75.2,753.2 77.6,753.2 80,752.4 82.4,752.4 84.7,751.6 87.1,751.6 
	90.3,750.8 92.7,750.8 95,750 98.2,750 100.6,749.2 103.8,748.4 106.9,748.4 110.1,747.6 112.5,746.9 115.6,746.9 118.8,746.1 
	122,746.1 125.1,745.3 129.1,744.5 132.3,743.7 135.4,743.7 138.6,742.9 142.6,742.1 145.7,742.1 149.7,741.3 152.9,740.5 
	156.8,740.5 160,739.7 163.9,738.9 167.1,738.1 171.1,738.1 175,737.4 179,736.6 183,736.6 186.1,735.8 190.1,735 194,735 
	198,734.2 202,733.4 205.9,733.4 209.9,732.6 213.8,732.6 217.8,731.8 221.8,731 226.5,731 230.5,730.2 234.4,730.2 238.4,729.4 
	243.1,728.6 247.1,728.6 251.1,727.8 255.8,727.8 259.8,727.1 263.7,727.1 268.5,726.3 272.4,726.3 277.2,725.5 281.2,725.5 
	285.9,725.5 289.9,724.7 294.6,724.7 299.4,724.7 303.3,724.7 308.1,724.7 312,724.7 316.8,724.7 321.6,725.5 325.5,725.5 
	330.3,725.5 335,726.3 339.8,727.1 343.7,727.1 348.5,727.8 353.2,728.6 357.2,729.4 361.9,730.2 366.7,731 371.4,731.8 
	375.4,733.4 380.2,734.2 384.9,735 388.9,735.8 393.6,736.6 397.6,737.4 401.5,738.1 405.5,738.9 409.5,739.7 413.4,740.5 
	417.4,741.3 420.6,742.1 423.7,742.9 427.7,743.7 430.8,743.7 433.2,744.5 436.4,744.5 439.6,745.3 441.9,745.3 445.1,746.1 
	447.5,746.1 449.9,746.1 453,746.9 455.4,746.9 457.8,746.9 460.2,746.9 463.3,746.1 465.7,746.1 468.1,746.1 470.4,745.3 
	472,744.5 474.4,744.5 476.8,743.7 478.4,742.9 480.7,742.1 483.1,740.5 484.7,739.7 486.3,738.1 488.7,737.4 490.2,735.8 
	491.8,734.2 493.4,732.6 495,731 496.6,729.4 498.2,727.8 499.8,726.3 501.3,724.7 502.9,722.3 503.7,720.7 505.3,718.3 
	506.9,716.8 507.7,714.4 509.3,712 510,710.4 511.6,708 512.4,705.7 514,703.3 514.8,700.9 516.4,698.5 517.2,696.2 518.8,693.8 
	519.6,690.6 521.1,688.2 521.9,685.9 522.7,682.7 524.3,680.3 525.1,678 526.7,674.8 527.5,671.6 528.3,669.2 529.8,666.1 
	530.6,662.9 531.4,659.7 532.2,656.6 533,653.4 533.8,650.2 534.6,647.1 535.4,643.9 536.2,640.7 537,636.8 537,633.6 537.8,629.6 
	537.8,626.5 537.8,622.5 538.6,619.3 538.6,615.4 538.6,612.2 537.8,608.3 537.8,605.1 537.8,601.1 537,597.2 537,594 536.2,590 
	535.4,586.1 534.6,582.9 533.8,579 533,575 531.4,571.8 530.6,567.9 529.8,563.9 528.3,559.9 527.5,556.8 526.7,552.8 525.1,548.9 
	524.3,544.9 523.5,540.9 521.9,537 521.1,533 520.3,529.1 518.8,525.1 518,520.3 517.2,516.4 516.4,512.4 515.6,508.5 514,504.5 
	513.2,500.5 512.4,496.6 512.4,492.6 511.6,489.5 510.8,486.3 510,482.3 510,480 509.3,476.8 509.3,473.6 509.3,471.2 508.5,468.9 
	508.5,465.7 508.5,463.3 508.5,460.2 508.5,457.8 508.5,455.4 508.5,453 508.5,449.9 509.3,447.5 509.3,445.1 509.3,442.7 
	510,439.6 510.8,437.2 511.6,434.8 511.6,432.4 512.4,430.1 513.2,427.7 514.8,425.3 515.6,423.7 516.4,421.3 518,419 518.8,416.6 
	520.3,414.2 521.1,411.8 522.7,409.5 524.3,407.1 525.1,404.7 526.7,403.1 528.3,400.8 529.1,398.4 530.6,396.8 531.4,395.2 
	533,392.8 533.8,391.2 535.4,389.7 536.2,388.1 537.8,386.5 538.6,384.9 540.1,383.3 541.7,381.7 542.5,380.2 544.1,379.4 
	546.5,377 549.6,374.6 551.2,373 552.8,373 554.4,372.2 556,371.4 557.6,370.7 559.2,370.7 560.7,370.7 562.3,369.9 564.7,369.9 
	567.9,369.9 570.2,369.9 573.4,370.7 576.6,371.4 579.7,372.2 582.1,373.8 585.3,374.6 588.5,376.2 590.8,377 592.4,377.8 
	594,378.6 595.6,378.6 598,379.4 599.5,380.2 601.1,380.2 603.5,381 605.1,381.7 607.5,381.7 609,382.5 611.4,382.5 613,383.3 
	615.4,383.3 617.8,383.3 619.3,384.1 621.7,384.1 624.1,384.1 626.5,384.9 628.8,384.9 631.2,384.9 633.6,385.7 636,385.7 
	638.4,385.7 641.5,385.7 643.9,385.7 646.3,386.5 649.4,386.5 651.8,386.5 654.2,386.5 657.4,386.5 660.5,386.5 662.9,386.5 
	666.1,386.5 669.2,387.3 671.6,387.3 674.8,387.3 678,387.3 681.1,387.3 684.3,387.3 687.5,387.3 691.4,386.5 694.6,386.5 
	697.8,386.5 700.9,386.5 704.9,386.5 708,386.5 712,386.5 715.2,386.5 719.1,386.5 723.1,386.5 726.3,385.7 730.2,385.7 
	734.2,385.7 737.4,385.7 741.3,385.7 745.3,385.7 749.2,385.7 753.2,385.7 757.2,384.9 761.1,384.9 765.1,384.9 769,384.9 
	773,384.9 777,384.9 781.7,384.1 785.7,384.1 789.6,384.1 793.6,384.1 797.5,383.3 801.5,383.3 "/>
<polyline vector-effect="non-scaling-stroke" class="st3" points="801.5,383.3 806.3,383.3 810.2,383.3 815,382.5 818.9,382.5 
	822.9,382.5 827.6,381.7 831.6,381.7 836.4,381.7 840.3,381 845.1,381 849,381 853.8,380.2 857.7,380.2 861.7,380.2 865.7,379.4 
	869.6,379.4 873.6,379.4 876.7,379.4 879.9,379.4 883.1,378.6 886.2,378.6 889.4,378.6 891.8,378.6 895,378.6 897.3,378.6 
	900.5,378.6 902.9,378.6 906,378.6 908.4,378.6 910.8,378.6 913.2,378.6 915.6,378.6 917.1,378.6 919.5,378.6 921.1,378.6 
	923.5,378.6 925.1,378.6 928.2,378.6 931.4,378.6 934.6,378.6 936.9,379.4 939.3,379.4 941.7,380.2 944.1,381 945.6,381.7 
	948,382.5 949.6,384.1 951.2,385.7 952.8,387.3 953.6,388.9 955.2,390.5 955.9,392 957.5,393.6 958.3,395.2 959.1,396.8 
	960.7,398.4 962.3,400 963.9,400.8 965.4,401.5 967,402.3 968.6,403.1 971,403.1 972.6,403.9 975,403.9 976.5,403.9 978.9,403.1 
	981.3,403.1 983.7,402.3 986,402.3 988.4,401.5 991.6,400.8 994,399.2 997.1,398.4 1000.3,396.8 1002.7,396 1004.3,395.2 
	1006.6,394.4 1008.2,393.6 1009.8,392.8 1012.2,392 1013.8,391.2 1015.3,390.5 1017.7,389.7 1020.1,388.9 1021.7,388.1 
	1024.1,387.3 1026.4,386.5 1028.8,385.7 1031.2,384.1 1032.8,383.3 1035.1,382.5 1038.3,381.7 1040.7,380.2 1043.1,379.4 
	1045.4,377.8 1048.6,377 1051,375.4 1054.2,374.6 1056.5,373 1059.7,372.2 1062.9,370.7 1066,369.1 1068.4,368.3 1071.6,366.7 
	1074.7,365.1 1077.9,364.3 1081.1,362.7 1084.2,361.2 1087.4,359.6 1090.6,358 1093.8,356.4 1096.9,354.8 1100.1,353.2 
	1103.3,350.9 1107.2,349.3 1110.4,347.7 1113.6,345.3 1116.7,343.7 1119.9,341.4 1123.8,339.8 1127,337.4 1130.2,335 1133.4,332.6 
	1137.3,331.1 1140.5,328.7 1143.6,326.3 1146.8,323.9 1150.8,321.6 1153.9,318.4 1157.1,316 1160.3,313.6 1164.2,311.3 
	1167.4,308.9 1170.6,305.7 1174.5,303.3 1177.7,301 1180.9,297.8 1184,295.4 1188,292.2 1191.2,289.9 1194.3,286.7 1197.5,284.3 
	1200.7,281.2 1203.8,278 1207.8,275.6 1211,272.4 1214.1,269.3 1217.3,266.1 1221.3,262.9 1224.4,259.8 1227.6,256.6 1230.8,253.4 
	1233.9,250.3 1237.1,247.1 1240.3,243.9 1244.2,240.8 1247.4,237.6 1250.6,233.6 1253.7,230.5 1256.9,227.3 1260.1,223.3 
	1263.2,221 1265.6,217.8 1268.8,213.8 1272.7,210.7 1275.9,207.5 1279.1,203.5 1282.2,200.4 1285.4,197.2 1289.4,194 1292.5,190.9 
	1296.5,186.9 1299.7,183.7 1303.6,181.4 1307.6,178.2 1310.8,175 1314.7,171.9 1318.7,169.5 1322.6,166.3 1326.6,163.9 
	1330.6,160.8 1334.5,158.4 1339.3,156 1343.2,153.6 1347.2,151.3 1351.2,149.7 1355.9,147.3 1360.7,144.9 1364.6,143.4 1369.4,141 
	1373.3,139.4 1377.3,137 1381.2,135.4 1385.2,133.8 1389.2,132.3 1393.1,130.7 1396.3,129.1 1399.5,128.3 1402.6,126.7 
	1406.6,125.1 1409,123.6 1412.1,122.8 1414.5,121.2 1417.7,120.4 1420.1,118.8 1423.2,118 1425.6,117.2 1428,115.6 1429.6,114.8 
	1431.9,114 1433.5,113.3 1435.9,112.5 1437.5,111.7 1439.9,110.1 1442.2,108.5 1445.4,106.9 1447,105.3 1449.4,103.8 1451.7,102.2 
	1453.3,99.8 1454.9,97.4 1456.5,95 1457.3,92.7 1458.1,90.3 1458.9,87.9 1459.7,85.5 1459.7,82.4 1459.7,80 1458.9,76.8 
	1458.9,74.4 1458.1,71.3 1457.3,68.1 1456.5,64.9 1454.9,62.6 1454.1,59.4 1453.3,57 1451.7,54.6 1451.7,52.3 1450.9,50.7 
	1450.2,49.1 1449.4,47.5 1447.8,44.4 1447,42.8 1446.2,41.2 1445.4,38.8 1444.6,37.2 1443.8,35.6 1443,34.1 1443,32.5 1441.4,29.3 
	1439.9,26.9 1438.3,23.8 1436.7,21.4 1435.1,19 1433.5,16.6 1431.1,15 1428.8,12.7 1427.2,11.1 1424.8,9.5 1422.4,7.9 1419.3,7.1 
	1416.9,6.3 1413.7,4.8 1411.3,4.8 1409.8,4 1408.2,4 1406.6,4 1405,3.2 1403.4,3.2 1401.8,3.2 1398.7,3.2 1397.1,3.2 1394.7,3.2 
	1393.1,3.2 1391.5,4 1389.2,4 1387.6,4 1385.2,4.8 1383.6,5.5 1381.2,5.5 1379.7,6.3 1377.3,7.1 1374.9,7.9 1373.3,7.9 1371,8.7 
	1369.4,9.5 1367,11.1 1364.6,11.9 1363,12.7 1360.7,13.5 1358.3,14.3 1355.9,15 1353.5,16.6 1351.2,17.4 1348.8,18.2 1346.4,19 
	1344,20.6 1341.6,21.4 1339.3,22.2 1336.1,23.8 1333.7,24.6 1330.6,25.3 1328.2,26.9 1325,27.7 1322.6,29.3 1319.5,30.1 
	1316.3,31.7 1313.1,32.5 1310,34.1 1306.8,35.6 1303.6,36.4 1300.5,38 1297.3,39.6 1294.1,40.4 1291,42 1287.8,43.6 1283.8,44.4 
	1280.7,45.9 1277.5,47.5 1273.5,49.1 1270.4,49.9 1266.4,51.5 1263.2,53.1 1259.3,54.6 1256.1,55.4 1252.2,57 1248.2,58.6 
	1245,60.2 1241.1,61.8 1237.1,62.6 1233.1,64.2 1229.2,65.7 1225.2,67.3 1221.3,68.1 1217.3,69.7 1213.3,71.3 1209.4,72.9 
	1205.4,73.7 1201.5,75.2 1197.5,76.8 1193.5,77.6 1189.6,79.2 1184.8,80 1180.9,81.6 1176.9,82.4 1172.2,83.2 1168.2,84.7 
	1163.4,85.5 1159.5,86.3 1154.7,87.1 1150.8,87.9 1146.8,87.9 1142.1,88.7 1138.1,88.7 1133.4,89.5 1128.6,89.5 1123.8,89.5 
	1119.9,90.3 1115.1,90.3 1111.2,90.3 1106.4,90.3 1103.3,90.3 "/>
<circle id="minimapCarCircle" class="st4" cx="1104.8" cy="91.1" r="13.5"/>
</svg>
