<?xml version="1.0" encoding="utf-8"?>
<!-- Generator: Adobe Illustrator 27.5.0, SVG Export Plug-In . SVG Version: 6.00 Build 0)  -->
<svg version="1.1" id="Layer_1" xmlns="http://www.w3.org/2000/svg" x="0px" y="0px"
     viewBox="0 0 749.4 164.7" style="enable-background:new 0 0 749.4 164.7;" xml:space="preserve">
<style type="text/css">
	.st0{fill:none;stroke:#374151;stroke-width:2.1848;stroke-miterlimit:1.0924;}
	.st1{fill:none;stroke:#EF4444;stroke-width:0.5462;stroke-miterlimit:1.0924;}
	.st2{fill:none;stroke:#3B82F6;stroke-width:0.5462;stroke-miterlimit:1.0924;}
	.st3{fill:none;stroke:#FBBF24;stroke-width:0.5462;stroke-miterlimit:1.0924;}
	.st4{fill:#FFFFFF;stroke:#000000;stroke-width:3.5503;stroke-miterlimit:1.0924;}
</style>
<polygon vector-effect="non-scaling-stroke" class="st0" points="594.3,35.8 592.6,36.3 591.3,36.9 589.6,37.4 588,38 586.4,38.5 
	584.7,39.1 583.1,39.6 581.7,40.1 580.1,40.4 578.4,41 576.8,41.5 575.2,42.1 573.5,42.6 572.2,43.2 570.5,43.7 568.9,44.2 
	567.2,44.8 565.6,45.3 564,45.9 562.3,46.4 561,47 559.3,47.5 557.7,48.1 556,48.6 554.4,49.2 552.8,49.7 551.1,50.3 549.5,50.8 
	547.8,51.3 546.2,51.9 544.8,52.4 543.2,53 541.6,53.5 539.9,54.1 538.3,54.6 536.6,55.2 535,55.7 533.4,56.3 531.7,56.8 
	530.1,57.4 528.5,57.9 526.8,58.4 525.2,59 523.5,59.5 521.9,60.1 520.5,60.6 518.9,61.2 517.3,61.7 515.6,62.3 514,62.8 
	512.3,63.4 510.7,63.9 509.1,64.5 507.4,65 505.8,65.5 504.1,66.1 502.5,66.6 500.9,67.2 499.2,67.7 497.6,68.3 496,68.8 
	494.3,69.4 492.7,69.9 491.3,70.5 489.7,70.7 488.3,71.3 487.2,71.8 485.9,72.1 484.8,72.6 483.4,72.9 482.3,73.2 481.2,73.7 
	480.4,74 479.3,74.3 478.5,74.6 477.4,74.8 476.6,75.1 475.7,75.4 474.9,75.6 474.4,75.9 473.6,76.2 473,76.5 472.5,76.7 471.6,77 
	470.8,77.3 469.5,77.8 468.6,78.4 467.8,78.9 467,79.7 466.2,80.3 465.4,81.1 464.5,82.2 464.3,82.5 464,83 464,83.6 463.7,84.1 
	463.5,84.4 463.5,84.9 463.2,85.5 463.2,86 463.2,86.6 463.2,87.7 463.5,88.5 463.7,89.6 463.7,90.4 463.7,91.5 463.7,92.3 
	463.7,93.1 463.7,93.9 463.5,94.8 463.2,95.6 462.9,96.4 462.6,97.2 462.1,97.8 461.5,98.3 461,98.9 460.5,99.4 459.9,99.7 
	459.1,100.2 458.3,100.5 457.4,100.8 456.6,101 455.8,101.3 455,101.3 454.2,101.3 453.1,101.3 452,101.3 451.2,101.3 450.1,101 
	448.7,100.8 447.6,100.5 447.1,100.2 446.3,100 445.4,99.7 444.9,99.4 444.3,99.1 443.5,98.9 443,98.6 442.2,98.3 441.3,98 
	440.8,97.8 440,97.5 439.2,97.2 438.3,97 437.5,96.7 436.7,96.4 435.9,96.1 435.1,95.9 434.2,95.3 433.4,95 432.3,94.8 431.5,94.5 
	430.4,94.2 429.3,94.2 428.5,93.9 427.4,93.7 426.3,93.4 425.2,93.4 424.1,93.1 423,93.1 421.7,93.1 420.6,92.9 419.5,92.9 
	418.1,92.9 417,92.9 415.9,92.9 414.6,92.9 413.2,92.9 412.1,93.1 410.7,93.1 409.7,93.4 408.3,93.4 406.9,93.7 405.6,93.9 
	404.2,93.9 403.1,94.2 401.7,94.5 400.4,94.8 399,95 397.6,95.3 396.3,95.3 394.9,95.6 393.5,95.9 392.2,96.1 390.5,96.4 
	389.2,96.7 387.8,97 386.4,97.2 384.8,97.5 383.4,97.5 382.1,97.8 380.4,98 379.1,98.3 377.7,98.6 376.1,98.9 374.7,99.1 
	373.1,99.4 371.7,99.4 370.1,99.7 368.7,100 367.1,100.2 365.7,100.5 364,100.8 362.7,100.8 361.3,101 360.2,101.3 358.9,101.3 
	357.8,101.6 356.7,101.9 355.6,101.9 354.5,102.1 353.7,102.1 352.8,102.4 352,102.4 351.2,102.4 350.4,102.7 349.8,102.7 
	349,102.7 348.5,103 347.4,103.2 346.3,103.5 345.2,104.1 344.1,104.6 343.8,104.9 343.3,105.1 342.7,105.7 342.5,106 341.9,106.2 
	341.7,106.8 340.8,107.6 340.3,108.4 339.7,109.2 339.2,110.1 338.6,111.2 338.1,112 337.8,112.5 337.6,113.1 337.3,113.6 
	337,114.2 336.7,114.7 336.5,115.2 335.9,116.1 335.6,116.6 335.1,117.2 334.8,118 334.3,118.5 333.7,119.1 333.2,119.9 
	332.9,120.4 332.1,121 331.8,121.5 331,122.4 330.5,122.9 329.9,123.4 329.1,124 328.3,124.5 327.5,125.1 326.9,125.6 326.1,126.2 
	325,126.4 324.2,127 323.4,127.5 322.5,127.8 321.4,128.1 320.6,128.4 319.5,128.6 318.7,128.9 317.6,129.2 316.8,129.2 
	315.7,129.5 314.9,129.5 313.8,129.5 312.7,129.5 311.9,129.5 310.8,129.5 309.7,129.5 308.6,129.5 307.8,129.2 306.7,129.2 
	305.6,128.9 304.5,128.6 303.7,128.4 302.6,128.1 301.5,127.5 300.7,127.3 299.6,126.7 298.5,126.2 297.7,125.6 296.6,125.1 
	295.8,124.5 294.7,124 293.9,123.4 292.8,122.9 291.9,122.4 290.9,121.8 289.8,121.3 288.7,121 287.6,120.4 286.5,119.9 
	285.4,119.6 284.3,119.3 283.2,119.1 282.1,118.8 280.8,118.5 279.7,118.3 278.6,118 277.2,117.7 276.1,117.7 274.7,117.4 
	273.6,117.4 272.3,117.4 271.2,117.4 269.8,117.4 268.7,117.7 267.4,118 266.3,118.3 265.2,118.5 263.8,118.8 262.7,119.1 
	261.6,119.6 260.5,120.2 259.4,120.7 258.4,121.3 257.3,121.8 256.4,122.6 255.4,123.2 254.5,124 253.7,124.5 252.6,125.4 
	251.8,126.2 251,126.7 250.2,127.5 249.6,128.4 248.8,129.2 248,130 247.4,130.8 246.6,131.9 246.1,132.5 245.2,133.3 244.7,134.1 
	243.9,134.9 243.1,135.5 242.2,136 241.4,136.6 240.6,137.4 239.8,137.9 238.7,138.2 237.9,138.7 237.1,139.3 236.2,139.6 
	235.4,140.1 234.3,140.4 233.5,140.6 232.7,140.9 231.6,141.2 230.8,141.5 229.7,141.5 228.9,141.7 227.8,142 226.9,142 225.9,142 
	225,142 223.9,142 222.9,142.3 222,142.3 220.9,142.3 219.8,142 218.8,142 217.7,142 216.6,141.7 215.5,141.7 214.4,141.5 
	213.3,141.5 212.2,141.2 211.4,141.2 210.3,140.9 209.2,140.6 208.1,140.4 207,139.8 206.2,139.6 205.1,139 204.3,138.7 
	203.5,138.2 202.6,137.6 201.8,137.1 201,136.3 200.2,135.7 199.6,134.9 198.8,134.4 198.3,133.5 197.5,133 196.9,132.2 
	196.4,131.4 195.8,130.8 195,130 194.4,129.2 193.9,128.6 193.4,127.8 193.1,127 192.5,126.2 192,125.4 191.7,124.8 191.2,124 
	190.6,123.2 190.4,122.4 189.8,121.5 189.3,121 188.7,120.2 188.4,119.6 187.9,118.8 187.3,118.3 186.8,117.4 186.3,116.9 
	185.7,116.3 185.2,115.8 184.3,115.2 183.8,114.7 183.3,114.2 182.4,113.6 181.9,113.1 181.3,112.5 180.5,112.2 180,111.7 
	179.2,111.4 178.3,111.2 177.5,110.6 176.7,110.3 175.9,110.1 175.1,109.5 174.2,109.2 173.4,109 172.6,108.7 171.8,108.4 
	170.7,108.1 169.9,107.9 168.8,107.9 168,107.6 166.9,107.3 165.8,107.1 165,106.8 163.9,106.8 162.8,106.5 161.7,106.2 160.6,106 
	159.5,105.7 158.4,105.7 157.3,105.4 156.2,105.1 155.1,104.9 154,104.6 152.7,104.3 151.6,104.1 150.2,103.8 149.1,103.5 
	147.7,103.2 146.7,103 145.3,102.7 144.2,102.4 142.8,102.1 141.5,101.9 140.1,101.6 139,101.3 137.6,101 136.3,100.8 134.9,100.5 
	133.5,100.2 132.2,100.2 130.8,100 129.5,99.7 128.1,99.4 126.7,99.4 125.4,99.1 123.7,98.9 122.4,98.9 121,98.6 119.3,98.3 
	118,98.3 116.6,98 116.6,98 115,98 113.6,98 112,97.8 110.6,97.8 109,97.8 107.6,97.8 106,97.8 104.6,97.8 103,97.8 101.3,97.8 
	100,97.8 98.3,97.8 96.7,97.8 95.3,97.8 93.7,97.8 92,97.8 90.4,97.8 89,97.8 87.4,98 85.8,98 84.1,98 82.5,98 80.8,98 79.5,98 
	77.8,98.3 76.2,98.3 74.6,98.3 72.9,98.3 71.3,98.3 69.6,98.3 68,98.6 66.4,98.6 65,98.6 63.4,98.6 61.7,98.6 60.1,98.9 58.4,98.9 
	56.8,98.9 55.2,98.9 53.5,98.9 51.9,99.1 50.3,99.1 48.6,99.1 47,99.1 45.3,99.4 43.7,99.4 42.1,99.4 40.4,99.7 38.8,99.7 
	37.1,99.7 35.2,100 33.6,100 32,100 30.3,100.2 28.7,100.2 27.3,100.2 25.9,100.2 24.6,100.5 23.2,100.5 22.1,100.5 20.8,100.8 
	19.7,100.8 18.8,100.8 17.8,101 16.7,101.3 15.8,101.3 15,101.6 14.2,101.6 13.7,101.9 12.8,102.1 12,102.4 11.5,102.7 10.9,103 
	10.1,103.2 9.6,103.8 9,104.1 8.5,104.6 7.9,104.9 7.4,105.4 6.8,106 6.3,106.5 5.7,107.1 5.5,107.3 4.9,107.9 4.4,108.4 4.1,109 
	3.6,109.5 3.3,110.1 3,110.9 2.7,111.4 2.5,112 2.2,112.5 1.9,113.1 1.9,113.9 1.6,114.4 1.4,115 1.4,115.5 1.1,116.3 1.1,116.9 
	1.1,117.4 1.1,118.3 1.1,118.8 1.1,119.3 1.1,119.9 1.1,120.4 1.1,121.3 1.4,121.8 1.6,122.9 1.9,124 2.5,125.1 2.7,126.2 3.3,127 
	4.1,128.1 4.6,128.9 5.5,129.7 6,130.5 6.8,131.1 7.9,131.9 8.7,132.5 9.3,133 9.8,133.3 10.4,133.5 10.9,134.1 11.7,134.4 
	12.3,134.6 12.8,134.9 13.7,135.2 14.2,135.5 15,135.7 15.8,136 16.4,136.3 17.2,136.6 18,136.6 18.8,136.8 19.7,136.8 20.5,137.1 
	21.3,137.1 22.1,137.1 23.2,137.1 24,137.1 24.9,137.1 25.7,137.1 26.8,137.1 27.6,136.8 28.4,136.8 29.5,136.6 30.3,136.3 
	31.4,136 32.2,135.7 33,135.5 34.1,135.2 35.2,134.6 36,134.4 37.1,133.8 38,133.5 39.1,133 39.9,132.5 41,131.9 41.8,131.1 
	42.9,130.5 44,130 44.8,129.2 45.9,128.6 47,128.1 47.8,127.3 48.9,126.7 50,125.9 51.1,125.4 52.2,124.5 53.3,124 54.3,123.2 
	55.4,122.6 56.8,121.8 57.9,121.3 59,120.7 60.4,119.9 61.4,119.3 62.5,118.8 63.9,118.3 65,118 66.4,117.4 67.5,116.9 68.8,116.6 
	69.9,116.3 71.3,116.1 72.4,115.5 73.7,115.5 74.8,115.2 75.9,115 77.3,115 78.4,114.7 79.7,114.7 80.8,114.4 81.9,114.4 
	83.3,114.4 84.4,114.2 85.5,114.2 86.6,114.2 87.9,114.2 89,114.2 90.1,114.4 91.5,114.4 92.6,114.4 93.9,114.4 95.3,114.7 
	96.4,115 97.8,115 98.9,115.2 100.2,115.5 101.6,115.8 102.7,116.1 104.1,116.3 105.4,116.6 106.5,117.2 107.9,117.4 109.2,118 
	110.6,118.5 111.7,118.8 113.1,119.3 114.4,119.9 115.8,120.4 116.9,121 118.3,121.5 119.6,122.1 121,122.6 122.4,123.2 
	123.7,123.7 125.1,124.3 126.4,124.8 127.5,125.4 128.9,125.9 130.3,126.4 131.6,127 132.7,127.5 134.1,127.8 135.5,128.4 
	136.8,128.6 138.2,128.9 139.3,129.2 140.6,129.2 141.7,129.5 143.1,129.7 144.2,129.7 145.3,130 146.4,130 147.5,130 148.3,130.3 
	149.1,130.3 149.9,130.3 150.8,130.5 151.6,130.5 152.4,130.8 153.2,130.8 153.8,131.1 154.6,131.4 155.4,131.6 155.9,131.9 
	156.8,132.2 157.6,132.5 158.1,132.7 158.7,133 159.5,133.3 160,133.8 160.6,134.1 161.1,134.6 162,134.9 162.5,135.5 163,135.7 
	163.6,136.3 163.9,136.8 164.4,137.4 165,137.9 165.2,138.5 165.8,139 166,139.8 166.6,140.4 167.1,140.9 167.4,141.7 167.7,142.6 
	168.2,143.1 168.5,143.9 168.8,144.7 169.1,145.6 169.6,146.1 169.9,146.9 170.4,147.7 170.7,148.6 171.2,149.4 171.8,150.2 
	172.1,150.8 172.6,151.6 173.1,152.4 173.7,152.9 174.2,153.8 174.8,154.3 175.3,155.1 176.2,155.7 176.7,156.2 177.5,156.8 
	178.1,157.3 178.9,157.9 179.7,158.1 180.2,158.7 181.1,158.9 181.9,159.5 182.7,159.8 183.3,160.3 184.1,160.6 184.9,160.9 
	185.7,161.1 186.5,161.4 187.1,161.7 187.9,162 188.7,162.2 189.5,162.5 190.4,162.5 191.2,162.8 191.7,162.8 192.5,163 193.4,163 
	194.4,163 195.3,163.3 196.1,163.3 197.2,163.3 198,163.6 199.1,163.6 199.9,163.6 201,163.6 202.1,163.6 202.9,163.6 204,163.3 
	205.1,163.3 206.2,163.3 207.3,163.3 208.4,163.3 209.5,163 210.6,163 211.9,162.8 213,162.8 214.1,162.5 215.5,162.2 216.6,162.2 
	217.9,162 219,161.7 220.4,161.4 221.5,161.1 222.9,160.6 223.9,160.3 225.3,160 226.7,159.5 227.8,159.2 229.1,158.7 230.2,158.1 
	231.6,157.6 233,157 234,156.5 235.4,155.9 236.8,155.4 237.9,154.8 239.2,154.3 240.6,153.5 242,152.9 243.1,152.4 244.4,151.8 
	245.8,151 247.2,150.5 248.5,149.9 249.9,149.4 251.3,148.8 252.6,148.3 254,147.7 255.4,147.2 256.7,146.7 258.4,146.1 
	259.7,145.6 261.1,145 262.7,144.7 264.1,144.2 265.5,143.7 267.1,143.1 268.5,142.8 270.1,142.3 271.5,142 272.8,141.7 
	274.5,141.2 275.8,140.9 277.5,140.6 278.8,140.4 280.2,140.1 281.8,140.1 283.2,139.8 284.6,139.8 286.2,139.6 287.6,139.6 
	288.9,139.6 290.3,139.6 291.9,139.6 293.3,139.6 294.7,139.6 296.3,139.6 297.7,139.6 299.3,139.6 300.7,139.6 302.3,139.6 
	303.7,139.6 305.1,139.6 306.7,139.3 308.1,139.3 309.7,139.3 311.3,139 312.7,138.7 314.3,138.7 315.7,138.5 317.3,138.5 
	319,138.2 320.4,137.9 322,137.6 323.6,137.4 325,137.1 326.6,136.6 328.3,136.3 329.6,135.7 331.3,135.5 332.9,134.9 334.3,134.6 
	335.9,134.1 337.6,133.8 338.9,133.3 340.6,132.7 341.9,132.2 343.6,131.4 344.9,130.8 346.6,130.3 347.9,129.5 349.3,128.6 
	350.9,128.1 352.3,127.3 353.7,126.4 355,125.6 356.4,124.5 357.8,123.7 359.1,122.9 360.5,122.1 361.9,121.3 363.2,120.7 
	364.6,119.9 366,119.1 367.3,118.5 368.7,117.7 370.1,117.2 371.4,116.3 372.8,115.8 372.8,115.8 374.2,115.2 375.5,114.7 
	376.9,114.2 378.5,113.3 379.9,112.8 381.3,112.2 382.9,111.7 384.3,111.4 385.9,110.9 387.3,110.3 388.9,110.1 390.3,109.5 
	391.9,109.2 393.5,109 394.9,108.4 396.3,108.1 397.9,107.9 399.6,107.6 401.2,107.3 402.8,107.1 404.2,107.1 405.8,106.8 
	407.5,106.8 409.1,106.5 410.7,106.5 412.4,106.5 414,106.2 415.7,106.2 417.3,106.2 418.9,106.2 420.6,106.2 422.2,106.2 
	423.9,106.2 425.5,106.2 427.1,106.5 428.8,106.5 430.4,106.8 432,106.8 433.7,107.1 435.3,107.3 437,107.6 438.6,108.1 
	440.2,108.4 441.9,108.7 443.2,109 444.6,109.2 446,109.5 447.1,109.8 448.4,110.1 449.5,110.3 450.6,110.3 451.7,110.6 
	452.5,110.6 453.6,110.9 454.4,110.9 455.3,111.2 456.1,111.2 456.6,111.2 457.4,111.2 458.3,111.2 459.1,111.2 459.9,111.2 
	460.5,110.9 461.3,110.9 462.1,110.9 462.9,110.6 463.5,110.6 464.3,110.3 464.8,110.1 465.6,109.8 466.2,109.5 467,109.2 
	467.6,108.7 468.1,108.4 468.9,108.1 469.5,107.9 470,107.3 470.6,107.1 471.1,106.5 471.9,106 472.5,105.7 473,105.1 473.6,104.6 
	474.4,104.1 475.2,103.2 475.7,102.7 476.3,101.9 476.8,101.3 477.4,100.8 477.9,100 478.5,99.4 479,98.9 479.8,98.3 480.4,97.8 
	480.9,97 481.8,96.4 482.3,95.9 483.1,95.3 483.9,94.8 484.5,93.9 485.3,93.4 486.1,92.9 486.9,92.6 487.8,92 488.6,91.5 
	489.4,90.9 490.5,90.7 491.3,90.1 492.1,89.9 493.2,89.3 494,89 495.1,88.8 496.2,88.2 497,87.9 498.1,87.7 499.2,87.4 500.3,87.1 
	501.4,86.8 502.5,86.8 503.6,86.6 504.7,86.6 505.8,86.3 507.2,86.3 508.2,86.3 509.3,86 510.4,86 511.5,86 512.6,86 513.7,86 
	514.8,86.3 515.6,86.3 516.7,86.6 517.8,86.8 518.9,87.1 520,87.4 521.1,87.7 522.2,87.9 523.3,88.2 524.4,88.5 525.5,89 
	526.8,89.3 527.9,89.9 529,90.1 530.1,90.7 531.5,91.2 532.6,91.5 533.6,92 534.7,92.9 536.1,93.4 537.2,93.9 538.3,94.5 539.7,95 
	540.7,95.6 541.8,96.4 543.2,97 544.3,97.8 545.7,98.3 546.8,99.1 548.1,99.7 549.2,100.5 550.6,101 551.7,101.9 553,102.4 
	554.4,103.2 555.5,104.1 556.9,104.6 558.2,105.4 559.6,106 561,106.5 562.3,107.1 563.7,107.6 565.1,108.1 566.4,108.7 
	567.8,109.2 569.1,109.8 570.8,110.3 572.2,110.6 573.5,111.2 575.2,111.7 576.5,112 578.2,112.5 579.5,112.8 581.2,113.1 
	582.8,113.3 584.2,113.6 585.8,113.9 587.4,114.2 588.8,114.4 590.4,114.7 592.1,114.7 593.7,115 595.4,115 596.7,115 598.4,115.2 
	599.7,115.2 601.4,115.2 603,115 604.7,115 606.3,115 607.9,114.7 609.6,114.7 611.2,114.4 612.8,114.4 614.5,114.2 616.1,113.9 
	617.5,113.6 619.1,113.1 620.8,112.8 622.4,112.2 624,112 625.7,111.4 627,111.2 628.7,110.6 630.3,110.1 632,109.8 633.6,109.2 
	635.2,109 636.9,108.4 638.2,108.1 639.9,107.6 641.5,107.1 643.2,106.8 644.8,106.2 646.4,105.7 648.1,105.1 649.4,104.6 
	651.1,104.1 652.7,103.5 654.4,102.7 655.7,102.1 657.4,101.6 658.7,100.8 660.4,100.2 662,99.4 663.4,98.9 665,98 666.4,97.2 
	668,96.4 669.4,95.6 671,94.8 672.4,93.9 673.7,93.1 675.4,92.3 676.8,91.5 678.1,90.7 679.8,89.6 681.1,88.8 682.5,87.9 
	683.9,86.8 685.5,86 686.9,85.2 688.2,84.1 689.6,83 691,82.2 692.3,81.1 693.7,80 695,78.9 696.4,78.1 697.8,77 699.1,75.9 
	700.2,74.8 701.6,73.7 703,72.6 704.3,71.3 705.4,70.2 706.8,69.1 708.2,68 709.2,66.9 710.6,65.8 712,64.5 713.1,63.4 714.2,62 
	715.5,60.9 716.6,59.5 717.7,58.2 718.8,57.1 719.9,55.7 721,54.3 722.1,53 723.2,51.6 724.3,50.3 725.4,48.9 726.5,47.5 
	727.5,46.2 728.4,44.8 729.5,43.7 730.6,42.3 731.4,41 732.2,39.9 733,38.8 733.8,37.4 734.6,36.3 735.5,35.5 736.3,34.4 
	736.8,33.3 737.7,32.5 738.2,31.4 739,30.6 739.6,29.8 740.1,28.9 740.7,28.1 741.2,27.6 741.7,26.8 742.3,26.2 742.6,25.7 
	743.1,24.9 743.7,24.3 743.9,23.8 744.5,23.2 744.8,22.7 745,22.1 745.6,21.6 745.8,21 746.1,20.5 746.4,19.9 746.7,19.4 
	746.9,18.8 747.2,18.3 747.5,17.5 747.8,16.9 747.8,16.1 748,15.6 748,15 748.3,14.5 748.3,13.9 748.3,13.1 748.3,12.3 748.3,11.2 
	748,10.1 747.5,9 747.2,7.9 746.4,6.8 745.8,6 745,5.2 744.2,4.6 743.4,3.8 742.6,3.3 741.7,2.7 740.9,2.2 739.8,1.9 739,1.6 
	737.9,1.6 736.8,1.4 735.7,1.1 734.6,1.1 733.8,1.1 732.5,1.4 731.4,1.4 730.6,1.6 730,1.6 729.2,1.9 728.6,1.9 728.1,2.2 
	727.3,2.2 726.5,2.5 725.9,2.5 725.1,2.7 724.3,3 723.7,3 722.9,3.3 722.1,3.6 721.3,3.8 720.4,4.1 719.6,4.4 718.5,4.4 717.7,4.6 
	716.9,4.9 715.8,5.2 715,5.5 713.9,5.7 713.1,6 712,6.3 710.9,6.6 709.8,6.8 708.7,7.1 707.6,7.4 706.5,7.6 705.4,7.6 704.3,7.9 
	703.2,8.2 701.9,8.5 700.8,8.7 699.7,9 698.3,9.3 697.2,9.6 695.9,9.8 694.5,10.1 693.4,10.4 692,10.7 690.7,10.9 689.6,11.2 
	688.2,11.5 686.9,11.7 685.5,12 684.1,12.3 682.8,12.6 681.4,12.8 680,13.1 678.7,13.4 677.3,13.7 675.9,14.2 674.6,14.5 
	673.2,14.7 671.8,15 670.5,15.3 669.1,15.6 667.7,15.8 666.1,16.4 664.7,16.7 663.4,16.9 662,17.2 660.4,17.8 659,18 657.4,18.3 
	656,18.6 654.6,19.1 653,19.4 651.6,19.7 650,19.9 648.6,20.5 647,20.8 645.3,21 644,21.3 642.3,21.8 641,22.1 639.3,22.7 
	637.7,22.9 636.3,23.2 634.7,23.8 633.1,24 631.7,24.6 630,24.9 628.4,25.4 627,25.7 625.4,26.2 623.8,26.5 622.4,27 620.8,27.6 
	619.1,27.9 617.5,28.4 616.1,28.9 614.5,29.2 612.8,29.8 611.2,30.3 609.8,30.9 608.2,31.4 606.6,31.7 605.2,32.2 603.6,32.8 
	601.9,33.3 600.3,33.9 598.6,34.4 597.3,35 595.6,35.5 594.8,35.8 "/>
<polyline vector-effect="non-scaling-stroke" class="st1" points="594.3,35.8 592.6,36.3 591.3,36.9 589.6,37.4 588,38 586.4,38.5 
	584.7,39.1 583.1,39.6 581.7,40.1 580.1,40.4 578.4,41 576.8,41.5 575.2,42.1 573.5,42.6 572.2,43.2 570.5,43.7 568.9,44.2 
	567.2,44.8 565.6,45.3 564,45.9 562.3,46.4 561,47 559.3,47.5 557.7,48.1 556,48.6 554.4,49.2 552.8,49.7 551.1,50.3 549.5,50.8 
	547.8,51.3 546.2,51.9 544.8,52.4 543.2,53 541.6,53.5 539.9,54.1 538.3,54.6 536.6,55.2 535,55.7 533.4,56.3 531.7,56.8 
	530.1,57.4 528.5,57.9 526.8,58.4 525.2,59 523.5,59.5 521.9,60.1 520.5,60.6 518.9,61.2 517.3,61.7 515.6,62.3 514,62.8 
	512.3,63.4 510.7,63.9 509.1,64.5 507.4,65 505.8,65.5 504.1,66.1 502.5,66.6 500.9,67.2 499.2,67.7 497.6,68.3 496,68.8 
	494.3,69.4 492.7,69.9 491.3,70.5 489.7,70.7 488.3,71.3 487.2,71.8 485.9,72.1 484.8,72.6 483.4,72.9 482.3,73.2 481.2,73.7 
	480.4,74 479.3,74.3 478.5,74.6 477.4,74.8 476.6,75.1 475.7,75.4 474.9,75.6 474.4,75.9 473.6,76.2 473,76.5 472.5,76.7 471.6,77 
	470.8,77.3 469.5,77.8 468.6,78.4 467.8,78.9 467,79.7 466.2,80.3 465.4,81.1 464.5,82.2 464.3,82.5 464,83 464,83.6 463.7,84.1 
	463.5,84.4 463.5,84.9 463.2,85.5 463.2,86 463.2,86.6 463.2,87.7 463.5,88.5 463.7,89.6 463.7,90.4 463.7,91.5 463.7,92.3 
	463.7,93.1 463.7,93.9 463.5,94.8 463.2,95.6 462.9,96.4 462.6,97.2 462.1,97.8 461.5,98.3 461,98.9 460.5,99.4 459.9,99.7 
	459.1,100.2 458.3,100.5 457.4,100.8 456.6,101 455.8,101.3 455,101.3 454.2,101.3 453.1,101.3 452,101.3 451.2,101.3 450.1,101 
	448.7,100.8 447.6,100.5 447.1,100.2 446.3,100 445.4,99.7 444.9,99.4 444.3,99.1 443.5,98.9 443,98.6 442.2,98.3 441.3,98 
	440.8,97.8 440,97.5 439.2,97.2 438.3,97 437.5,96.7 436.7,96.4 435.9,96.1 435.1,95.9 434.2,95.3 433.4,95 432.3,94.8 431.5,94.5 
	430.4,94.2 429.3,94.2 428.5,93.9 427.4,93.7 426.3,93.4 425.2,93.4 424.1,93.1 423,93.1 421.7,93.1 420.6,92.9 419.5,92.9 
	418.1,92.9 417,92.9 415.9,92.9 414.6,92.9 413.2,92.9 412.1,93.1 410.7,93.1 409.7,93.4 408.3,93.4 406.9,93.7 405.6,93.9 
	404.2,93.9 403.1,94.2 401.7,94.5 400.4,94.8 399,95 397.6,95.3 396.3,95.3 394.9,95.6 393.5,95.9 392.2,96.1 390.5,96.4 
	389.2,96.7 387.8,97 386.4,97.2 384.8,97.5 383.4,97.5 382.1,97.8 380.4,98 379.1,98.3 377.7,98.6 376.1,98.9 374.7,99.1 
	373.1,99.4 371.7,99.4 370.1,99.7 368.7,100 367.1,100.2 365.7,100.5 364,100.8 362.7,100.8 361.3,101 360.2,101.3 358.9,101.3 
	357.8,101.6 356.7,101.9 355.6,101.9 354.5,102.1 353.7,102.1 352.8,102.4 352,102.4 351.2,102.4 350.4,102.7 349.8,102.7 
	349,102.7 348.5,103 347.4,103.2 346.3,103.5 345.2,104.1 344.1,104.6 343.8,104.9 343.3,105.1 342.7,105.7 342.5,106 341.9,106.2 
	341.7,106.8 340.8,107.6 340.3,108.4 339.7,109.2 339.2,110.1 338.6,111.2 338.1,112 337.8,112.5 337.6,113.1 337.3,113.6 
	337,114.2 336.7,114.7 336.5,115.2 335.9,116.1 335.6,116.6 335.1,117.2 334.8,118 334.3,118.5 333.7,119.1 333.2,119.9 
	332.9,120.4 332.1,121 331.8,121.5 331,122.4 330.5,122.9 329.9,123.4 329.1,124 328.3,124.5 327.5,125.1 326.9,125.6 326.1,126.2 
	325,126.4 324.2,127 323.4,127.5 322.5,127.8 321.4,128.1 320.6,128.4 319.5,128.6 318.7,128.9 317.6,129.2 316.8,129.2 
	315.7,129.5 314.9,129.5 313.8,129.5 312.7,129.5 311.9,129.5 310.8,129.5 309.7,129.5 308.6,129.5 307.8,129.2 306.7,129.2 
	305.6,128.9 304.5,128.6 303.7,128.4 302.6,128.1 301.5,127.5 300.7,127.3 299.6,126.7 298.5,126.2 297.7,125.6 296.6,125.1 
	295.8,124.5 294.7,124 293.9,123.4 292.8,122.9 291.9,122.4 290.9,121.8 289.8,121.3 288.7,121 287.6,120.4 286.5,119.9 
	285.4,119.6 284.3,119.3 283.2,119.1 282.1,118.8 280.8,118.5 279.7,118.3 278.6,118 277.2,117.7 276.1,117.7 274.7,117.4 
	273.6,117.4 272.3,117.4 271.2,117.4 269.8,117.4 268.7,117.7 267.4,118 266.3,118.3 265.2,118.5 263.8,118.8 262.7,119.1 
	261.6,119.6 260.5,120.2 259.4,120.7 258.4,121.3 257.3,121.8 256.4,122.6 255.4,123.2 254.5,124 253.7,124.5 252.6,125.4 
	251.8,126.2 251,126.7 250.2,127.5 249.6,128.4 248.8,129.2 248,130 247.4,130.8 246.6,131.9 246.1,132.5 245.2,133.3 244.7,134.1 
	243.9,134.9 243.1,135.5 242.2,136 241.4,136.6 240.6,137.4 239.8,137.9 238.7,138.2 237.9,138.7 237.1,139.3 236.2,139.6 
	235.4,140.1 234.3,140.4 233.5,140.6 232.7,140.9 231.6,141.2 230.8,141.5 229.7,141.5 228.9,141.7 227.8,142 226.9,142 225.9,142 
	225,142 223.9,142 222.9,142.3 222,142.3 220.9,142.3 219.8,142 218.8,142 217.7,142 216.6,141.7 215.5,141.7 214.4,141.5 
	213.3,141.5 212.2,141.2 211.4,141.2 210.3,140.9 209.2,140.6 208.1,140.4 207,139.8 206.2,139.6 205.1,139 204.3,138.7 
	203.5,138.2 202.6,137.6 201.8,137.1 201,136.3 200.2,135.7 199.6,134.9 198.8,134.4 198.3,133.5 197.5,133 196.9,132.2 
	196.4,131.4 195.8,130.8 195,130 194.4,129.2 193.9,128.6 193.4,127.8 193.1,127 192.5,126.2 192,125.4 191.7,124.8 191.2,124 
	190.6,123.2 190.4,122.4 189.8,121.5 189.3,121 188.7,120.2 188.4,119.6 187.9,118.8 187.3,118.3 186.8,117.4 186.3,116.9 
	185.7,116.3 185.2,115.8 184.3,115.2 183.8,114.7 183.3,114.2 182.4,113.6 181.9,113.1 181.3,112.5 180.5,112.2 180,111.7 
	179.2,111.4 178.3,111.2 177.5,110.6 176.7,110.3 175.9,110.1 175.1,109.5 174.2,109.2 173.4,109 172.6,108.7 171.8,108.4 
	170.7,108.1 169.9,107.9 168.8,107.9 168,107.6 166.9,107.3 165.8,107.1 165,106.8 163.9,106.8 162.8,106.5 161.7,106.2 160.6,106 
	159.5,105.7 158.4,105.7 157.3,105.4 156.2,105.1 155.1,104.9 154,104.6 152.7,104.3 151.6,104.1 150.2,103.8 149.1,103.5 
	147.7,103.2 146.7,103 145.3,102.7 144.2,102.4 142.8,102.1 141.5,101.9 140.1,101.6 139,101.3 137.6,101 136.3,100.8 134.9,100.5 
	133.5,100.2 132.2,100.2 130.8,100 129.5,99.7 128.1,99.4 126.7,99.4 125.4,99.1 123.7,98.9 122.4,98.9 121,98.6 119.3,98.3 
	118,98.3 116.6,98 "/>
<polyline vector-effect="non-scaling-stroke" class="st2" points="116.6,98 115,98 113.6,98 112,97.8 110.6,97.8 109,97.8 
	107.6,97.8 106,97.8 104.6,97.8 103,97.8 101.3,97.8 100,97.8 98.3,97.8 96.7,97.8 95.3,97.8 93.7,97.8 92,97.8 90.4,97.8 89,97.8 
	87.4,98 85.8,98 84.1,98 82.5,98 80.8,98 79.5,98 77.8,98.3 76.2,98.3 74.6,98.3 72.9,98.3 71.3,98.3 69.6,98.3 68,98.6 66.4,98.6 
	65,98.6 63.4,98.6 61.7,98.6 60.1,98.9 58.4,98.9 56.8,98.9 55.2,98.9 53.5,98.9 51.9,99.1 50.3,99.1 48.6,99.1 47,99.1 45.3,99.4 
	43.7,99.4 42.1,99.4 40.4,99.7 38.8,99.7 37.1,99.7 35.2,100 33.6,100 32,100 30.3,100.2 28.7,100.2 27.3,100.2 25.9,100.2 
	24.6,100.5 23.2,100.5 22.1,100.5 20.8,100.8 19.7,100.8 18.8,100.8 17.8,101 16.7,101.3 15.8,101.3 15,101.6 14.2,101.6 
	13.7,101.9 12.8,102.1 12,102.4 11.5,102.7 10.9,103 10.1,103.2 9.6,103.8 9,104.1 8.5,104.6 7.9,104.9 7.4,105.4 6.8,106 
	6.3,106.5 5.7,107.1 5.5,107.3 4.9,107.9 4.4,108.4 4.1,109 3.6,109.5 3.3,110.1 3,110.9 2.7,111.4 2.5,112 2.2,112.5 1.9,113.1 
	1.9,113.9 1.6,114.4 1.4,115 1.4,115.5 1.1,116.3 1.1,116.9 1.1,117.4 1.1,118.3 1.1,118.8 1.1,119.3 1.1,119.9 1.1,120.4 
	1.1,121.3 1.4,121.8 1.6,122.9 1.9,124 2.5,125.1 2.7,126.2 3.3,127 4.1,128.1 4.6,128.9 5.5,129.7 6,130.5 6.8,131.1 7.9,131.9 
	8.7,132.5 9.3,133 9.8,133.3 10.4,133.5 10.9,134.1 11.7,134.4 12.3,134.6 12.8,134.9 13.7,135.2 14.2,135.5 15,135.7 15.8,136 
	16.4,136.3 17.2,136.6 18,136.6 18.8,136.8 19.7,136.8 20.5,137.1 21.3,137.1 22.1,137.1 23.2,137.1 24,137.1 24.9,137.1 
	25.7,137.1 26.8,137.1 27.6,136.8 28.4,136.8 29.5,136.6 30.3,136.3 31.4,136 32.2,135.7 33,135.5 34.1,135.2 35.2,134.6 36,134.4 
	37.1,133.8 38,133.5 39.1,133 39.9,132.5 41,131.9 41.8,131.1 42.9,130.5 44,130 44.8,129.2 45.9,128.6 47,128.1 47.8,127.3 
	48.9,126.7 50,125.9 51.1,125.4 52.2,124.5 53.3,124 54.3,123.2 55.4,122.6 56.8,121.8 57.9,121.3 59,120.7 60.4,119.9 61.4,119.3 
	62.5,118.8 63.9,118.3 65,118 66.4,117.4 67.5,116.9 68.8,116.6 69.9,116.3 71.3,116.1 72.4,115.5 73.7,115.5 74.8,115.2 75.9,115 
	77.3,115 78.4,114.7 79.7,114.7 80.8,114.4 81.9,114.4 83.3,114.4 84.4,114.2 85.5,114.2 86.6,114.2 87.9,114.2 89,114.2 
	90.1,114.4 91.5,114.4 92.6,114.4 93.9,114.4 95.3,114.7 96.4,115 97.8,115 98.9,115.2 100.2,115.5 101.6,115.8 102.7,116.1 
	104.1,116.3 105.4,116.6 106.5,117.2 107.9,117.4 109.2,118 110.6,118.5 111.7,118.8 113.1,119.3 114.4,119.9 115.8,120.4 
	116.9,121 118.3,121.5 119.6,122.1 121,122.6 122.4,123.2 123.7,123.7 125.1,124.3 126.4,124.8 127.5,125.4 128.9,125.9 
	130.3,126.4 131.6,127 132.7,127.5 134.1,127.8 135.5,128.4 136.8,128.6 138.2,128.9 139.3,129.2 140.6,129.2 141.7,129.5 
	143.1,129.7 144.2,129.7 145.3,130 146.4,130 147.5,130 148.3,130.3 149.1,130.3 149.9,130.3 150.8,130.5 151.6,130.5 152.4,130.8 
	153.2,130.8 153.8,131.1 154.6,131.4 155.4,131.6 155.9,131.9 156.8,132.2 157.6,132.5 158.1,132.7 158.7,133 159.5,133.3 
	160,133.8 160.6,134.1 161.1,134.6 162,134.9 162.5,135.5 163,135.7 163.6,136.3 163.9,136.8 164.4,137.4 165,137.9 165.2,138.5 
	165.8,139 166,139.8 166.6,140.4 167.1,140.9 167.4,141.7 167.7,142.6 168.2,143.1 168.5,143.9 168.8,144.7 169.1,145.6 
	169.6,146.1 169.9,146.9 170.4,147.7 170.7,148.6 171.2,149.4 171.8,150.2 172.1,150.8 172.6,151.6 173.1,152.4 173.7,152.9 
	174.2,153.8 174.8,154.3 175.3,155.1 176.2,155.7 176.7,156.2 177.5,156.8 178.1,157.3 178.9,157.9 179.7,158.1 180.2,158.7 
	181.1,158.9 181.9,159.5 182.7,159.8 183.3,160.3 184.1,160.6 184.9,160.9 185.7,161.1 186.5,161.4 187.1,161.7 187.9,162 
	188.7,162.2 189.5,162.5 190.4,162.5 191.2,162.8 191.7,162.8 192.5,163 193.4,163 194.4,163 195.3,163.3 196.1,163.3 197.2,163.3 
	198,163.6 199.1,163.6 199.9,163.6 201,163.6 202.1,163.6 202.9,163.6 204,163.3 205.1,163.3 206.2,163.3 207.3,163.3 208.4,163.3 
	209.5,163 210.6,163 211.9,162.8 213,162.8 214.1,162.5 215.5,162.2 216.6,162.2 217.9,162 219,161.7 220.4,161.4 221.5,161.1 
	222.9,160.6 223.9,160.3 225.3,160 226.7,159.5 227.8,159.2 229.1,158.7 230.2,158.1 231.6,157.6 233,157 234,156.5 235.4,155.9 
	236.8,155.4 237.9,154.8 239.2,154.3 240.6,153.5 242,152.9 243.1,152.4 244.4,151.8 245.8,151 247.2,150.5 248.5,149.9 
	249.9,149.4 251.3,148.8 252.6,148.3 254,147.7 255.4,147.2 256.7,146.7 258.4,146.1 259.7,145.6 261.1,145 262.7,144.7 
	264.1,144.2 265.5,143.7 267.1,143.1 268.5,142.8 270.1,142.3 271.5,142 272.8,141.7 274.5,141.2 275.8,140.9 277.5,140.6 
	278.8,140.4 280.2,140.1 281.8,140.1 283.2,139.8 284.6,139.8 286.2,139.6 287.6,139.6 288.9,139.6 290.3,139.6 291.9,139.6 
	293.3,139.6 294.7,139.6 296.3,139.6 297.7,139.6 299.3,139.6 300.7,139.6 302.3,139.6 303.7,139.6 305.1,139.6 306.7,139.3 
	308.1,139.3 309.7,139.3 311.3,139 312.7,138.7 314.3,138.7 315.7,138.5 317.3,138.5 319,138.2 320.4,137.9 322,137.6 323.6,137.4 
	325,137.1 326.6,136.6 328.3,136.3 329.6,135.7 331.3,135.5 332.9,134.9 334.3,134.6 335.9,134.1 337.6,133.8 338.9,133.3 
	340.6,132.7 341.9,132.2 343.6,131.4 344.9,130.8 346.6,130.3 347.9,129.5 349.3,128.6 350.9,128.1 352.3,127.3 353.7,126.4 
	355,125.6 356.4,124.5 357.8,123.7 359.1,122.9 360.5,122.1 361.9,121.3 363.2,120.7 364.6,119.9 366,119.1 367.3,118.5 
	368.7,117.7 370.1,117.2 371.4,116.3 372.8,115.8 "/>
<polyline vector-effect="non-scaling-stroke" class="st3" points="372.8,115.8 374.2,115.2 375.5,114.7 376.9,114.2 378.5,113.3 
	379.9,112.8 381.3,112.2 382.9,111.7 384.3,111.4 385.9,110.9 387.3,110.3 388.9,110.1 390.3,109.5 391.9,109.2 393.5,109 
	394.9,108.4 396.3,108.1 397.9,107.9 399.6,107.6 401.2,107.3 402.8,107.1 404.2,107.1 405.8,106.8 407.5,106.8 409.1,106.5 
	410.7,106.5 412.4,106.5 414,106.2 415.7,106.2 417.3,106.2 418.9,106.2 420.6,106.2 422.2,106.2 423.9,106.2 425.5,106.2 
	427.1,106.5 428.8,106.5 430.4,106.8 432,106.8 433.7,107.1 435.3,107.3 437,107.6 438.6,108.1 440.2,108.4 441.9,108.7 443.2,109 
	444.6,109.2 446,109.5 447.1,109.8 448.4,110.1 449.5,110.3 450.6,110.3 451.7,110.6 452.5,110.6 453.6,110.9 454.4,110.9 
	455.3,111.2 456.1,111.2 456.6,111.2 457.4,111.2 458.3,111.2 459.1,111.2 459.9,111.2 460.5,110.9 461.3,110.9 462.1,110.9 
	462.9,110.6 463.5,110.6 464.3,110.3 464.8,110.1 465.6,109.8 466.2,109.5 467,109.2 467.6,108.7 468.1,108.4 468.9,108.1 
	469.5,107.9 470,107.3 470.6,107.1 471.1,106.5 471.9,106 472.5,105.7 473,105.1 473.6,104.6 474.4,104.1 475.2,103.2 475.7,102.7 
	476.3,101.9 476.8,101.3 477.4,100.8 477.9,100 478.5,99.4 479,98.9 479.8,98.3 480.4,97.8 480.9,97 481.8,96.4 482.3,95.9 
	483.1,95.3 483.9,94.8 484.5,93.9 485.3,93.4 486.1,92.9 486.9,92.6 487.8,92 488.6,91.5 489.4,90.9 490.5,90.7 491.3,90.1 
	492.1,89.9 493.2,89.3 494,89 495.1,88.8 496.2,88.2 497,87.9 498.1,87.7 499.2,87.4 500.3,87.1 501.4,86.8 502.5,86.8 503.6,86.6 
	504.7,86.6 505.8,86.3 507.2,86.3 508.2,86.3 509.3,86 510.4,86 511.5,86 512.6,86 513.7,86 514.8,86.3 515.6,86.3 516.7,86.6 
	517.8,86.8 518.9,87.1 520,87.4 521.1,87.7 522.2,87.9 523.3,88.2 524.4,88.5 525.5,89 526.8,89.3 527.9,89.9 529,90.1 530.1,90.7 
	531.5,91.2 532.6,91.5 533.6,92 534.7,92.9 536.1,93.4 537.2,93.9 538.3,94.5 539.7,95 540.7,95.6 541.8,96.4 543.2,97 544.3,97.8 
	545.7,98.3 546.8,99.1 548.1,99.7 549.2,100.5 550.6,101 551.7,101.9 553,102.4 554.4,103.2 555.5,104.1 556.9,104.6 558.2,105.4 
	559.6,106 561,106.5 562.3,107.1 563.7,107.6 565.1,108.1 566.4,108.7 567.8,109.2 569.1,109.8 570.8,110.3 572.2,110.6 
	573.5,111.2 575.2,111.7 576.5,112 578.2,112.5 579.5,112.8 581.2,113.1 582.8,113.3 584.2,113.6 585.8,113.9 587.4,114.2 
	588.8,114.4 590.4,114.7 592.1,114.7 593.7,115 595.4,115 596.7,115 598.4,115.2 599.7,115.2 601.4,115.2 603,115 604.7,115 
	606.3,115 607.9,114.7 609.6,114.7 611.2,114.4 612.8,114.4 614.5,114.2 616.1,113.9 617.5,113.6 619.1,113.1 620.8,112.8 
	622.4,112.2 624,112 625.7,111.4 627,111.2 628.7,110.6 630.3,110.1 632,109.8 633.6,109.2 635.2,109 636.9,108.4 638.2,108.1 
	639.9,107.6 641.5,107.1 643.2,106.8 644.8,106.2 646.4,105.7 648.1,105.1 649.4,104.6 651.1,104.1 652.7,103.5 654.4,102.7 
	655.7,102.1 657.4,101.6 658.7,100.8 660.4,100.2 662,99.4 663.4,98.9 665,98 666.4,97.2 668,96.4 669.4,95.6 671,94.8 672.4,93.9 
	673.7,93.1 675.4,92.3 676.8,91.5 678.1,90.7 679.8,89.6 681.1,88.8 682.5,87.9 683.9,86.8 685.5,86 686.9,85.2 688.2,84.1 
	689.6,83 691,82.2 692.3,81.1 693.7,80 695,78.9 696.4,78.1 697.8,77 699.1,75.9 700.2,74.8 701.6,73.7 703,72.6 704.3,71.3 
	705.4,70.2 706.8,69.1 708.2,68 709.2,66.9 710.6,65.8 712,64.5 713.1,63.4 714.2,62 715.5,60.9 716.6,59.5 717.7,58.2 718.8,57.1 
	719.9,55.7 721,54.3 722.1,53 723.2,51.6 724.3,50.3 725.4,48.9 726.5,47.5 727.5,46.2 728.4,44.8 729.5,43.7 730.6,42.3 731.4,41 
	732.2,39.9 733,38.8 733.8,37.4 734.6,36.3 735.5,35.5 736.3,34.4 736.8,33.3 737.7,32.5 738.2,31.4 739,30.6 739.6,29.8 
	740.1,28.9 740.7,28.1 741.2,27.6 741.7,26.8 742.3,26.2 742.6,25.7 743.1,24.9 743.7,24.3 743.9,23.8 744.5,23.2 744.8,22.7 
	745,22.1 745.6,21.6 745.8,21 746.1,20.5 746.4,19.9 746.7,19.4 746.9,18.8 747.2,18.3 747.5,17.5 747.8,16.9 747.8,16.1 748,15.6 
	748,15 748.3,14.5 748.3,13.9 748.3,13.1 748.3,12.3 748.3,11.2 748,10.1 747.5,9 747.2,7.9 746.4,6.8 745.8,6 745,5.2 744.2,4.6 
	743.4,3.8 742.6,3.3 741.7,2.7 740.9,2.2 739.8,1.9 739,1.6 737.9,1.6 736.8,1.4 735.7,1.1 734.6,1.1 733.8,1.1 732.5,1.4 
	731.4,1.4 730.6,1.6 730,1.6 729.2,1.9 728.6,1.9 728.1,2.2 727.3,2.2 726.5,2.5 725.9,2.5 725.1,2.7 724.3,3 723.7,3 722.9,3.3 
	722.1,3.6 721.3,3.8 720.4,4.1 719.6,4.4 718.5,4.4 717.7,4.6 716.9,4.9 715.8,5.2 715,5.5 713.9,5.7 713.1,6 712,6.3 710.9,6.6 
	709.8,6.8 708.7,7.1 707.6,7.4 706.5,7.6 705.4,7.6 704.3,7.9 703.2,8.2 701.9,8.5 700.8,8.7 699.7,9 698.3,9.3 697.2,9.6 
	695.9,9.8 694.5,10.1 693.4,10.4 692,10.7 690.7,10.9 689.6,11.2 688.2,11.5 686.9,11.7 685.5,12 684.1,12.3 682.8,12.6 681.4,12.8 
	680,13.1 678.7,13.4 677.3,13.7 675.9,14.2 674.6,14.5 673.2,14.7 671.8,15 670.5,15.3 669.1,15.6 667.7,15.8 666.1,16.4 
	664.7,16.7 663.4,16.9 662,17.2 660.4,17.8 659,18 657.4,18.3 656,18.6 654.6,19.1 653,19.4 651.6,19.7 650,19.9 648.6,20.5 
	647,20.8 645.3,21 644,21.3 642.3,21.8 641,22.1 639.3,22.7 637.7,22.9 636.3,23.2 634.7,23.8 633.1,24 631.7,24.6 630,24.9 
	628.4,25.4 627,25.7 625.4,26.2 623.8,26.5 622.4,27 620.8,27.6 619.1,27.9 617.5,28.4 616.1,28.9 614.5,29.2 612.8,29.8 
	611.2,30.3 609.8,30.9 608.2,31.4 606.6,31.7 605.2,32.2 603.6,32.8 601.9,33.3 600.3,33.9 598.6,34.4 597.3,35 595.6,35.5 
	594.8,35.8 "/>
<circle id="minimapCarCircle" class="st4" cx="594.3" cy="35.8" r="4.6"/>
</svg>
