<?xml version="1.0" encoding="utf-8"?>
<!-- Generator: Adobe Illustrator 27.5.0, SVG Export Plug-In . SVG Version: 6.00 Build 0)  -->
<svg version="1.1" id="Layer_1" xmlns="http://www.w3.org/2000/svg" x="0px" y="0px"
     viewBox="0 0 1126.7 447.1" style="enable-background:new 0 0 1126.7 447.1;" xml:space="preserve">
<style type="text/css">
	.st0{fill:none;stroke:#374151;stroke-width:7.8545;stroke-miterlimit:3.9273;}
	.st1{fill:none;stroke:#EF4444;stroke-width:1.9636;stroke-miterlimit:3.9273;}
	.st2{fill:none;stroke:#3B82F6;stroke-width:1.9636;stroke-miterlimit:3.9273;}
	.st3{fill:none;stroke:#FBBF24;stroke-width:1.9636;stroke-miterlimit:3.9273;}
	.st4{fill:#FFFFFF;stroke:#000000;stroke-width:10.296;stroke-miterlimit:3.168;}
</style>
<path vector-effect="non-scaling-stroke" class="st0" d="M190,96.3c38.3-29.4,78.6-56.8,123.4-75c19.8-6.8,41-21.6,62.2-16.2
	c23.7,4.7,36.9,28.2,52.5,44.3c15.9,21.2,36.1,39.1,54.5,58.1c13.9,14.4,28.8,28.4,43,42.2c12.1,12.6,23.5,27.1,37.5,37.6
	c28,24.9,62.9,41.8,88.2,70.1c21.7,21.2,39.4,46.8,64.6,64.4c33.9,23,76.1,22.7,100-13.9c5.8-10.7,10.7-22.2,12.8-34.2
	c1.2-13.5,7.3-26.1,16.1-36.4c20.6-17.3,49.6-13.5,74.4-10c25.2,1.1,50.3,2.9,75.7,4.4c25.8,1.2,96.2,0.2,69.9,42.2
	c-14.9,14.2-28.8,29.2-38.2,47.4c-3.9,6.8-9.1,14.4-8.8,22.3c0.4,9.3,11.5,14.1,17.6,7.2c9.1-13.5,3.2-33.4,16.4-44.8
	c13.4-15.1,33.8-4,47.4,4.2c14.3,10,26,19.4,23.1,38.9c-10.1,26.9-41.8,35.8-65.2,47.4c-26.2,10.8-52.8,21.4-79.7,28.8
	c-51.8,12.1-108.8,28.4-159.9,8.5c-53.2-29.4-107.6-58.7-154.2-97.3c-18-15.4-35.3-31.8-50.8-48.8c-11.7-10.3-20.4-24.4-33.8-31.9
	c-14.9-8.8-34.1,2.9-42.6-20.3c-16.8-45.2-52.4-78.9-81.6-115.6c-20.6-23.4-39-52.9-69-64c-29.5-9.8-63.1-1.6-88.6,13.5
	c-17.3,7.9-30.7,22.3-42.2,35.9c-12.9,22.4-22.6,46.9-41.1,64.5c-14.3,17.3-28.9,36.6-49.1,45.1c-15.1,6.2-32.4,2.2-45.6,11.1
	c-24,14.6-37.6,40.6-46.2,65.6c-6.9,20.2-6.3,41.6-6.5,61.8c1.5,13.2-7.2,28.4-20.7,27.5c-15.8-6-27.4-19.7-37.3-31.9
	c-7.6-15.7-4.8-28.3,4.4-41.6c8.5-13.6,18.4-26.4,25.4-40.1C76.7,200.8,128.4,142.5,190,96.3z"/>
<path vector-effect="non-scaling-stroke" class="st1" d="M190,96.3c37.2-27,74.4-56.8,118.4-71.8c8-5.7,18.3-8.5,27.4-12.1
	C346.1,7,358.4,3.2,370.2,4c33.9,2.6,59.7,54,85,75.8c34.4,34.7,69.6,69.3,103.8,104.5c21.8,19,47.3,33.2,69.4,52
	c34.8,25.2,55.6,66.4,93,88.1c33.5,24.1,80.8,15.1,98.5-23.4c10.7-17.4,7.1-40.5,20.3-56.7c18-27,55.4-19.1,82.9-16.8
	c25.5,1.6,51.2,3,77,4.6"/>
<path vector-effect="non-scaling-stroke" class="st2" d="M999.9,232.1c21.9,1.9,63.4-1.9,70.8,24c1.7,17.3-16.4,26.1-25.6,37.9
	c-8.2,12.3-45.9,55.9-15.4,60.6c18.5-9.6,4.8-35.5,24.9-51.6c17.4-11.9,35.9,2.4,50.8,11.3c48.2,39.3-13.9,67.6-48.3,82.1
	c-50.5,21.5-103.9,38.7-158.9,44.2c-24.7,3.2-51.3,4.5-74.9-5c-21-8.5-41.6-20.7-60.5-33.2c-40.1-22.4-79.8-46.7-113.4-78.2
	c-25.2-21-44.5-49.4-70.8-68.6c-15-8.8-34,2.9-42.6-20.3c-16.7-45-52.2-78.7-81.6-115.6c-43.2-54.6-71.2-86.3-144.6-57.8"/>
<path vector-effect="non-scaling-stroke" class="st3" d="M309.8,62.3c-22.1,11.1-43.8,25.6-57.2,47c-11.4,21.1-21.3,43.8-38.9,60.7
	c-13.9,16.9-28.5,36.4-49.1,45.1c-14.5,6.2-32.2,2.2-45.6,11.1c-23.7,14.3-37.6,40.2-46.2,65.6c-6.8,19.9-6.5,41.2-6.5,61.8
	c2.3,20.8-18.2,38.3-34.5,19.1c-15.9-10.6-31.9-28.8-27.4-49c6.8-16.1,18.2-29.9,27-44.7c9.3-14.1,16.7-29.8,26.7-43.3
	C93.4,182,138.9,134.9,190,96.3"/>
<circle id="minimapCarCircle" class="st4" cx="190" cy="94.5" r="13.5"/>
</svg>
