<?xml version="1.0" encoding="utf-8"?>
<!-- Generator: Adobe Illustrator 27.5.0, SVG Export Plug-In . SVG Version: 6.00 Build 0)  -->
<svg version="1.1" id="Layer_1" xmlns="http://www.w3.org/2000/svg" x="0px" y="0px"
     viewBox="0 0 985.7 577.6" style="enable-background:new 0 0 985.7 577.6;" xml:space="preserve">
<style type="text/css">
	.st0{fill:none;stroke:#374151;stroke-width:4.5474;stroke-miterlimit:2.2737;}
	.st1{fill:none;stroke:#EF4444;stroke-width:1.1368;stroke-miterlimit:2.2737;}
	.st2{fill:none;stroke:#3B82F6;stroke-width:1.1368;stroke-miterlimit:2.2737;}
	.st3{fill:none;stroke:#FBBF24;stroke-width:1.1368;stroke-miterlimit:2.2737;}
	.st4{fill:#FFFFFF;stroke:#000000;stroke-width:10.296;stroke-miterlimit:3.168;}
</style>
<path vector-effect="non-scaling-stroke" class="st0" d="M690.3,549c-36.9-26.3-73.6-53-110.3-79.6c-30.1-22.7-70.2-40.8-83-79
	c-15.4-42.6,9.8-79.3-8.5-122.2c-11.2-25.7-34.1-43.3-51.7-64.2c-15.4-14.7-34.7-38.7-14.2-57.4c14.7-13.9,44-1.8,53.4-22.7
	c9.4-32-46.8-39.3-68.8-38.1c-31.9,1-58.3,21.9-77.3,46c-45.2,54.2-90.3,109-137,162c-19.8,24.3-43.9,46.2-60.3,72.8
	c-8.4,17.6-9.6,42.4,6.8,55.1c15.4,14.8,39.3,7.2,56.8,17.1c18,10.6,17.7,34.8,0.5,45.5c-12.2,9.1-28.8,7.1-42.1,2.3
	c-43.7-18.4-87.6-45.5-110.3-88.1C25,361.6,22.6,319.1,15.9,279.1C11,251.4,9.3,223,5.7,195.5c-4.7-31-7.5-64.3,11.4-90.9
	c43.6-64.9,182.2-44.2,252.9-62c39-10.1,70.1-34.5,112-22.2c19.5,5.4,39.8,13.5,59.7,6.2c23.6-6.6,39.6-27.5,65.9-23.9
	c38.9,3.6,48.8,42.5,74.5,64.8c21.5,18.1,46.5,31.7,71.1,43.8c72.2,34.5,145.2,66.8,216,102.3c24.9,13.5,49.9,26.2,72.8,41.5
	c28,15.1,49.1,44.4,38.6,76.2c-8.4,37.1-50.9,44.7-77.3,64.2c-24.4,17.3-46.4,37-68.2,56.3c-11.6,12.8-32.1,21.7-32.9,40.4
	c1.3,9.9,10.4,15.4,13.6,23.9c7.2,19.3-9,37.7-23.9,47.2C754.5,586,722.1,574,690.3,549z"/>
<path vector-effect="non-scaling-stroke" class="st1" d="M690.3,549c-38.3-26.8-75.6-55.6-114.2-81.9c-37.2-28-81.7-48.7-84.1-101.7
	c-2-16.6,2.2-33.5,4-50c0.8-21.8-3.4-44.3-15.9-62.5c-14.1-20.8-34.2-37-50-56.3c-18.4-17.3-25.2-43.8,2.3-55.7
	c11.7-3.6,25-1.5,35.8-8c20.1-12.4,4.4-34.7-13.1-39.8c-38.1-15.4-85.6-7.5-112.5,25c-57.3,65.3-112,133.8-169.5,199"/>
<path vector-effect="non-scaling-stroke" class="st2" d="M173.1,317.1c-16.4,18.3-36,36.2-44.3,59.7c-9,32.8,10.8,56.1,44.3,55.7
	c12.7,1.4,26.6,4.9,33.5,16.5c9.2,14.2-1,32.6-15.3,38.7c-32.5,14.7-101-33.8-123.3-57.4c-40.3-39.2-43.3-98.8-51.7-151.2
	c-4.8-27.5-6.6-55.8-10.2-83.6c-4.6-30.8-7.6-64.1,11.4-90.9c19.2-28.2,53-39.1,85.3-43.8c37.3-6.6,75.4-8.5,113.1-10.8
	c25-1.7,50.1-5.1,73.9-13.1c29.4-12.7,60.3-26.2,92.7-16.5c16,3.8,32,11.6,48.9,8.5C465.9,25,480.6-6.8,519.5,5
	c23.3,6.7,34.3,29.1,48.3,46.6c13.4,16.7,31.3,30,50,40.4"/>
<path vector-effect="non-scaling-stroke" class="st3" d="M617.6,92c80,44.2,165.9,77.5,247.3,119.4c31.2,16.4,62.9,32.7,91.5,53.4
	c26.4,17.6,34.7,54,18.8,81.3c-16.4,25.7-48.1,32.3-71.6,49.5c-33.6,24.4-64.5,52.5-94.9,80.7c-20.8,26.6,19.8,31.5,6.8,60.8
	c-11.8,26.7-44.5,41.2-72.8,37.5c-20-1-36.4-14.8-52.3-25.6"/>
<circle id="minimapCarCircle" class="st4" cx="690.3" cy="549" r="13.5"/>
</svg>
